Formera-Regular.ufo
<glyph name="exclam" format="1">
  <advance width="200"/>
  <unicode hex="0021"/>
  <outline>
    <contour>
      <point x="145" y="411" type="line" smooth="yes"/>
      <point x="144" y="465"/>
      <point x="146" y="520"/>
      <point x="143" y="576" type="curve" smooth="yes"/>
      <point x="141" y="616"/>
      <point x="142" y="653"/>
      <point x="143" y="692" type="curve" smooth="yes"/>
      <point x="144" y="711"/>
      <point x="145" y="732"/>
      <point x="139" y="750" type="curve"/>
      <point x="125" y="756"/>
      <point x="109" y="756"/>
      <point x="95" y="753" type="curve"/>
      <point x="77" y="752"/>
      <point x="59" y="752"/>
      <point x="48" y="745" type="curve"/>
      <point x="41" y="709"/>
      <point x="48" y="672"/>
      <point x="48" y="634" type="curve" smooth="yes"/>
      <point x="48" y="615"/>
      <point x="47" y="597"/>
      <point x="47" y="577" type="curve" smooth="yes"/>
      <point x="47" y="551"/>
      <point x="50" y="525"/>
      <point x="50" y="500" type="curve" smooth="yes"/>
      <point x="49" y="471"/>
      <point x="50" y="430"/>
      <point x="50" y="402" type="curve" smooth="yes"/>
      <point x="50" y="378"/>
      <point x="49" y="357"/>
      <point x="50" y="338" type="curve" smooth="yes"/>
      <point x="51" y="320"/>
      <point x="48" y="303"/>
      <point x="50" y="292" type="curve" smooth="yes"/>
      <point x="53" y="273"/>
      <point x="51" y="254"/>
      <point x="50" y="234" type="curve" smooth="yes"/>
      <point x="49" y="222"/>
      <point x="46" y="206"/>
      <point x="55" y="196" type="curve"/>
      <point x="69" y="188"/>
      <point x="80" y="200"/>
      <point x="96" y="199" type="curve"/>
      <point x="108" y="200"/>
      <point x="111" y="193"/>
      <point x="123" y="194" type="curve"/>
      <point x="131" y="191"/>
      <point x="141" y="198"/>
      <point x="148" y="199" type="curve"/>
      <point x="149" y="206"/>
      <point x="155" y="208"/>
      <point x="154" y="216" type="curve"/>
      <point x="148" y="230"/>
      <point x="149" y="246"/>
      <point x="148" y="261" type="curve" smooth="yes"/>
      <point x="147" y="277"/>
      <point x="145" y="293"/>
      <point x="145" y="307" type="curve" smooth="yes"/>
    </contour>
    <contour>
      <point x="159" y="78"/>
      <point x="158" y="85"/>
      <point x="158" y="92" type="curve"/>
      <point x="155" y="98"/>
      <point x="152" y="104"/>
      <point x="154" y="114" type="curve"/>
      <point x="141" y="135"/>
      <point x="108" y="147"/>
      <point x="76" y="138" type="curve"/>
      <point x="71" y="135"/>
      <point x="70" y="128"/>
      <point x="64" y="127" type="curve"/>
      <point x="54" y="110"/>
      <point x="42" y="95"/>
      <point x="40" y="72" type="curve"/>
      <point x="42" y="58"/>
      <point x="49" y="48"/>
      <point x="53" y="36" type="curve"/>
      <point x="65" y="31"/>
      <point x="75" y="24"/>
      <point x="88" y="20" type="curve"/>
      <point x="99" y="20"/>
      <point x="109" y="21"/>
      <point x="117" y="19" type="curve"/>
      <point x="127" y="24"/>
      <point x="138" y="29"/>
      <point x="151" y="32" type="curve"/>
      <point x="153" y="36"/>
      <point x="152" y="43"/>
      <point x="155" y="46" type="curve"/>
      <point x="156" y="51"/>
      <point x="163" y="50"/>
      <point x="162" y="57" type="curve" smooth="yes"/>
      <point x="161" y="61"/>
      <point x="164" y="71"/>
      <point x="160" y="72" type="curve"/>
    </contour>
  </outline>
</glyph>
<glyph name="quotedbl" format="1">
  <advance width="323"/>
  <unicode hex="0022"/>
  <outline>
    <contour>
      <point x="108" y="573"/>
      <point x="105" y="600"/>
      <point x="111" y="622" type="curve"/>
      <point x="104" y="641"/>
      <point x="113" y="656"/>
      <point x="113" y="666" type="curve" smooth="yes"/>
      <point x="114" y="690"/>
      <point x="117" y="704"/>
      <point x="112" y="721" type="curve"/>
      <point x="113" y="725"/>
      <point x="118" y="728"/>
      <point x="119" y="732" type="curve"/>
      <point x="119" y="737"/>
      <point x="118" y="740"/>
      <point x="122" y="745" type="curve"/>
      <point x="113" y="759"/>
      <point x="124" y="767"/>
      <point x="117" y="782" type="curve"/>
      <point x="114" y="784"/>
      <point x="113" y="784"/>
      <point x="112" y="787" type="curve"/>
      <point x="89" y="791"/>
      <point x="61" y="795"/>
      <point x="29" y="780" type="curve"/>
      <point x="28" y="762"/>
      <point x="35" y="739"/>
      <point x="34" y="723" type="curve" smooth="yes"/>
      <point x="34" y="679"/>
      <point x="30" y="653"/>
      <point x="40" y="611" type="curve"/>
      <point x="34" y="603"/>
      <point x="38" y="576"/>
      <point x="41" y="568" type="curve"/>
      <point x="38" y="566"/>
      <point x="41" y="565"/>
      <point x="40" y="564" type="curve"/>
      <point x="38" y="555"/>
      <point x="34" y="550"/>
      <point x="41" y="544" type="curve" smooth="yes"/>
      <point x="49" y="537"/>
      <point x="58" y="537"/>
      <point x="67" y="535" type="curve"/>
      <point x="81" y="540"/>
      <point x="91" y="546"/>
      <point x="103" y="550" type="curve"/>
    </contour>
    <contour>
      <point x="214" y="537"/>
      <point x="232" y="535"/>
      <point x="247" y="535" type="curve" smooth="yes"/>
      <point x="255" y="535"/>
      <point x="265" y="537"/>
      <point x="272" y="544" type="curve" smooth="yes"/>
      <point x="280" y="550"/>
      <point x="276" y="555"/>
      <point x="273" y="564" type="curve"/>
      <point x="272" y="565"/>
      <point x="276" y="566"/>
      <point x="272" y="568" type="curve"/>
      <point x="276" y="576"/>
      <point x="276" y="601"/>
      <point x="273" y="611" type="curve" smooth="yes"/>
      <point x="264" y="653"/>
      <point x="280" y="679"/>
      <point x="280" y="723" type="curve" smooth="yes"/>
      <point x="279" y="739"/>
      <point x="285" y="764"/>
      <point x="285" y="780" type="curve" smooth="yes"/>
      <point x="285" y="795"/>
      <point x="225" y="791"/>
      <point x="201" y="787" type="curve"/>
      <point x="200" y="784"/>
      <point x="199" y="784"/>
      <point x="197" y="782" type="curve"/>
      <point x="190" y="767"/>
      <point x="198" y="767"/>
      <point x="198" y="752" type="curve" smooth="yes"/>
      <point x="198" y="745"/>
      <point x="199" y="740"/>
      <point x="199" y="736" type="curve" smooth="yes"/>
      <point x="199" y="731"/>
      <point x="200" y="725"/>
      <point x="201" y="721" type="curve"/>
      <point x="197" y="704"/>
      <point x="199" y="690"/>
      <point x="200" y="666" type="curve" smooth="yes"/>
      <point x="200" y="656"/>
      <point x="204" y="642"/>
      <point x="202" y="622" type="curve" smooth="yes"/>
      <point x="201" y="599"/>
      <point x="208" y="561"/>
      <point x="211" y="550" type="curve" smooth="yes"/>
    </contour>
  </outline>
</glyph>
<glyph name="numbersign" format="1">
  <advance width="661"/>
  <unicode hex="0023"/>
  <outline>
    <contour>
      <point x="265" y="428" type="line"/>
      <point x="264" y="436"/>
      <point x="270" y="437"/>
      <point x="269" y="442" type="curve"/>
      <point x="269" y="459"/>
      <point x="278" y="469"/>
      <point x="283" y="489" type="curve"/>
      <point x="289" y="497"/>
      <point x="294" y="512"/>
      <point x="284" y="518" type="curve"/>
      <point x="273" y="520"/>
      <point x="255" y="519"/>
      <point x="243" y="519" type="curve" smooth="yes"/>
      <point x="226" y="519"/>
      <point x="237" y="520"/>
      <point x="216" y="517" type="curve"/>
      <point x="205" y="508"/>
      <point x="209" y="496"/>
      <point x="208" y="487" type="curve" smooth="yes"/>
      <point x="208" y="474"/>
      <point x="204" y="464"/>
      <point x="197" y="452" type="curve"/>
      <point x="195" y="435"/>
      <point x="191" y="408"/>
      <point x="181" y="392" type="curve"/>
      <point x="181" y="391"/>
      <point x="180" y="391"/>
      <point x="180" y="390" type="curve"/>
      <point x="136" y="390"/>
      <point x="96" y="391"/>
      <point x="89" y="394" type="curve"/>
      <point x="78" y="395"/>
      <point x="65" y="394"/>
      <point x="57" y="386" type="curve"/>
      <point x="54" y="384"/>
      <point x="52" y="382"/>
      <point x="52" y="379" type="curve"/>
      <point x="45" y="370"/>
      <point x="36" y="339"/>
      <point x="49" y="339" type="curve"/>
      <point x="54" y="332"/>
      <point x="57" y="333"/>
      <point x="69" y="331" type="curve" smooth="yes"/>
      <point x="83" y="330"/>
      <point x="124" y="329"/>
      <point x="164" y="329" type="curve"/>
      <point x="159" y="312"/>
      <point x="153" y="293"/>
      <point x="148" y="288" type="curve"/>
      <point x="148" y="280" type="line"/>
      <point x="151" y="268"/>
      <point x="143" y="255"/>
      <point x="140" y="248" type="curve" smooth="yes"/>
      <point x="133" y="234"/>
      <point x="137" y="226"/>
      <point x="131" y="212" type="curve"/>
      <point x="130" y="207"/>
      <point x="129" y="201"/>
      <point x="127" y="196" type="curve"/>
      <point x="124" y="196" type="line" smooth="yes"/>
      <point x="105" y="194"/>
      <point x="74" y="197"/>
      <point x="63" y="196" type="curve" smooth="yes"/>
      <point x="54" y="194"/>
      <point x="45" y="196"/>
      <point x="42" y="191" type="curve"/>
      <point x="31" y="188"/>
      <point x="25" y="177"/>
      <point x="27" y="164" type="curve" smooth="yes"/>
      <point x="27" y="159"/>
      <point x="27" y="155"/>
      <point x="30" y="143" type="curve" smooth="yes"/>
      <point x="33" y="127"/>
      <point x="52" y="121"/>
      <point x="74" y="126" type="curve" smooth="yes"/>
      <point x="80" y="127"/>
      <point x="92" y="127"/>
      <point x="105" y="126" type="curve"/>
      <point x="99" y="102"/>
      <point x="84" y="66"/>
      <point x="81" y="48" type="curve"/>
      <point x="76" y="39"/>
      <point x="72" y="32"/>
      <point x="73" y="25" type="curve"/>
      <point x="67" y="19"/>
      <point x="67" y="15"/>
      <point x="63" y="7" type="curve"/>
      <point x="70" y="-3"/>
      <point x="88" y="-4"/>
      <point x="109" y="-4" type="curve" smooth="yes"/>
      <point x="131" y="-3"/>
      <point x="133" y="-4"/>
      <point x="143" y="6" type="curve" smooth="yes"/>
      <point x="148" y="12"/>
      <point x="145" y="16"/>
      <point x="144" y="20" type="curve"/>
      <point x="149" y="25"/>
      <point x="146" y="30"/>
      <point x="147" y="34" type="curve" smooth="yes"/>
      <point x="154" y="55"/>
      <point x="155" y="53"/>
      <point x="154" y="53" type="curve"/>
      <point x="158" y="71" type="line" smooth="yes"/>
      <point x="160" y="77"/>
      <point x="163" y="78"/>
      <point x="165" y="84" type="curve"/>
      <point x="163" y="93"/>
      <point x="165" y="103"/>
      <point x="170" y="114" type="curve"/>
      <point x="171" y="114"/>
      <point x="170" y="114"/>
      <point x="170" y="116" type="curve"/>
      <point x="172" y="119"/>
      <point x="176" y="125"/>
      <point x="178" y="130" type="curve"/>
      <point x="198" y="130"/>
      <point x="251" y="128"/>
      <point x="266" y="128" type="curve" smooth="yes"/>
      <point x="269" y="128"/>
      <point x="306" y="129"/>
      <point x="352" y="131" type="curve"/>
      <point x="351" y="130"/>
      <point x="351" y="129"/>
      <point x="351" y="128" type="curve" smooth="yes"/>
      <point x="347" y="104"/>
      <point x="328" y="67"/>
      <point x="323" y="48" type="curve"/>
      <point x="323" y="39"/>
      <point x="317" y="32"/>
      <point x="319" y="25" type="curve"/>
      <point x="311" y="19"/>
      <point x="310" y="15"/>
      <point x="308" y="7" type="curve"/>
      <point x="314" y="-3"/>
      <point x="331" y="3"/>
      <point x="353" y="3" type="curve" smooth="yes"/>
      <point x="375" y="4"/>
      <point x="378" y="-4"/>
      <point x="387" y="6" type="curve"/>
      <point x="395" y="12"/>
      <point x="390" y="16"/>
      <point x="391" y="20" type="curve"/>
      <point x="395" y="25"/>
      <point x="392" y="30"/>
      <point x="392" y="34" type="curve"/>
      <point x="404" y="74"/>
      <point x="395" y="32"/>
      <point x="403" y="71" type="curve"/>
      <point x="405" y="77"/>
      <point x="409" y="78"/>
      <point x="412" y="84" type="curve"/>
      <point x="410" y="93"/>
      <point x="411" y="103"/>
      <point x="414" y="114" type="curve"/>
      <point x="416" y="114"/>
      <point x="414" y="114"/>
      <point x="414" y="116" type="curve"/>
      <point x="420" y="120"/>
      <point x="423" y="126"/>
      <point x="424" y="133" type="curve"/>
      <point x="465" y="134"/>
      <point x="500" y="133"/>
      <point x="508" y="130" type="curve" smooth="yes"/>
      <point x="517" y="127"/>
      <point x="532" y="130"/>
      <point x="540" y="138" type="curve"/>
      <point x="543" y="140"/>
      <point x="544" y="142"/>
      <point x="543" y="144" type="curve"/>
      <point x="550" y="156"/>
      <point x="559" y="186"/>
      <point x="546" y="186" type="curve"/>
      <point x="541" y="191"/>
      <point x="537" y="191"/>
      <point x="527" y="194" type="curve"/>
      <point x="514" y="195"/>
      <point x="476" y="195"/>
      <point x="440" y="195" type="curve"/>
      <point x="440" y="198" type="line" smooth="yes"/>
      <point x="440" y="204"/>
      <point x="445" y="208"/>
      <point x="448" y="212" type="curve"/>
      <point x="454" y="226"/>
      <point x="454" y="234"/>
      <point x="455" y="245" type="curve"/>
      <point x="458" y="255"/>
      <point x="459" y="268"/>
      <point x="467" y="279" type="curve"/>
      <point x="467" y="279"/>
      <point x="482" y="322"/>
      <point x="476" y="324" type="curve"/>
      <point x="475" y="324"/>
      <point x="477" y="325"/>
      <point x="478" y="326" type="curve"/>
      <point x="494" y="329" type="line" smooth="yes"/>
      <point x="512" y="331"/>
      <point x="546" y="328"/>
      <point x="558" y="329" type="curve" smooth="yes"/>
      <point x="567" y="330"/>
      <point x="573" y="331"/>
      <point x="579" y="334" type="curve"/>
      <point x="586" y="342"/>
      <point x="599" y="348"/>
      <point x="597" y="359" type="curve" smooth="yes"/>
      <point x="595" y="367"/>
      <point x="600" y="376"/>
      <point x="597" y="388" type="curve" smooth="yes"/>
      <point x="594" y="402"/>
      <point x="572" y="402"/>
      <point x="545" y="396" type="curve" smooth="yes"/>
      <point x="540" y="395"/>
      <point x="514" y="396"/>
      <point x="498" y="396" type="curve"/>
      <point x="501" y="407"/>
      <point x="506" y="418"/>
      <point x="510" y="428" type="curve"/>
      <point x="509" y="436"/>
      <point x="515" y="437"/>
      <point x="517" y="442" type="curve"/>
      <point x="516" y="459"/>
      <point x="522" y="469"/>
      <point x="527" y="489" type="curve"/>
      <point x="529" y="493"/>
      <point x="537" y="490"/>
      <point x="524" y="510" type="curve" smooth="yes"/>
      <point x="516" y="520"/>
      <point x="501" y="519"/>
      <point x="489" y="519" type="curve" smooth="yes"/>
      <point x="472" y="519"/>
      <point x="487" y="516"/>
      <point x="464" y="513" type="curve"/>
      <point x="455" y="504"/>
      <point x="456" y="496"/>
      <point x="454" y="487" type="curve"/>
      <point x="455" y="474"/>
      <point x="447" y="464"/>
      <point x="445" y="452" type="curve" smooth="yes"/>
      <point x="442" y="435"/>
      <point x="436" y="410"/>
      <point x="429" y="394" type="curve"/>
      <point x="403" y="394"/>
      <point x="357" y="395"/>
      <point x="345" y="395" type="curve" smooth="yes"/>
      <point x="341" y="395"/>
      <point x="299" y="393"/>
      <point x="250" y="392" type="curve"/>
    </contour>
    <contour>
      <point x="395" y="280" type="line"/>
      <point x="394" y="268"/>
      <point x="386" y="255"/>
      <point x="387" y="248" type="curve"/>
      <point x="379" y="234"/>
      <point x="387" y="228"/>
      <point x="384" y="215" type="curve" smooth="yes"/>
      <point x="382" y="209"/>
      <point x="379" y="202"/>
      <point x="376" y="196" type="curve"/>
      <point x="375" y="196" type="line"/>
      <point x="346" y="197" type="line" smooth="yes"/>
      <point x="335" y="197"/>
      <point x="271" y="196"/>
      <point x="260" y="194" type="curve"/>
      <point x="235" y="193"/>
      <point x="215" y="196"/>
      <point x="193" y="198" type="curve"/>
      <point x="193" y="204"/>
      <point x="200" y="208"/>
      <point x="205" y="212" type="curve"/>
      <point x="207" y="226"/>
      <point x="207" y="234"/>
      <point x="210" y="245" type="curve" smooth="yes"/>
      <point x="214" y="255"/>
      <point x="212" y="268"/>
      <point x="222" y="279" type="curve"/>
      <point x="222" y="279"/>
      <point x="236" y="322"/>
      <point x="231" y="324" type="curve"/>
      <point x="230" y="324"/>
      <point x="232" y="326"/>
      <point x="233" y="329" type="curve"/>
      <point x="241" y="329"/>
      <point x="252" y="328"/>
      <point x="261" y="328" type="curve" smooth="yes"/>
      <point x="273" y="328"/>
      <point x="341" y="326"/>
      <point x="352" y="329" type="curve"/>
      <point x="373" y="329"/>
      <point x="390" y="328"/>
      <point x="409" y="326" type="curve"/>
      <point x="405" y="310"/>
      <point x="399" y="293"/>
      <point x="394" y="288" type="curve"/>
    </contour>
  </outline>
</glyph>
<glyph name="dollar" format="1">
  <advance width="529"/>
  <unicode hex="0024"/>
  <outline>
    <contour>
      <point x="321" y="8" type="line"/>
      <point x="329" y="8" type="line"/>
      <point x="342" y="12"/>
      <point x="353" y="18"/>
      <point x="370" y="18" type="curve"/>
      <point x="378" y="25"/>
      <point x="391" y="28"/>
      <point x="399" y="35" type="curve"/>
      <point x="409" y="40"/>
      <point x="418" y="48"/>
      <point x="427" y="53" type="curve"/>
      <point x="431" y="58"/>
      <point x="435" y="65"/>
      <point x="441" y="68" type="curve"/>
      <point x="440" y="73"/>
      <point x="445" y="74"/>
      <point x="447" y="76" type="curve" smooth="yes"/>
      <point x="452" y="81"/>
      <point x="455" y="84"/>
      <point x="457" y="88" type="curve" smooth="yes"/>
      <point x="460" y="93"/>
      <point x="461" y="99"/>
      <point x="464" y="103" type="curve"/>
      <point x="471" y="107"/>
      <point x="473" y="116"/>
      <point x="477" y="122" type="curve" smooth="yes"/>
      <point x="480" y="128"/>
      <point x="480" y="136"/>
      <point x="482" y="142" type="curve" smooth="yes"/>
      <point x="484" y="148"/>
      <point x="489" y="153"/>
      <point x="491" y="160" type="curve" smooth="yes"/>
      <point x="492" y="165"/>
      <point x="493" y="176"/>
      <point x="492" y="180" type="curve" smooth="yes"/>
      <point x="488" y="201"/>
      <point x="505" y="227"/>
      <point x="494" y="251" type="curve"/>
      <point x="497" y="270"/>
      <point x="477" y="288"/>
      <point x="474" y="308" type="curve"/>
      <point x="459" y="325"/>
      <point x="445" y="343"/>
      <point x="428" y="359" type="curve"/>
      <point x="416" y="367"/>
      <point x="404" y="377"/>
      <point x="390" y="384" type="curve"/>
      <point x="385" y="389"/>
      <point x="378" y="393"/>
      <point x="370" y="395" type="curve"/>
      <point x="363" y="400"/>
      <point x="356" y="404"/>
      <point x="349" y="407" type="curve"/>
      <point x="338" y="409"/>
      <point x="329" y="412"/>
      <point x="320" y="417" type="curve"/>
      <point x="320" y="420"/>
      <point x="319" y="423"/>
      <point x="319" y="426" type="curve" smooth="yes"/>
      <point x="319" y="434"/>
      <point x="321" y="438"/>
      <point x="322" y="445" type="curve"/>
      <point x="319" y="500"/>
      <point x="319" y="562"/>
      <point x="319" y="623" type="curve"/>
      <point x="333" y="619"/>
      <point x="346" y="614"/>
      <point x="358" y="608" type="curve"/>
      <point x="360" y="605"/>
      <point x="361" y="603"/>
      <point x="366" y="603" type="curve"/>
      <point x="371" y="596"/>
      <point x="377" y="590"/>
      <point x="382" y="583" type="curve"/>
      <point x="389" y="578"/>
      <point x="390" y="565"/>
      <point x="402" y="565" type="curve" smooth="yes"/>
      <point x="419" y="564"/>
      <point x="425" y="572"/>
      <point x="434" y="580" type="curve"/>
      <point x="444" y="585"/>
      <point x="458" y="587"/>
      <point x="460" y="600" type="curve"/>
      <point x="460" y="624"/>
      <point x="443" y="634"/>
      <point x="434" y="650" type="curve"/>
      <point x="427" y="650"/>
      <point x="425" y="657"/>
      <point x="421" y="659" type="curve"/>
      <point x="416" y="663"/>
      <point x="409" y="664"/>
      <point x="404" y="667" type="curve"/>
      <point x="403" y="667"/>
      <point x="403" y="669"/>
      <point x="402" y="670" type="curve" smooth="yes"/>
      <point x="401" y="671"/>
      <point x="399" y="671"/>
      <point x="398" y="671" type="curve"/>
      <point x="389" y="677"/>
      <point x="383" y="684"/>
      <point x="375" y="688" type="curve"/>
      <point x="360" y="685"/>
      <point x="354" y="693"/>
      <point x="347" y="695" type="curve" smooth="yes"/>
      <point x="340" y="696"/>
      <point x="335" y="693"/>
      <point x="330" y="699" type="curve"/>
      <point x="326" y="697"/>
      <point x="323" y="697"/>
      <point x="320" y="697" type="curve"/>
      <point x="320" y="702"/>
      <point x="319" y="701"/>
      <point x="319" y="710" type="curve" smooth="yes"/>
      <point x="319" y="714"/>
      <point x="320" y="718"/>
      <point x="319" y="720" type="curve"/>
      <point x="319" y="730"/>
      <point x="319" y="720"/>
      <point x="318" y="730" type="curve"/>
      <point x="319" y="736"/>
      <point x="320" y="747"/>
      <point x="319" y="757" type="curve" smooth="yes"/>
      <point x="319" y="766"/>
      <point x="319" y="775"/>
      <point x="317" y="780" type="curve" smooth="yes"/>
      <point x="313" y="789"/>
      <point x="300" y="788"/>
      <point x="292" y="789" type="curve" smooth="yes"/>
      <point x="280" y="789"/>
      <point x="270" y="791"/>
      <point x="265" y="783" type="curve" smooth="yes"/>
      <point x="259" y="772"/>
      <point x="263" y="746"/>
      <point x="260" y="730" type="curve"/>
      <point x="262" y="716"/>
      <point x="262" y="708"/>
      <point x="262" y="701" type="curve"/>
      <point x="255" y="702"/>
      <point x="248" y="702"/>
      <point x="240" y="702" type="curve"/>
      <point x="232" y="700"/>
      <point x="228" y="692"/>
      <point x="219" y="690" type="curve" smooth="yes"/>
      <point x="208" y="689"/>
      <point x="201" y="683"/>
      <point x="190" y="682" type="curve"/>
      <point x="182" y="673"/>
      <point x="172" y="667"/>
      <point x="160" y="664" type="curve"/>
      <point x="157" y="658"/>
      <point x="154" y="654"/>
      <point x="146" y="653" type="curve"/>
      <point x="140" y="641"/>
      <point x="129" y="632"/>
      <point x="120" y="623" type="curve"/>
      <point x="118" y="611"/>
      <point x="106" y="604"/>
      <point x="102" y="593" type="curve"/>
      <point x="100" y="590"/>
      <point x="101" y="586"/>
      <point x="100" y="583" type="curve" smooth="yes"/>
      <point x="100" y="582"/>
      <point x="96" y="581"/>
      <point x="96" y="580" type="curve" smooth="yes"/>
      <point x="93" y="569"/>
      <point x="94" y="562"/>
      <point x="91" y="553" type="curve"/>
      <point x="92" y="535"/>
      <point x="89" y="523"/>
      <point x="90" y="506" type="curve" smooth="yes"/>
      <point x="92" y="485"/>
      <point x="98" y="469"/>
      <point x="103" y="451" type="curve"/>
      <point x="114" y="435"/>
      <point x="128" y="421"/>
      <point x="141" y="407" type="curve"/>
      <point x="156" y="403"/>
      <point x="167" y="394"/>
      <point x="178" y="386" type="curve"/>
      <point x="190" y="383"/>
      <point x="199" y="377"/>
      <point x="208" y="371" type="curve"/>
      <point x="227" y="368"/>
      <point x="237" y="358"/>
      <point x="257" y="357" type="curve"/>
      <point x="260" y="355"/>
      <point x="262" y="353"/>
      <point x="265" y="352" type="curve"/>
      <point x="265" y="350"/>
      <point x="266" y="349"/>
      <point x="266" y="348" type="curve" smooth="yes"/>
      <point x="264" y="315"/>
      <point x="265" y="283"/>
      <point x="266" y="249" type="curve" smooth="yes"/>
      <point x="266" y="234"/>
      <point x="267" y="230"/>
      <point x="265" y="217" type="curve"/>
      <point x="267" y="212"/>
      <point x="267" y="202"/>
      <point x="267" y="192" type="curve" smooth="yes"/>
      <point x="265" y="160"/>
      <point x="268" y="130"/>
      <point x="268" y="102" type="curve" smooth="yes"/>
      <point x="268" y="90" type="line"/>
      <point x="245" y="90" type="line"/>
      <point x="224" y="95"/>
      <point x="207" y="105"/>
      <point x="183" y="108" type="curve"/>
      <point x="180" y="114"/>
      <point x="172" y="116"/>
      <point x="170" y="123" type="curve"/>
      <point x="166" y="126"/>
      <point x="166" y="130"/>
      <point x="164" y="135" type="curve"/>
      <point x="156" y="142"/>
      <point x="148" y="149"/>
      <point x="143" y="160" type="curve" smooth="yes"/>
      <point x="138" y="171" type="line" smooth="yes"/>
      <point x="136" y="176"/>
      <point x="134" y="183"/>
      <point x="133" y="190" type="curve"/>
      <point x="128" y="194"/>
      <point x="131" y="206"/>
      <point x="123" y="206" type="curve"/>
      <point x="113" y="211"/>
      <point x="100" y="198"/>
      <point x="91" y="204" type="curve"/>
      <point x="80" y="201"/>
      <point x="68" y="199"/>
      <point x="58" y="195" type="curve"/>
      <point x="52" y="182"/>
      <point x="56" y="166"/>
      <point x="58" y="152" type="curve"/>
      <point x="61" y="145"/>
      <point x="67" y="140"/>
      <point x="68" y="130" type="curve"/>
      <point x="71" y="122"/>
      <point x="76" y="117"/>
      <point x="77" y="107" type="curve"/>
      <point x="85" y="102"/>
      <point x="89" y="94"/>
      <point x="94" y="88" type="curve" smooth="yes"/>
      <point x="100" y="82"/>
      <point x="107" y="77"/>
      <point x="109" y="68" type="curve"/>
      <point x="130" y="61"/>
      <point x="140" y="43"/>
      <point x="158" y="35" type="curve"/>
      <point x="175" y="24"/>
      <point x="197" y="19"/>
      <point x="215" y="10" type="curve"/>
      <point x="226" y="11"/>
      <point x="233" y="8"/>
      <point x="242" y="6" type="curve" smooth="yes"/>
      <point x="250" y="5"/>
      <point x="259" y="5"/>
      <point x="266" y="5" type="curve"/>
      <point x="266" y="-12" type="line" smooth="yes"/>
      <point x="265" y="-32"/>
      <point x="265" y="-52"/>
      <point x="269" y="-69" type="curve"/>
      <point x="275" y="-75"/>
      <point x="285" y="-71"/>
      <point x="295" y="-71" type="curve" smooth="yes"/>
      <point x="304" y="-70"/>
      <point x="315" y="-72"/>
      <point x="321" y="-65" type="curve"/>
      <point x="325" y="-52"/>
      <point x="322" y="-24"/>
      <point x="323" y="-5" type="curve"/>
    </contour>
    <contour>
      <point x="265" y="439" type="line"/>
      <point x="251" y="445"/>
      <point x="239" y="452"/>
      <point x="224" y="456" type="curve"/>
      <point x="210" y="467"/>
      <point x="192" y="475"/>
      <point x="180" y="488" type="curve"/>
      <point x="176" y="498"/>
      <point x="172" y="509"/>
      <point x="170" y="522" type="curve"/>
      <point x="174" y="548"/>
      <point x="184" y="567"/>
      <point x="195" y="588" type="curve"/>
      <point x="213" y="606"/>
      <point x="234" y="619"/>
      <point x="264" y="626" type="curve"/>
      <point x="264" y="575"/>
      <point x="264" y="524"/>
      <point x="265" y="473" type="curve" smooth="yes"/>
    </contour>
    <contour>
      <point x="321" y="96" type="line"/>
      <point x="321" y="207" type="line" smooth="yes"/>
      <point x="321" y="229"/>
      <point x="320" y="250"/>
      <point x="322" y="271" type="curve"/>
      <point x="318" y="287"/>
      <point x="321" y="307"/>
      <point x="321" y="325" type="curve"/>
      <point x="335" y="317"/>
      <point x="349" y="306"/>
      <point x="366" y="299" type="curve"/>
      <point x="373" y="288"/>
      <point x="385" y="281"/>
      <point x="392" y="269" type="curve"/>
      <point x="393" y="263"/>
      <point x="396" y="260"/>
      <point x="399" y="255" type="curve"/>
      <point x="400" y="239"/>
      <point x="409" y="230"/>
      <point x="410" y="214" type="curve" smooth="yes"/>
      <point x="410" y="195"/>
      <point x="400" y="188"/>
      <point x="401" y="169" type="curve"/>
      <point x="394" y="158"/>
      <point x="390" y="144"/>
      <point x="384" y="134" type="curve"/>
      <point x="374" y="125"/>
      <point x="364" y="120"/>
      <point x="355" y="110" type="curve"/>
    </contour>
  </outline>
</glyph>
<glyph name="percent" format="1">
  <advance width="757"/>
  <unicode hex="0025"/>
  <outline>
    <contour>
      <point x="178" y="673" type="line"/>
      <point x="162" y="673" type="line"/>
      <point x="155" y="672"/>
      <point x="148" y="671"/>
      <point x="138" y="667" type="curve" smooth="yes"/>
      <point x="127" y="664" type="line" smooth="yes"/>
      <point x="117" y="661"/>
      <point x="111" y="658"/>
      <point x="101" y="653" type="curve"/>
      <point x="99" y="653"/>
      <point x="94" y="649"/>
      <point x="85" y="640" type="curve" smooth="yes"/>
      <point x="84" y="639" type="line"/>
      <point x="79" y="636" type="line" smooth="yes"/>
      <point x="75" y="633"/>
      <point x="71" y="629"/>
      <point x="64" y="622" type="curve"/>
      <point x="62" y="622"/>
      <point x="59" y="616"/>
      <point x="53" y="602" type="curve"/>
      <point x="46" y="591" type="line" smooth="yes"/>
      <point x="41" y="582"/>
      <point x="38" y="576"/>
      <point x="37" y="568" type="curve" smooth="yes"/>
      <point x="35" y="554" type="line"/>
      <point x="34" y="542" type="line"/>
      <point x="33" y="528" type="line" smooth="yes"/>
      <point x="32" y="516"/>
      <point x="32" y="509"/>
      <point x="35" y="502" type="curve"/>
      <point x="36" y="495" type="line" smooth="yes"/>
      <point x="36" y="489"/>
      <point x="38" y="484"/>
      <point x="42" y="477" type="curve" smooth="yes"/>
      <point x="53" y="454" type="line"/>
      <point x="57" y="447" type="line" smooth="yes"/>
      <point x="62" y="438"/>
      <point x="66" y="431"/>
      <point x="73" y="424" type="curve" smooth="yes"/>
      <point x="79" y="417"/>
      <point x="83" y="410"/>
      <point x="94" y="406" type="curve" smooth="yes"/>
      <point x="104" y="403" type="line"/>
      <point x="127" y="392" type="line" smooth="yes"/>
      <point x="137" y="388"/>
      <point x="143" y="386"/>
      <point x="152" y="385" type="curve"/>
      <point x="157" y="383" type="line" smooth="yes"/>
      <point x="161" y="381"/>
      <point x="166" y="380"/>
      <point x="178" y="380" type="curve"/>
      <point x="179" y="381" type="line"/>
      <point x="178" y="383" type="line"/>
      <point x="191" y="383" type="line" smooth="yes"/>
      <point x="201" y="382"/>
      <point x="207" y="383"/>
      <point x="214" y="385" type="curve" smooth="yes"/>
      <point x="221" y="387"/>
      <point x="227" y="390"/>
      <point x="237" y="394" type="curve" smooth="yes"/>
      <point x="247" y="399" type="line" smooth="yes"/>
      <point x="257" y="404"/>
      <point x="263" y="408"/>
      <point x="269" y="414" type="curve" smooth="yes"/>
      <point x="290" y="434" type="line"/>
      <point x="291" y="434" type="line"/>
      <point x="291" y="434"/>
      <point x="293" y="438"/>
      <point x="299" y="447" type="curve" smooth="yes"/>
      <point x="303" y="454" type="line" smooth="yes"/>
      <point x="307" y="461"/>
      <point x="310" y="467"/>
      <point x="315" y="477" type="curve"/>
      <point x="315" y="478" type="line"/>
      <point x="321" y="502" type="line" smooth="yes"/>
      <point x="323" y="512"/>
      <point x="324" y="518"/>
      <point x="324" y="528" type="curve"/>
      <point x="325" y="529"/>
      <point x="324" y="529"/>
      <point x="323" y="528" type="curve"/>
      <point x="321" y="554" type="line" smooth="yes"/>
      <point x="320" y="564"/>
      <point x="318" y="571"/>
      <point x="314" y="579" type="curve" smooth="yes"/>
      <point x="310" y="589"/>
      <point x="307" y="595"/>
      <point x="303" y="602" type="curve"/>
      <point x="304" y="603" type="line"/>
      <point x="295" y="615" type="line"/>
      <point x="289" y="622" type="line"/>
      <point x="290" y="623" type="line"/>
      <point x="279" y="634" type="line"/>
      <point x="273" y="640" type="line"/>
      <point x="274" y="641"/>
      <point x="270" y="643"/>
      <point x="260" y="649" type="curve" smooth="yes"/>
      <point x="252" y="653" type="line"/>
      <point x="230" y="664" type="line" smooth="yes"/>
      <point x="220" y="668"/>
      <point x="214" y="670"/>
      <point x="204" y="671" type="curve" smooth="yes"/>
      <point x="192" y="673" type="line"/>
      <point x="178" y="674" type="line"/>
    </contour>
    <contour>
      <point x="94" y="528" type="line"/>
      <point x="95" y="541" type="line"/>
      <point x="96" y="541" type="line"/>
      <point x="100" y="555" type="line"/>
      <point x="103" y="568" type="line"/>
      <point x="119" y="591" type="line"/>
      <point x="140" y="607" type="line"/>
      <point x="163" y="616" type="line"/>
      <point x="177" y="618" type="line"/>
      <point x="178" y="618" type="line"/>
      <point x="203" y="610" type="line"/>
      <point x="201" y="608"/>
      <point x="207" y="607"/>
      <point x="214" y="606" type="curve"/>
      <point x="214" y="605" type="line" smooth="yes"/>
      <point x="214" y="603"/>
      <point x="220" y="600"/>
      <point x="232" y="594" type="curve" smooth="yes"/>
      <point x="238" y="591" type="line"/>
      <point x="237" y="590" type="line" smooth="yes"/>
      <point x="236" y="589"/>
      <point x="241" y="582"/>
      <point x="252" y="570" type="curve" smooth="yes"/>
      <point x="253" y="569" type="line"/>
      <point x="252" y="569" type="line" smooth="yes"/>
      <point x="251" y="569"/>
      <point x="254" y="558"/>
      <point x="261" y="542" type="curve"/>
      <point x="260" y="542" type="line" smooth="yes"/>
      <point x="259" y="542"/>
      <point x="259" y="532"/>
      <point x="261" y="516" type="curve" smooth="yes"/>
      <point x="261" y="514" type="line"/>
      <point x="260" y="513" type="line" smooth="yes"/>
      <point x="258" y="511"/>
      <point x="257" y="506"/>
      <point x="254" y="495" type="curve" smooth="yes"/>
      <point x="253" y="488" type="line"/>
      <point x="252" y="488" type="line" smooth="yes"/>
      <point x="250" y="488"/>
      <point x="247" y="482"/>
      <point x="241" y="470" type="curve" smooth="yes"/>
      <point x="239" y="466" type="line"/>
      <point x="236" y="463" type="line"/>
      <point x="218" y="450" type="line"/>
      <point x="217" y="450" type="line" smooth="yes"/>
      <point x="215" y="450"/>
      <point x="211" y="448"/>
      <point x="200" y="444" type="curve" smooth="yes"/>
      <point x="192" y="441" type="line"/>
      <point x="165" y="441" type="line"/>
      <point x="166" y="442"/>
      <point x="162" y="443"/>
      <point x="151" y="446" type="curve" smooth="yes"/>
      <point x="140" y="449" type="line"/>
      <point x="141" y="449"/>
      <point x="138" y="451"/>
      <point x="128" y="458" type="curve" smooth="yes"/>
      <point x="119" y="465" type="line"/>
      <point x="104" y="487" type="line"/>
      <point x="96" y="514" type="line"/>
      <point x="97" y="515" type="line"/>
    </contour>
    <contour>
      <point x="150" y="3" type="curve" smooth="yes"/>
      <point x="158" y="-4" type="line"/>
      <point x="158" y="-6"/>
      <point x="162" y="-8"/>
      <point x="169" y="-10" type="curve" smooth="yes"/>
      <point x="176" y="-12"/>
      <point x="184" y="-7"/>
      <point x="191" y="6" type="curve" smooth="yes"/>
      <point x="193" y="9" type="line" smooth="yes"/>
      <point x="194" y="10"/>
      <point x="196" y="13"/>
      <point x="201" y="23" type="curve" smooth="yes"/>
      <point x="204" y="29" type="line"/>
      <point x="216" y="47" type="line" smooth="yes"/>
      <point x="222" y="56"/>
      <point x="225" y="62"/>
      <point x="229" y="71" type="curve"/>
      <point x="230" y="71" type="line"/>
      <point x="238" y="84" type="line"/>
      <point x="241" y="89" type="line"/>
      <point x="248" y="102" type="line"/>
      <point x="253" y="113" type="line"/>
      <point x="265" y="131" type="line"/>
      <point x="272" y="144" type="line"/>
      <point x="277" y="155" type="line"/>
      <point x="290" y="177" type="line"/>
      <point x="291" y="178"/>
      <point x="293" y="181"/>
      <point x="298" y="190" type="curve" smooth="yes"/>
      <point x="302" y="197" type="line"/>
      <point x="326" y="239" type="line"/>
      <point x="330" y="243" type="line" smooth="yes"/>
      <point x="332" y="246"/>
      <point x="335" y="251"/>
      <point x="339" y="261" type="curve"/>
      <point x="340" y="262" type="line"/>
      <point x="340" y="262"/>
      <point x="342" y="265"/>
      <point x="347" y="275" type="curve" smooth="yes"/>
      <point x="350" y="281" type="line"/>
      <point x="362" y="299" type="line"/>
      <point x="375" y="323" type="line"/>
      <point x="375" y="322"/>
      <point x="383" y="334"/>
      <point x="388" y="344" type="curve"/>
      <point x="388" y="343"/>
      <point x="395" y="356"/>
      <point x="399" y="364" type="curve" smooth="yes"/>
      <point x="407" y="376" type="line"/>
      <point x="423" y="406" type="line"/>
      <point x="435" y="424" type="line"/>
      <point x="442" y="436" type="line"/>
      <point x="447" y="448" type="line"/>
      <point x="461" y="470" type="line"/>
      <point x="472" y="490" type="line"/>
      <point x="473" y="490" type="line"/>
      <point x="481" y="502" type="line"/>
      <point x="484" y="508" type="line"/>
      <point x="491" y="520" type="line"/>
      <point x="496" y="532" type="line"/>
      <point x="500" y="536" type="line" smooth="yes"/>
      <point x="502" y="539"/>
      <point x="505" y="544"/>
      <point x="509" y="554" type="curve"/>
      <point x="510" y="555" type="line"/>
      <point x="510" y="555"/>
      <point x="512" y="558"/>
      <point x="517" y="568" type="curve" smooth="yes"/>
      <point x="520" y="574" type="line"/>
      <point x="520" y="573"/>
      <point x="527" y="583"/>
      <point x="533" y="592" type="curve" smooth="yes"/>
      <point x="540" y="604" type="line"/>
      <point x="545" y="616" type="line"/>
      <point x="553" y="628" type="line"/>
      <point x="569" y="658" type="line"/>
      <point x="570" y="658" type="line"/>
      <point x="570" y="658"/>
      <point x="563" y="662"/>
      <point x="551" y="670" type="curve"/>
      <point x="552" y="671"/>
      <point x="549" y="672"/>
      <point x="541" y="676" type="curve"/>
      <point x="534" y="678"/>
      <point x="526" y="673"/>
      <point x="518" y="660" type="curve" smooth="yes"/>
      <point x="505" y="637" type="line"/>
      <point x="489" y="615" type="line"/>
      <point x="489" y="616"/>
      <point x="488" y="614"/>
      <point x="486" y="608" type="curve"/>
      <point x="485" y="607" type="line" smooth="yes"/>
      <point x="483" y="605"/>
      <point x="481" y="601"/>
      <point x="476" y="591" type="curve" smooth="yes"/>
      <point x="472" y="581" type="line"/>
      <point x="471" y="581" type="line" smooth="yes"/>
      <point x="469" y="581"/>
      <point x="467" y="577"/>
      <point x="464" y="569" type="curve"/>
      <point x="464" y="570"/>
      <point x="463" y="567"/>
      <point x="458" y="557" type="curve" smooth="yes"/>
      <point x="455" y="550" type="line"/>
      <point x="440" y="526" type="line"/>
      <point x="430" y="507" type="line"/>
      <point x="424" y="498" type="line" smooth="yes"/>
      <point x="417" y="489"/>
      <point x="413" y="482"/>
      <point x="409" y="472" type="curve" smooth="yes"/>
      <point x="405" y="464" type="line"/>
      <point x="400" y="459" type="line" smooth="yes"/>
      <point x="395" y="454"/>
      <point x="393" y="450"/>
      <point x="389" y="442" type="curve"/>
      <point x="389" y="443"/>
      <point x="388" y="441"/>
      <point x="385" y="434" type="curve"/>
      <point x="384" y="434" type="line" smooth="yes"/>
      <point x="382" y="434"/>
      <point x="379" y="428"/>
      <point x="374" y="415" type="curve" smooth="yes"/>
      <point x="372" y="410" type="line"/>
      <point x="371" y="409" type="line" smooth="yes"/>
      <point x="369" y="407"/>
      <point x="368" y="405"/>
      <point x="364" y="399" type="curve"/>
      <point x="362" y="399"/>
      <point x="359" y="392"/>
      <point x="354" y="378" type="curve"/>
      <point x="354" y="377" type="line"/>
      <point x="342" y="357" type="line"/>
      <point x="329" y="334" type="line"/>
      <point x="319" y="319" type="line"/>
      <point x="314" y="310" type="line"/>
      <point x="313" y="309" type="line" smooth="yes"/>
      <point x="311" y="307"/>
      <point x="309" y="303"/>
      <point x="305" y="292" type="curve"/>
      <point x="304" y="291" type="line"/>
      <point x="303" y="290" type="line" smooth="yes"/>
      <point x="301" y="288"/>
      <point x="299" y="284"/>
      <point x="294" y="274" type="curve" smooth="yes"/>
      <point x="292" y="270" type="line"/>
      <point x="288" y="265" type="line" smooth="yes"/>
      <point x="284" y="260"/>
      <point x="282" y="256"/>
      <point x="279" y="248" type="curve"/>
      <point x="278" y="248" type="line" smooth="yes"/>
      <point x="276" y="248"/>
      <point x="274" y="243"/>
      <point x="269" y="231" type="curve"/>
      <point x="263" y="222" type="line" smooth="yes"/>
      <point x="258" y="215"/>
      <point x="254" y="209"/>
      <point x="250" y="199" type="curve" smooth="yes"/>
      <point x="249" y="196" type="line"/>
      <point x="229" y="161" type="line"/>
      <point x="218" y="146" type="line"/>
      <point x="213" y="137" type="line"/>
      <point x="213" y="138"/>
      <point x="211" y="135"/>
      <point x="207" y="124" type="curve" smooth="yes"/>
      <point x="204" y="118" type="line"/>
      <point x="197" y="108" type="line" smooth="yes"/>
      <point x="191" y="100"/>
      <point x="187" y="93"/>
      <point x="183" y="83" type="curve" smooth="yes"/>
      <point x="179" y="75" type="line"/>
      <point x="166" y="54" type="line"/>
      <point x="154" y="32" type="line"/>
      <point x="153" y="30" type="line" smooth="yes"/>
      <point x="145" y="17"/>
      <point x="144" y="8"/>
    </contour>
    <contour>
      <point x="387" y="117" type="curve" smooth="yes"/>
      <point x="389" y="109" type="line"/>
      <point x="387" y="109"/>
      <point x="390" y="100"/>
      <point x="396" y="87" type="curve"/>
      <point x="396" y="85"/>
      <point x="398" y="80"/>
      <point x="402" y="69" type="curve" smooth="yes"/>
      <point x="404" y="64" type="line" smooth="yes"/>
      <point x="408" y="55"/>
      <point x="413" y="49"/>
      <point x="421" y="44" type="curve"/>
      <point x="435" y="27" type="line" smooth="yes"/>
      <point x="442" y="20"/>
      <point x="448" y="16"/>
      <point x="458" y="13" type="curve"/>
      <point x="458" y="12" type="line" smooth="yes"/>
      <point x="458" y="10"/>
      <point x="464" y="8"/>
      <point x="478" y="2" type="curve" smooth="yes"/>
      <point x="488" y="-2"/>
      <point x="496" y="-4"/>
      <point x="506" y="-5" type="curve" smooth="yes"/>
      <point x="516" y="-6" type="line"/>
      <point x="532" y="-7" type="line"/>
      <point x="532" y="-8" type="line" smooth="yes"/>
      <point x="532" y="-9"/>
      <point x="540" y="-9"/>
      <point x="555" y="-8" type="curve" smooth="yes"/>
      <point x="563" y="-7"/>
      <point x="570" y="-4"/>
      <point x="580" y="1" type="curve" smooth="yes"/>
      <point x="586" y="4" type="line" smooth="yes"/>
      <point x="592" y="6"/>
      <point x="604" y="11"/>
      <point x="603" y="10" type="curve" smooth="yes"/>
      <point x="626" y="27" type="line"/>
      <point x="623" y="24" type="line"/>
      <point x="631" y="31" type="line" smooth="yes"/>
      <point x="640" y="38"/>
      <point x="644" y="42"/>
      <point x="647" y="46" type="curve" smooth="yes"/>
      <point x="649" y="49"/>
      <point x="652" y="54"/>
      <point x="657" y="64" type="curve" smooth="yes"/>
      <point x="662" y="74" type="line" smooth="yes"/>
      <point x="667" y="84"/>
      <point x="670" y="92"/>
      <point x="673" y="103" type="curve" smooth="yes"/>
      <point x="675" y="112" type="line" smooth="yes"/>
      <point x="677" y="122"/>
      <point x="678" y="128"/>
      <point x="678" y="138" type="curve"/>
      <point x="677" y="138" type="line"/>
      <point x="677" y="152" type="line" smooth="yes"/>
      <point x="676" y="161"/>
      <point x="675" y="169"/>
      <point x="671" y="180" type="curve" smooth="yes"/>
      <point x="664" y="201" type="line"/>
      <point x="658" y="213" type="line"/>
      <point x="658" y="214" type="line"/>
      <point x="658" y="214"/>
      <point x="655" y="217"/>
      <point x="648" y="226" type="curve" smooth="yes"/>
      <point x="643" y="232" type="line"/>
      <point x="643" y="233"/>
      <point x="640" y="236"/>
      <point x="633" y="244" type="curve" smooth="yes"/>
      <point x="627" y="250" type="line"/>
      <point x="628" y="251"/>
      <point x="624" y="253"/>
      <point x="614" y="259" type="curve" smooth="yes"/>
      <point x="606" y="263" type="line" smooth="yes"/>
      <point x="599" y="267"/>
      <point x="593" y="270"/>
      <point x="583" y="274" type="curve" smooth="yes"/>
      <point x="575" y="278"/>
      <point x="568" y="280"/>
      <point x="558" y="281" type="curve" smooth="yes"/>
      <point x="550" y="283"/>
      <point x="543" y="284"/>
      <point x="533" y="284" type="curve"/>
      <point x="532" y="283" type="line"/>
      <point x="527" y="284" type="line" smooth="yes"/>
      <point x="522" y="284"/>
      <point x="517" y="283"/>
      <point x="507" y="282" type="curve"/>
      <point x="495" y="279" type="line"/>
      <point x="481" y="274" type="line"/>
      <point x="471" y="270" type="line"/>
      <point x="458" y="263" type="line"/>
      <point x="456" y="263"/>
      <point x="451" y="260"/>
      <point x="441" y="252" type="curve" smooth="yes"/>
      <point x="438" y="249" type="line"/>
      <point x="426" y="237" type="line" smooth="yes"/>
      <point x="418" y="229"/>
      <point x="413" y="222"/>
      <point x="407" y="213" type="curve"/>
      <point x="407" y="212" type="line"/>
      <point x="405" y="209" type="line" smooth="yes"/>
      <point x="399" y="199"/>
      <point x="396" y="193"/>
      <point x="393" y="186" type="curve"/>
      <point x="393" y="187"/>
      <point x="392" y="183"/>
      <point x="390" y="172" type="curve" smooth="yes"/>
      <point x="389" y="164" type="line"/>
      <point x="386" y="155"/>
      <point x="386" y="148"/>
      <point x="387" y="139" type="curve" smooth="yes"/>
      <point x="387" y="138" type="line" smooth="yes"/>
      <point x="386" y="128"/>
      <point x="386" y="122"/>
    </contour>
    <contour>
      <point x="449" y="124" type="line"/>
      <point x="449" y="153" type="line"/>
      <point x="450" y="154" type="line"/>
      <point x="454" y="169" type="line"/>
      <point x="457" y="179" type="line"/>
      <point x="458" y="180" type="line"/>
      <point x="467" y="193" type="line"/>
      <point x="473" y="201" type="line"/>
      <point x="474" y="201" type="line"/>
      <point x="474" y="201"/>
      <point x="477" y="204"/>
      <point x="486" y="211" type="curve" smooth="yes"/>
      <point x="494" y="217" type="line"/>
      <point x="517" y="224" type="line"/>
      <point x="518" y="224" type="line"/>
      <point x="529" y="225" type="line"/>
      <point x="551" y="223" type="line"/>
      <point x="549" y="221"/>
      <point x="554" y="220"/>
      <point x="560" y="220" type="curve"/>
      <point x="560" y="218"/>
      <point x="563" y="217"/>
      <point x="568" y="216" type="curve"/>
      <point x="568" y="215" type="line" smooth="yes"/>
      <point x="568" y="213"/>
      <point x="574" y="210"/>
      <point x="586" y="204" type="curve" smooth="yes"/>
      <point x="592" y="201" type="line"/>
      <point x="592" y="200" type="line" smooth="yes"/>
      <point x="592" y="198"/>
      <point x="595" y="194"/>
      <point x="603" y="184" type="curve" smooth="yes"/>
      <point x="607" y="179" type="line"/>
      <point x="606" y="178" type="line" smooth="yes"/>
      <point x="604" y="176"/>
      <point x="606" y="170"/>
      <point x="612" y="157" type="curve" smooth="yes"/>
      <point x="614" y="151" type="line"/>
      <point x="614" y="135" type="line"/>
      <point x="615" y="124" type="line"/>
      <point x="614" y="124" type="line" smooth="yes"/>
      <point x="612" y="124"/>
      <point x="611" y="117"/>
      <point x="608" y="102" type="curve" smooth="yes"/>
      <point x="607" y="98" type="line"/>
      <point x="606" y="98" type="line" smooth="yes"/>
      <point x="604" y="98"/>
      <point x="601" y="92"/>
      <point x="595" y="80" type="curve" smooth="yes"/>
      <point x="593" y="76" type="line"/>
      <point x="593" y="77"/>
      <point x="590" y="74"/>
      <point x="581" y="67" type="curve" smooth="yes"/>
      <point x="572" y="60" type="line"/>
      <point x="572" y="61" type="line"/>
      <point x="558" y="55" type="line"/>
      <point x="547" y="51" type="line"/>
      <point x="548" y="52"/>
      <point x="544" y="51"/>
      <point x="533" y="49" type="curve"/>
      <point x="519" y="51" type="line"/>
      <point x="506" y="55" type="line"/>
      <point x="494" y="59" type="line"/>
      <point x="473" y="75" type="line"/>
      <point x="473" y="76" type="line"/>
      <point x="464" y="88" type="line"/>
      <point x="457" y="97" type="line"/>
      <point x="458" y="97" type="line"/>
      <point x="458" y="97"/>
      <point x="457" y="101"/>
      <point x="453" y="112" type="curve" smooth="yes"/>
    </contour>
  </outline>
</glyph>
<glyph name="quotesingle" format="1">
  <advance width="197"/>
  <unicode hex="0027"/>
  <outline>
    <contour>
      <point x="124" y="573"/>
      <point x="121" y="600"/>
      <point x="127" y="622" type="curve"/>
      <point x="120" y="641"/>
      <point x="125" y="657"/>
      <point x="129" y="666" type="curve"/>
      <point x="120" y="688"/>
      <point x="133" y="704"/>
      <point x="128" y="721" type="curve"/>
      <point x="129" y="725"/>
      <point x="134" y="728"/>
      <point x="135" y="732" type="curve"/>
      <point x="135" y="737"/>
      <point x="134" y="740"/>
      <point x="138" y="745" type="curve"/>
      <point x="129" y="759"/>
      <point x="140" y="767"/>
      <point x="133" y="782" type="curve"/>
      <point x="130" y="784"/>
      <point x="129" y="784"/>
      <point x="128" y="787" type="curve"/>
      <point x="105" y="791"/>
      <point x="77" y="795"/>
      <point x="45" y="780" type="curve"/>
      <point x="43" y="762"/>
      <point x="51" y="739"/>
      <point x="50" y="723" type="curve" smooth="yes"/>
      <point x="50" y="679"/>
      <point x="46" y="653"/>
      <point x="56" y="611" type="curve"/>
      <point x="50" y="603"/>
      <point x="54" y="576"/>
      <point x="57" y="568" type="curve"/>
      <point x="54" y="566"/>
      <point x="57" y="565"/>
      <point x="56" y="564" type="curve"/>
      <point x="54" y="555"/>
      <point x="50" y="550"/>
      <point x="57" y="544" type="curve" smooth="yes"/>
      <point x="65" y="537"/>
      <point x="74" y="537"/>
      <point x="83" y="535" type="curve"/>
      <point x="96" y="540"/>
      <point x="107" y="546"/>
      <point x="119" y="550" type="curve"/>
    </contour>
  </outline>
</glyph>
<glyph name="parenleft" format="1">
  <advance width="255"/>
  <unicode hex="0028"/>
  <outline>
    <contour>
      <point x="205" y="-55" type="line" smooth="yes"/>
      <point x="199" y="-42"/>
      <point x="191" y="-29"/>
      <point x="186" y="-12" type="curve" smooth="yes"/>
      <point x="182" y="4"/>
      <point x="175" y="19"/>
      <point x="170" y="35" type="curve"/>
      <point x="155" y="62"/>
      <point x="135" y="145"/>
      <point x="127" y="183" type="curve"/>
      <point x="129" y="206"/>
      <point x="120" y="227"/>
      <point x="119" y="251" type="curve" smooth="yes"/>
      <point x="118" y="263"/>
      <point x="120" y="276"/>
      <point x="120" y="289" type="curve" smooth="yes"/>
      <point x="120" y="308"/>
      <point x="120" y="326"/>
      <point x="119" y="344" type="curve"/>
      <point x="122" y="361"/>
      <point x="125" y="384"/>
      <point x="123" y="401" type="curve"/>
      <point x="125" y="409"/>
      <point x="128" y="415"/>
      <point x="131" y="421" type="curve"/>
      <point x="127" y="433"/>
      <point x="132" y="443"/>
      <point x="134" y="453" type="curve"/>
      <point x="135" y="489"/>
      <point x="140" y="521"/>
      <point x="151" y="549" type="curve"/>
      <point x="151" y="557"/>
      <point x="148" y="561"/>
      <point x="149" y="570" type="curve"/>
      <point x="152" y="579"/>
      <point x="158" y="587"/>
      <point x="158" y="600" type="curve"/>
      <point x="161" y="611"/>
      <point x="165" y="622"/>
      <point x="172" y="628" type="curve"/>
      <point x="169" y="641"/>
      <point x="175" y="646"/>
      <point x="174" y="660" type="curve"/>
      <point x="181" y="677"/>
      <point x="179" y="669"/>
      <point x="183" y="685" type="curve" smooth="yes"/>
      <point x="185" y="690"/>
      <point x="188" y="696"/>
      <point x="188" y="703" type="curve"/>
      <point x="196" y="712"/>
      <point x="198" y="725"/>
      <point x="206" y="732" type="curve"/>
      <point x="205" y="750"/>
      <point x="218" y="763"/>
      <point x="215" y="780" type="curve" smooth="yes"/>
      <point x="213" y="791"/>
      <point x="181" y="810"/>
      <point x="174" y="812" type="curve" smooth="yes"/>
      <point x="167" y="815"/>
      <point x="163" y="815"/>
      <point x="157" y="815" type="curve"/>
      <point x="149" y="810"/>
      <point x="147" y="800"/>
      <point x="143" y="791" type="curve" smooth="yes"/>
      <point x="135" y="774"/>
      <point x="125" y="761"/>
      <point x="122" y="739" type="curve"/>
      <point x="110" y="714" type="line"/>
      <point x="106" y="687"/>
      <point x="102" y="686"/>
      <point x="97" y="665" type="curve" smooth="yes"/>
      <point x="94" y="648" type="line" smooth="yes"/>
      <point x="92" y="638"/>
      <point x="87" y="628"/>
      <point x="85" y="617" type="curve"/>
      <point x="80" y="604"/>
      <point x="80" y="586"/>
      <point x="73" y="575" type="curve"/>
      <point x="75" y="559"/>
      <point x="71" y="543"/>
      <point x="68" y="526" type="curve" smooth="yes"/>
      <point x="63" y="493"/>
      <point x="59" y="458"/>
      <point x="57" y="424" type="curve" smooth="yes"/>
      <point x="54" y="395"/>
      <point x="57" y="365"/>
      <point x="51" y="342" type="curve"/>
      <point x="58" y="313"/>
      <point x="50" y="285"/>
      <point x="50" y="259" type="curve" smooth="yes"/>
      <point x="50" y="245"/>
      <point x="52" y="231"/>
      <point x="53" y="217" type="curve" smooth="yes"/>
      <point x="54" y="204"/>
      <point x="54" y="189"/>
      <point x="57" y="175" type="curve" smooth="yes"/>
      <point x="59" y="162"/>
      <point x="64" y="149"/>
      <point x="62" y="136" type="curve"/>
      <point x="70" y="106" type="line"/>
      <point x="82" y="91"/>
      <point x="85" y="70"/>
      <point x="92" y="52" type="curve"/>
      <point x="98" y="17" type="line"/>
      <point x="105" y="5"/>
      <point x="113" y="-10"/>
      <point x="116" y="-28" type="curve"/>
      <point x="121" y="-37"/>
      <point x="126" y="-45"/>
      <point x="131" y="-55" type="curve" smooth="yes"/>
      <point x="136" y="-64"/>
      <point x="138" y="-76"/>
      <point x="148" y="-81" type="curve"/>
      <point x="159" y="-80"/>
      <point x="172" y="-80"/>
      <point x="183" y="-78" type="curve"/>
      <point x="187" y="-72"/>
      <point x="208" y="-72"/>
      <point x="208" y="-61" type="curve"/>
    </contour>
  </outline>
</glyph>
<glyph name="four" format="1">
  <advance width="579"/>
  <unicode hex="0034"/>
  <outline>
    <contour>
      <point x="434" y="437" type="line"/>
      <point x="438" y="448"/>
      <point x="437" y="466"/>
      <point x="441" y="478" type="curve"/>
      <point x="441" y="494"/>
      <point x="442" y="511"/>
      <point x="429" y="515" type="curve"/>
      <point x="407" y="513"/>
      <point x="408" y="490"/>
      <point x="394" y="481" type="curve"/>
      <point x="393" y="471"/>
      <point x="385" y="469"/>
      <point x="381" y="461" type="curve" smooth="yes"/>
      <point x="377" y="453"/>
      <point x="370" y="448"/>
      <point x="369" y="438" type="curve"/>
      <point x="366" y="435"/>
      <point x="361" y="434"/>
      <point x="358" y="431" type="curve" smooth="yes"/>
      <point x="356" y="428"/>
      <point x="355" y="424"/>
      <point x="352" y="421" type="curve" smooth="yes"/>
      <point x="347" y="414"/>
      <point x="340" y="410"/>
      <point x="335" y="403" type="curve" smooth="yes"/>
      <point x="329" y="393" type="line"/>
      <point x="320" y="383"/>
      <point x="311" y="375"/>
      <point x="303" y="365" type="curve"/>
      <point x="298" y="353"/>
      <point x="287" y="346"/>
      <point x="282" y="334" type="curve"/>
      <point x="272" y="326"/>
      <point x="266" y="315"/>
      <point x="257" y="306" type="curve"/>
      <point x="251" y="305"/>
      <point x="254" y="297"/>
      <point x="250" y="296" type="curve"/>
      <point x="248" y="292"/>
      <point x="244" y="290"/>
      <point x="244" y="284" type="curve"/>
      <point x="231" y="276"/>
      <point x="223" y="265"/>
      <point x="215" y="252" type="curve"/>
      <point x="205" y="243"/>
      <point x="198" y="229"/>
      <point x="187" y="220" type="curve"/>
      <point x="183" y="214"/>
      <point x="177" y="210"/>
      <point x="173" y="204" type="curve"/>
      <point x="167" y="199"/>
      <point x="166" y="190"/>
      <point x="160" y="188" type="curve"/>
      <point x="154" y="174"/>
      <point x="145" y="162"/>
      <point x="135" y="153" type="curve"/>
      <point x="120" y="127"/>
      <point x="99" y="108"/>
      <point x="82" y="85" type="curve"/>
      <point x="71" y="75"/>
      <point x="63" y="64"/>
      <point x="55" y="52" type="curve" smooth="yes"/>
      <point x="48" y="38"/>
      <point x="31" y="34"/>
      <point x="30" y="15" type="curve"/>
      <point x="39" y="0"/>
      <point x="56" y="4"/>
      <point x="74" y="3" type="curve" smooth="yes"/>
      <point x="81" y="3"/>
      <point x="87" y="2"/>
      <point x="93" y="2" type="curve" smooth="yes"/>
      <point x="100" y="2"/>
      <point x="107" y="5"/>
      <point x="114" y="5" type="curve" smooth="yes"/>
      <point x="125" y="5"/>
      <point x="138" y="2"/>
      <point x="148" y="2" type="curve" smooth="yes"/>
      <point x="167" y="2"/>
      <point x="187" y="4"/>
      <point x="205" y="3" type="curve" smooth="yes"/>
      <point x="216" y="3"/>
      <point x="226" y="2"/>
      <point x="235" y="3" type="curve" smooth="yes"/>
      <point x="245" y="4"/>
      <point x="258" y="4"/>
      <point x="268" y="3" type="curve"/>
      <point x="284" y="10"/>
      <point x="304" y="8"/>
      <point x="323" y="6" type="curve" smooth="yes"/>
      <point x="332" y="5"/>
      <point x="343" y="6"/>
      <point x="349" y="2" type="curve"/>
      <point x="353" y="-11"/>
      <point x="349" y="-26"/>
      <point x="346" y="-37" type="curve"/>
      <point x="352" y="-55"/>
      <point x="349" y="-74"/>
      <point x="349" y="-92" type="curve" smooth="yes"/>
      <point x="349" y="-110"/>
      <point x="354" y="-128"/>
      <point x="351" y="-147" type="curve"/>
      <point x="347" y="-156"/>
      <point x="346" y="-166"/>
      <point x="343" y="-177" type="curve"/>
      <point x="347" y="-183"/>
      <point x="350" y="-190"/>
      <point x="354" y="-195" type="curve"/>
      <point x="360" y="-200"/>
      <point x="371" y="-201"/>
      <point x="378" y="-204" type="curve"/>
      <point x="386" y="-202"/>
      <point x="393" y="-199"/>
      <point x="402" y="-199" type="curve" smooth="yes"/>
      <point x="418" y="-197"/>
      <point x="434" y="-201"/>
      <point x="444" y="-195" type="curve"/>
      <point x="447" y="-178"/>
      <point x="442" y="-161"/>
      <point x="441" y="-143" type="curve" smooth="yes"/>
      <point x="440" y="-128"/>
      <point x="441" y="-107"/>
      <point x="441" y="-95" type="curve" smooth="yes"/>
      <point x="441" y="-92"/>
      <point x="439" y="-88"/>
      <point x="439" y="-85" type="curve" smooth="yes"/>
      <point x="439" y="-67" type="line" smooth="yes"/>
      <point x="438" y="-39"/>
      <point x="431" y="-11"/>
      <point x="444" y="11" type="curve"/>
      <point x="463" y="11"/>
      <point x="483" y="11"/>
      <point x="499" y="6" type="curve"/>
      <point x="508" y="10"/>
      <point x="516" y="7"/>
      <point x="526" y="6" type="curve" smooth="yes"/>
      <point x="537" y="5"/>
      <point x="541" y="12"/>
      <point x="549" y="14" type="curve"/>
      <point x="552" y="19"/>
      <point x="554" y="27"/>
      <point x="554" y="34" type="curve" smooth="yes"/>
      <point x="554" y="35"/>
      <point x="553" y="36"/>
      <point x="552" y="38" type="curve"/>
      <point x="549" y="57"/>
      <point x="554" y="82"/>
      <point x="546" y="95" type="curve"/>
      <point x="513" y="102"/>
      <point x="476" y="91"/>
      <point x="441" y="99" type="curve"/>
      <point x="435" y="129"/>
      <point x="438" y="160"/>
      <point x="434" y="191" type="curve"/>
      <point x="436" y="195"/>
      <point x="437" y="200"/>
      <point x="438" y="206" type="curve"/>
      <point x="434" y="279"/>
      <point x="435" y="345"/>
      <point x="438" y="420" type="curve"/>
    </contour>
    <contour>
      <point x="257" y="177" type="line"/>
      <point x="260" y="183"/>
      <point x="267" y="193"/>
      <point x="273" y="199" type="curve" smooth="yes"/>
      <point x="285" y="211"/>
      <point x="292" y="228"/>
      <point x="307" y="235" type="curve"/>
      <point x="308" y="245"/>
      <point x="316" y="250"/>
      <point x="322" y="255" type="curve"/>
      <point x="323" y="269"/>
      <point x="334" y="280"/>
      <point x="346" y="278" type="curve"/>
      <point x="348" y="235"/>
      <point x="353" y="193"/>
      <point x="346" y="154" type="curve"/>
      <point x="349" y="139"/>
      <point x="352" y="114"/>
      <point x="343" y="102" type="curve"/>
      <point x="332" y="95"/>
      <point x="310" y="95"/>
      <point x="294" y="99" type="curve"/>
      <point x="276" y="94"/>
      <point x="257" y="93"/>
      <point x="239" y="99" type="curve"/>
      <point x="223" y="101"/>
      <point x="209" y="94"/>
      <point x="195" y="99" type="curve"/>
      <point x="197" y="117"/>
      <point x="213" y="121"/>
      <point x="218" y="137" type="curve"/>
      <point x="224" y="137"/>
      <point x="224" y="141"/>
      <point x="228" y="142" type="curve"/>
      <point x="232" y="153"/>
      <point x="239" y="159"/>
      <point x="245" y="167" type="curve" smooth="yes"/>
      <point x="248" y="171"/>
      <point x="250" y="172"/>
      <point x="253" y="176" type="curve"/>
    </contour>
  </outline>
</glyph>
<glyph name="six" format="1">
  <advance width="542"/>
  <unicode hex="0036"/>
  <outline>
    <contour>
      <point x="253" y="629" type="line"/>
      <point x="251" y="626"/>
      <point x="252" y="623"/>
      <point x="251" y="621" type="curve" smooth="yes"/>
      <point x="244" y="611"/>
      <point x="232" y="602"/>
      <point x="230" y="588" type="curve"/>
      <point x="208" y="568"/>
      <point x="190" y="542"/>
      <point x="176" y="513" type="curve"/>
      <point x="166" y="507"/>
      <point x="162" y="496"/>
      <point x="153" y="490" type="curve"/>
      <point x="145" y="469"/>
      <point x="127" y="458"/>
      <point x="118" y="438" type="curve"/>
      <point x="107" y="426"/>
      <point x="99" y="411"/>
      <point x="89" y="401" type="curve" smooth="yes"/>
      <point x="86" y="398"/>
      <point x="81" y="394"/>
      <point x="77" y="389" type="curve" smooth="yes"/>
      <point x="74" y="385"/>
      <point x="74" y="377"/>
      <point x="71" y="373" type="curve" smooth="yes"/>
      <point x="68" y="368"/>
      <point x="61" y="366"/>
      <point x="60" y="359" type="curve"/>
      <point x="55" y="345"/>
      <point x="46" y="333"/>
      <point x="40" y="316" type="curve" smooth="yes"/>
      <point x="38" y="307"/>
      <point x="37" y="298"/>
      <point x="36" y="289" type="curve" smooth="yes"/>
      <point x="34" y="280"/>
      <point x="31" y="270"/>
      <point x="33" y="261" type="curve"/>
      <point x="30" y="253"/>
      <point x="27" y="248"/>
      <point x="25" y="239" type="curve"/>
      <point x="28" y="228"/>
      <point x="31" y="217"/>
      <point x="29" y="202" type="curve"/>
      <point x="33" y="187"/>
      <point x="38" y="171"/>
      <point x="39" y="153" type="curve"/>
      <point x="45" y="142"/>
      <point x="53" y="136"/>
      <point x="54" y="121" type="curve"/>
      <point x="63" y="112"/>
      <point x="69" y="103"/>
      <point x="76" y="93" type="curve" smooth="yes"/>
      <point x="83" y="84"/>
      <point x="91" y="77"/>
      <point x="95" y="66" type="curve"/>
      <point x="105" y="61"/>
      <point x="109" y="54"/>
      <point x="118" y="50" type="curve"/>
      <point x="123" y="42"/>
      <point x="129" y="36"/>
      <point x="138" y="32" type="curve" smooth="yes"/>
      <point x="146" y="27"/>
      <point x="156" y="24"/>
      <point x="164" y="20" type="curve" smooth="yes"/>
      <point x="167" y="19"/>
      <point x="170" y="16"/>
      <point x="173" y="15" type="curve" smooth="yes"/>
      <point x="178" y="14"/>
      <point x="184" y="14"/>
      <point x="190" y="12" type="curve" smooth="yes"/>
      <point x="205" y="7"/>
      <point x="220" y="0"/>
      <point x="240" y="2" type="curve"/>
      <point x="247" y="-4"/>
      <point x="262" y="-3"/>
      <point x="273" y="-5" type="curve"/>
      <point x="281" y="-4"/>
      <point x="287" y="0"/>
      <point x="295" y="2" type="curve"/>
      <point x="311" y="0"/>
      <point x="317" y="5"/>
      <point x="332" y="5" type="curve"/>
      <point x="340" y="11"/>
      <point x="352" y="13"/>
      <point x="365" y="14" type="curve"/>
      <point x="381" y="24"/>
      <point x="396" y="36"/>
      <point x="419" y="41" type="curve"/>
      <point x="421" y="52"/>
      <point x="431" y="54"/>
      <point x="435" y="64" type="curve"/>
      <point x="441" y="71"/>
      <point x="447" y="77"/>
      <point x="455" y="84" type="curve"/>
      <point x="458" y="95"/>
      <point x="471" y="104"/>
      <point x="475" y="112" type="curve" smooth="yes"/>
      <point x="478" y="117"/>
      <point x="479" y="122"/>
      <point x="482" y="125" type="curve" smooth="yes"/>
      <point x="487" y="130" type="line"/>
      <point x="488" y="142"/>
      <point x="494" y="147"/>
      <point x="495" y="159" type="curve"/>
      <point x="500" y="166"/>
      <point x="502" y="177"/>
      <point x="507" y="186" type="curve"/>
      <point x="509" y="193"/>
      <point x="509" y="204"/>
      <point x="512" y="209" type="curve"/>
      <point x="508" y="218"/>
      <point x="512" y="229"/>
      <point x="510" y="244" type="curve"/>
      <point x="507" y="254"/>
      <point x="506" y="266"/>
      <point x="501" y="276" type="curve"/>
      <point x="501" y="296"/>
      <point x="498" y="314"/>
      <point x="492" y="328" type="curve"/>
      <point x="488" y="345"/>
      <point x="477" y="355"/>
      <point x="472" y="371" type="curve"/>
      <point x="465" y="378"/>
      <point x="459" y="385"/>
      <point x="454" y="393" type="curve"/>
      <point x="453" y="399"/>
      <point x="446" y="399"/>
      <point x="443" y="403" type="curve"/>
      <point x="443" y="409"/>
      <point x="437" y="409"/>
      <point x="434" y="412" type="curve" smooth="yes"/>
      <point x="422" y="428"/>
      <point x="404" y="437"/>
      <point x="390" y="449" type="curve"/>
      <point x="375" y="454"/>
      <point x="363" y="459"/>
      <point x="348" y="463" type="curve"/>
      <point x="323" y="465"/>
      <point x="304" y="463"/>
      <point x="277" y="463" type="curve" smooth="yes"/>
      <point x="267" y="462"/>
      <point x="254" y="455"/>
      <point x="245" y="460" type="curve"/>
      <point x="246" y="471"/>
      <point x="257" y="471"/>
      <point x="258" y="481" type="curve"/>
      <point x="265" y="485"/>
      <point x="269" y="494"/>
      <point x="277" y="498" type="curve"/>
      <point x="283" y="515"/>
      <point x="298" y="524"/>
      <point x="306" y="538" type="curve"/>
      <point x="319" y="549"/>
      <point x="326" y="565"/>
      <point x="338" y="577" type="curve"/>
      <point x="339" y="587"/>
      <point x="351" y="587"/>
      <point x="352" y="598" type="curve"/>
      <point x="357" y="604"/>
      <point x="363" y="612"/>
      <point x="370" y="617" type="curve"/>
      <point x="372" y="623"/>
      <point x="377" y="628"/>
      <point x="378" y="635" type="curve"/>
      <point x="391" y="646"/>
      <point x="400" y="660"/>
      <point x="413" y="670" type="curve"/>
      <point x="417" y="683"/>
      <point x="425" y="689"/>
      <point x="427" y="704" type="curve"/>
      <point x="425" y="710"/>
      <point x="420" y="713"/>
      <point x="417" y="719" type="curve"/>
      <point x="410" y="721"/>
      <point x="411" y="729"/>
      <point x="407" y="734" type="curve"/>
      <point x="383" y="737"/>
      <point x="375" y="755"/>
      <point x="348" y="756" type="curve"/>
      <point x="333" y="747"/>
      <point x="330" y="727"/>
      <point x="318" y="716" type="curve"/>
      <point x="313" y="709"/>
      <point x="308" y="701"/>
      <point x="304" y="693" type="curve"/>
      <point x="297" y="689"/>
      <point x="295" y="678"/>
      <point x="288" y="673" type="curve"/>
      <point x="279" y="659"/>
      <point x="268" y="646"/>
      <point x="258" y="632" type="curve"/>
    </contour>
    <contour>
      <point x="411" y="282" type="line"/>
      <point x="416" y="276"/>
      <point x="420" y="272"/>
      <point x="419" y="261" type="curve"/>
      <point x="422" y="253"/>
      <point x="419" y="240"/>
      <point x="420" y="229" type="curve"/>
      <point x="417" y="213"/>
      <point x="411" y="197"/>
      <point x="407" y="182" type="curve"/>
      <point x="398" y="170"/>
      <point x="388" y="157"/>
      <point x="379" y="144" type="curve" smooth="yes"/>
      <point x="367" y="130"/>
      <point x="351" y="120"/>
      <point x="335" y="110" type="curve"/>
      <point x="321" y="108"/>
      <point x="310" y="104"/>
      <point x="298" y="99" type="curve"/>
      <point x="275" y="98"/>
      <point x="253" y="96"/>
      <point x="231" y="101" type="curve" smooth="yes"/>
      <point x="218" y="105"/>
      <point x="206" y="110"/>
      <point x="193" y="116" type="curve"/>
      <point x="187" y="121"/>
      <point x="180" y="127"/>
      <point x="171" y="130" type="curve"/>
      <point x="164" y="139"/>
      <point x="156" y="146"/>
      <point x="147" y="156" type="curve" smooth="yes"/>
      <point x="144" y="159"/>
      <point x="141" y="164"/>
      <point x="138" y="169" type="curve" smooth="yes"/>
      <point x="134" y="175"/>
      <point x="128" y="179"/>
      <point x="126" y="188" type="curve" smooth="yes"/>
      <point x="124" y="195"/>
      <point x="124" y="205"/>
      <point x="123" y="215" type="curve" smooth="yes"/>
      <point x="122" y="220"/>
      <point x="120" y="225"/>
      <point x="119" y="229" type="curve" smooth="yes"/>
      <point x="117" y="246"/>
      <point x="120" y="262"/>
      <point x="124" y="279" type="curve"/>
      <point x="135" y="300"/>
      <point x="144" y="320"/>
      <point x="158" y="337" type="curve" smooth="yes"/>
      <point x="164" y="343"/>
      <point x="173" y="349"/>
      <point x="178" y="356" type="curve"/>
      <point x="188" y="359"/>
      <point x="194" y="366"/>
      <point x="201" y="371" type="curve"/>
      <point x="211" y="374"/>
      <point x="220" y="377"/>
      <point x="228" y="383" type="curve"/>
      <point x="241" y="381"/>
      <point x="250" y="382"/>
      <point x="260" y="386" type="curve"/>
      <point x="271" y="383"/>
      <point x="281" y="387"/>
      <point x="295" y="386" type="curve"/>
      <point x="295" y="384"/>
      <point x="299" y="385"/>
      <point x="301" y="385" type="curve"/>
      <point x="318" y="379"/>
      <point x="326" y="367"/>
      <point x="347" y="366" type="curve"/>
      <point x="363" y="354"/>
      <point x="376" y="339"/>
      <point x="388" y="322" type="curve"/>
      <point x="394" y="316"/>
      <point x="400" y="307"/>
      <point x="405" y="298" type="curve"/>
    </contour>
  </outline>
</glyph>
<glyph name="seven" format="1">
  <advance width="647"/>
  <unicode hex="0037"/>
  <outline>
    <contour>
      <point x="303" y="241" type="line" smooth="yes"/>
      <point x="301" y="237"/>
      <point x="298" y="236"/>
      <point x="296" y="234" type="curve"/>
      <point x="286" y="219" type="line" smooth="yes"/>
      <point x="283" y="215"/>
      <point x="278" y="212"/>
      <point x="276" y="209" type="curve" smooth="yes"/>
      <point x="275" y="208"/>
      <point x="276" y="206"/>
      <point x="275" y="204" type="curve"/>
      <point x="270" y="199"/>
      <point x="265" y="197"/>
      <point x="261" y="192" type="curve"/>
      <point x="254" y="179" type="line" smooth="yes"/>
      <point x="251" y="174"/>
      <point x="247" y="173"/>
      <point x="244" y="169" type="curve" smooth="yes"/>
      <point x="237" y="161"/>
      <point x="234" y="152"/>
      <point x="226" y="147" type="curve"/>
      <point x="220" y="129"/>
      <point x="207" y="120"/>
      <point x="197" y="105" type="curve" smooth="yes"/>
      <point x="187" y="93"/>
      <point x="178" y="77"/>
      <point x="165" y="67" type="curve"/>
      <point x="157" y="53"/>
      <point x="147" y="38"/>
      <point x="134" y="29" type="curve"/>
      <point x="128" y="6"/>
      <point x="109" y="-2"/>
      <point x="101" y="-21" type="curve"/>
      <point x="92" y="-26"/>
      <point x="88" y="-37"/>
      <point x="83" y="-45" type="curve"/>
      <point x="74" y="-51"/>
      <point x="70" y="-60"/>
      <point x="66" y="-70" type="curve"/>
      <point x="58" y="-76"/>
      <point x="52" y="-83"/>
      <point x="46" y="-90" type="curve"/>
      <point x="41" y="-101"/>
      <point x="30" y="-103"/>
      <point x="31" y="-117" type="curve" smooth="yes"/>
      <point x="33" y="-135"/>
      <point x="48" y="-139"/>
      <point x="54" y="-152" type="curve"/>
      <point x="63" y="-153"/>
      <point x="67" y="-159"/>
      <point x="75" y="-160" type="curve"/>
      <point x="80" y="-166"/>
      <point x="86" y="-172"/>
      <point x="98" y="-171" type="curve" smooth="yes"/>
      <point x="113" y="-170"/>
      <point x="119" y="-156"/>
      <point x="130" y="-151" type="curve"/>
      <point x="143" y="-126"/>
      <point x="156" y="-101"/>
      <point x="177" y="-85" type="curve"/>
      <point x="179" y="-76"/>
      <point x="187" y="-74"/>
      <point x="188" y="-65" type="curve"/>
      <point x="193" y="-61"/>
      <point x="196" y="-56"/>
      <point x="202" y="-53" type="curve"/>
      <point x="205" y="-46"/>
      <point x="206" y="-38"/>
      <point x="214" y="-37" type="curve"/>
      <point x="222" y="-25"/>
      <point x="228" y="-14"/>
      <point x="240" y="-6" type="curve"/>
      <point x="241" y="3"/>
      <point x="248" y="7"/>
      <point x="251" y="15" type="curve" smooth="yes"/>
      <point x="254" y="23"/>
      <point x="263" y="27"/>
      <point x="264" y="37" type="curve"/>
      <point x="279" y="46"/>
      <point x="283" y="66"/>
      <point x="298" y="73" type="curve"/>
      <point x="305" y="89"/>
      <point x="316" y="102"/>
      <point x="326" y="113" type="curve"/>
      <point x="334" y="129"/>
      <point x="348" y="139"/>
      <point x="353" y="157" type="curve"/>
      <point x="368" y="167"/>
      <point x="377" y="182"/>
      <point x="386" y="199" type="curve"/>
      <point x="391" y="201"/>
      <point x="391" y="208"/>
      <point x="394" y="211" type="curve"/>
      <point x="399" y="214"/>
      <point x="404" y="216"/>
      <point x="405" y="223" type="curve"/>
      <point x="409" y="226"/>
      <point x="409" y="233"/>
      <point x="411" y="239" type="curve"/>
      <point x="437" y="255"/>
      <point x="448" y="285"/>
      <point x="470" y="306" type="curve"/>
      <point x="479" y="324"/>
      <point x="490" y="341"/>
      <point x="505" y="354" type="curve"/>
      <point x="514" y="374"/>
      <point x="529" y="387"/>
      <point x="542" y="403" type="curve"/>
      <point x="568" y="449" type="line"/>
      <point x="585" y="465"/>
      <point x="604" y="480"/>
      <point x="608" y="508" type="curve" smooth="yes"/>
      <point x="608" y="511"/>
      <point x="604" y="511"/>
      <point x="603" y="515" type="curve"/>
      <point x="561" y="515"/>
      <point x="517" y="516"/>
      <point x="473" y="516" type="curve" smooth="yes"/>
      <point x="438" y="516"/>
      <point x="402" y="515"/>
      <point x="367" y="513" type="curve" smooth="yes"/>
      <point x="360" y="513"/>
      <point x="358" y="517"/>
      <point x="351" y="516" type="curve" smooth="yes"/>
      <point x="317" y="514"/>
      <point x="286" y="514"/>
      <point x="249" y="516" type="curve"/>
      <point x="239" y="513"/>
      <point x="227" y="513"/>
      <point x="216" y="513" type="curve" smooth="yes"/>
      <point x="181" y="514"/>
      <point x="130" y="513"/>
      <point x="95" y="513" type="curve" smooth="yes"/>
      <point x="76" y="513"/>
      <point x="58" y="518"/>
      <point x="40" y="515" type="curve"/>
      <point x="33" y="508"/>
      <point x="30" y="496"/>
      <point x="28" y="484" type="curve"/>
      <point x="32" y="469"/>
      <point x="24" y="443"/>
      <point x="32" y="426" type="curve"/>
      <point x="52" y="417"/>
      <point x="75" y="419"/>
      <point x="98" y="420" type="curve" smooth="yes"/>
      <point x="129" y="421"/>
      <point x="162" y="421"/>
      <point x="191" y="423" type="curve"/>
      <point x="197" y="420"/>
      <point x="205" y="422"/>
      <point x="208" y="421" type="curve"/>
      <point x="231" y="420"/>
      <point x="255" y="420"/>
      <point x="276" y="424" type="curve"/>
      <point x="286" y="423"/>
      <point x="299" y="423"/>
      <point x="312" y="423" type="curve"/>
      <point x="329" y="427"/>
      <point x="354" y="428"/>
      <point x="373" y="426" type="curve"/>
      <point x="387" y="430"/>
      <point x="408" y="428"/>
      <point x="423" y="431" type="curve"/>
      <point x="428" y="430"/>
      <point x="438" y="434"/>
      <point x="438" y="428" type="curve" smooth="yes"/>
      <point x="437" y="418"/>
      <point x="431" y="411"/>
      <point x="426" y="405" type="curve"/>
      <point x="423" y="403"/>
      <point x="420" y="399"/>
      <point x="420" y="393" type="curve"/>
      <point x="417" y="390"/>
      <point x="412" y="388"/>
      <point x="411" y="383" type="curve"/>
      <point x="396" y="373"/>
      <point x="391" y="354"/>
      <point x="376" y="345" type="curve"/>
      <point x="375" y="335"/>
      <point x="368" y="331"/>
      <point x="365" y="322" type="curve"/>
      <point x="359" y="316"/>
      <point x="355" y="308"/>
      <point x="348" y="304" type="curve"/>
      <point x="346" y="295"/>
      <point x="337" y="292"/>
      <point x="333" y="284" type="curve" smooth="yes"/>
      <point x="330" y="276"/>
      <point x="323" y="270"/>
      <point x="318" y="264" type="curve"/>
    </contour>
  </outline>
</glyph>
<glyph name="nine" format="1">
  <advance width="520"/>
  <unicode hex="0039"/>
  <outline>
    <contour>
      <point x="356" y="22" type="line"/>
      <point x="361" y="34"/>
      <point x="369" y="45"/>
      <point x="376" y="55" type="curve"/>
      <point x="379" y="57"/>
      <point x="385" y="58"/>
      <point x="385" y="64" type="curve"/>
      <point x="390" y="68"/>
      <point x="387" y="78"/>
      <point x="394" y="81" type="curve"/>
      <point x="398" y="87"/>
      <point x="401" y="93"/>
      <point x="403" y="101" type="curve"/>
      <point x="412" y="108"/>
      <point x="418" y="119"/>
      <point x="425" y="128" type="curve" smooth="yes"/>
      <point x="434" y="138"/>
      <point x="438" y="151"/>
      <point x="446" y="159" type="curve"/>
      <point x="458" y="191"/>
      <point x="481" y="220"/>
      <point x="483" y="261" type="curve" smooth="yes"/>
      <point x="484" y="280"/>
      <point x="480" y="298"/>
      <point x="478" y="314" type="curve" smooth="yes"/>
      <point x="478" y="321"/>
      <point x="481" y="324"/>
      <point x="481" y="331" type="curve"/>
      <point x="478" y="345"/>
      <point x="469" y="351"/>
      <point x="464" y="365" type="curve"/>
      <point x="464" y="373"/>
      <point x="465" y="379"/>
      <point x="466" y="386" type="curve"/>
      <point x="460" y="393"/>
      <point x="458" y="404"/>
      <point x="455" y="414" type="curve"/>
      <point x="451" y="420"/>
      <point x="441" y="420"/>
      <point x="438" y="426" type="curve"/>
      <point x="438" y="440" type="line"/>
      <point x="422" y="454"/>
      <point x="405" y="467"/>
      <point x="389" y="483" type="curve"/>
      <point x="379" y="483"/>
      <point x="375" y="489"/>
      <point x="370" y="493" type="curve"/>
      <point x="345" y="497"/>
      <point x="326" y="510"/>
      <point x="301" y="515" type="curve"/>
      <point x="295" y="515"/>
      <point x="293" y="512"/>
      <point x="286" y="513" type="curve"/>
      <point x="273" y="520"/>
      <point x="252" y="517"/>
      <point x="234" y="518" type="curve"/>
      <point x="227" y="515"/>
      <point x="220" y="512"/>
      <point x="209" y="513" type="curve"/>
      <point x="199" y="507"/>
      <point x="188" y="504"/>
      <point x="174" y="501" type="curve"/>
      <point x="163" y="492"/>
      <point x="149" y="488"/>
      <point x="139" y="481" type="curve" smooth="yes"/>
      <point x="135" y="479"/>
      <point x="133" y="476"/>
      <point x="129" y="473" type="curve" smooth="yes"/>
      <point x="114" y="462"/>
      <point x="101" y="453"/>
      <point x="89" y="440" type="curve"/>
      <point x="84" y="424"/>
      <point x="74" y="413"/>
      <point x="64" y="403" type="curve"/>
      <point x="63" y="395"/>
      <point x="59" y="390"/>
      <point x="55" y="386" type="curve"/>
      <point x="49" y="361"/>
      <point x="43" y="337"/>
      <point x="38" y="311" type="curve"/>
      <point x="38" y="263" type="line"/>
      <point x="45" y="235"/>
      <point x="53" y="211"/>
      <point x="60" y="186" type="curve"/>
      <point x="66" y="177"/>
      <point x="73" y="171"/>
      <point x="75" y="159" type="curve"/>
      <point x="90" y="147"/>
      <point x="101" y="131"/>
      <point x="113" y="119" type="curve"/>
      <point x="131" y="106"/>
      <point x="153" y="95"/>
      <point x="174" y="85" type="curve"/>
      <point x="191" y="86"/>
      <point x="201" y="82"/>
      <point x="214" y="78" type="curve"/>
      <point x="264" y="78" type="line"/>
      <point x="272" y="77"/>
      <point x="277" y="87"/>
      <point x="284" y="82" type="curve"/>
      <point x="280" y="67"/>
      <point x="272" y="55"/>
      <point x="261" y="47" type="curve"/>
      <point x="258" y="37"/>
      <point x="250" y="31"/>
      <point x="247" y="20" type="curve"/>
      <point x="240" y="12"/>
      <point x="233" y="2"/>
      <point x="229" y="-10" type="curve"/>
      <point x="223" y="-15"/>
      <point x="218" y="-21"/>
      <point x="214" y="-29" type="curve"/>
      <point x="210" y="-30"/>
      <point x="210" y="-35"/>
      <point x="208" y="-38" type="curve"/>
      <point x="207" y="-42"/>
      <point x="200" y="-42"/>
      <point x="200" y="-49" type="curve"/>
      <point x="197" y="-56"/>
      <point x="192" y="-61"/>
      <point x="189" y="-70" type="curve"/>
      <point x="183" y="-75"/>
      <point x="179" y="-82"/>
      <point x="177" y="-92" type="curve"/>
      <point x="172" y="-95"/>
      <point x="165" y="-96"/>
      <point x="164" y="-104" type="curve"/>
      <point x="161" y="-106"/>
      <point x="162" y="-112"/>
      <point x="160" y="-117" type="curve"/>
      <point x="156" y="-122"/>
      <point x="151" y="-128"/>
      <point x="151" y="-139" type="curve"/>
      <point x="156" y="-149"/>
      <point x="165" y="-156"/>
      <point x="179" y="-159" type="curve"/>
      <point x="186" y="-170"/>
      <point x="197" y="-175"/>
      <point x="212" y="-177" type="curve"/>
      <point x="231" y="-167" type="line"/>
      <point x="242" y="-156"/>
      <point x="246" y="-139"/>
      <point x="259" y="-130" type="curve"/>
      <point x="260" y="-124"/>
      <point x="263" y="-120"/>
      <point x="264" y="-113" type="curve"/>
      <point x="271" y="-108"/>
      <point x="276" y="-99"/>
      <point x="283" y="-93" type="curve"/>
      <point x="287" y="-73"/>
      <point x="298" y="-59"/>
      <point x="311" y="-49" type="curve"/>
      <point x="316" y="-34"/>
      <point x="324" y="-23"/>
      <point x="331" y="-12" type="curve" smooth="yes"/>
      <point x="335" y="-6"/>
      <point x="339" y="-1"/>
      <point x="341" y="6" type="curve"/>
    </contour>
    <contour>
      <point x="144" y="226" type="line"/>
      <point x="140" y="239"/>
      <point x="135" y="250"/>
      <point x="129" y="263" type="curve"/>
      <point x="129" y="285"/>
      <point x="121" y="298"/>
      <point x="130" y="314" type="curve" smooth="yes"/>
      <point x="133" y="318"/>
      <point x="138" y="320"/>
      <point x="139" y="324" type="curve" smooth="yes"/>
      <point x="140" y="330"/>
      <point x="137" y="333"/>
      <point x="136" y="339" type="curve"/>
      <point x="143" y="351"/>
      <point x="153" y="360"/>
      <point x="157" y="374" type="curve"/>
      <point x="166" y="383"/>
      <point x="176" y="391"/>
      <point x="184" y="401" type="curve"/>
      <point x="195" y="405"/>
      <point x="204" y="412"/>
      <point x="212" y="418" type="curve"/>
      <point x="232" y="424"/>
      <point x="257" y="425"/>
      <point x="276" y="431" type="curve"/>
      <point x="295" y="427"/>
      <point x="305" y="416"/>
      <point x="324" y="412" type="curve"/>
      <point x="334" y="406"/>
      <point x="342" y="399"/>
      <point x="353" y="393" type="curve"/>
      <point x="357" y="385"/>
      <point x="364" y="378"/>
      <point x="371" y="373" type="curve"/>
      <point x="372" y="369"/>
      <point x="374" y="367"/>
      <point x="373" y="361" type="curve"/>
      <point x="385" y="354"/>
      <point x="389" y="338"/>
      <point x="398" y="328" type="curve"/>
      <point x="396" y="320"/>
      <point x="401" y="317"/>
      <point x="400" y="310" type="curve"/>
      <point x="402" y="308"/>
      <point x="401" y="307"/>
      <point x="400" y="307" type="curve"/>
      <point x="401" y="295"/>
      <point x="399" y="287"/>
      <point x="400" y="272" type="curve"/>
      <point x="399" y="265"/>
      <point x="393" y="261"/>
      <point x="394" y="251" type="curve"/>
      <point x="390" y="244"/>
      <point x="386" y="236"/>
      <point x="385" y="226" type="curve"/>
      <point x="377" y="217"/>
      <point x="370" y="210"/>
      <point x="365" y="200" type="curve"/>
      <point x="352" y="194"/>
      <point x="345" y="182"/>
      <point x="331" y="176" type="curve" smooth="yes"/>
      <point x="318" y="169"/>
      <point x="303" y="165"/>
      <point x="287" y="160" type="curve"/>
      <point x="273" y="161"/>
      <point x="267" y="162"/>
      <point x="254" y="160" type="curve"/>
      <point x="242" y="164"/>
      <point x="227" y="165"/>
      <point x="212" y="167" type="curve"/>
      <point x="201" y="171"/>
      <point x="196" y="178"/>
      <point x="184" y="180" type="curve"/>
      <point x="178" y="189"/>
      <point x="171" y="196"/>
      <point x="164" y="204" type="curve" smooth="yes"/>
    </contour>
  </outline>
</glyph>
<glyph name="colon" format="1">
  <advance width="208"/>
  <unicode hex="003A"/>
  <outline>
    <contour>
      <point x="162" y="321" type="line"/>
      <point x="151" y="345" type="line"/>
      <point x="142" y="349"/>
      <point x="141" y="359"/>
      <point x="134" y="365" type="curve"/>
      <point x="130" y="367"/>
      <point x="126" y="366"/>
      <point x="124" y="370" type="curve"/>
      <point x="90" y="370" type="line"/>
      <point x="67" y="357"/>
      <point x="53" y="333"/>
      <point x="50" y="300" type="curve"/>
      <point x="53" y="290"/>
      <point x="57" y="284"/>
      <point x="61" y="280" type="curve" smooth="yes"/>
      <point x="69" y="272"/>
      <point x="78" y="263"/>
      <point x="85" y="260" type="curve" smooth="yes"/>
      <point x="93" y="258" type="line" smooth="yes"/>
      <point x="96" y="257"/>
      <point x="96" y="252"/>
      <point x="101" y="254" type="curve"/>
      <point x="118" y="257"/>
      <point x="131" y="262"/>
      <point x="145" y="268" type="curve"/>
      <point x="156" y="280"/>
      <point x="160" y="298"/>
      <point x="163" y="316" type="curve" smooth="yes"/>
      <point x="163" y="317"/>
      <point x="163" y="318"/>
      <point x="162" y="318" type="curve"/>
    </contour>
    <contour>
      <point x="161" y="95"/>
      <point x="152" y="109"/>
      <point x="142" y="123" type="curve"/>
      <point x="130" y="128"/>
      <point x="119" y="136"/>
      <point x="107" y="136" type="curve" smooth="yes"/>
      <point x="89" y="136"/>
      <point x="83" y="127"/>
      <point x="73" y="116" type="curve" smooth="yes"/>
      <point x="68" y="109"/>
      <point x="61" y="102"/>
      <point x="58" y="95" type="curve" smooth="yes"/>
      <point x="53" y="85"/>
      <point x="50" y="57"/>
      <point x="55" y="48" type="curve" smooth="yes"/>
      <point x="59" y="41"/>
      <point x="67" y="39"/>
      <point x="72" y="34" type="curve"/>
      <point x="76" y="28"/>
      <point x="84" y="25"/>
      <point x="92" y="22" type="curve"/>
      <point x="116" y="22"/>
      <point x="134" y="28"/>
      <point x="151" y="36" type="curve"/>
      <point x="156" y="49"/>
      <point x="164" y="59"/>
      <point x="167" y="75" type="curve"/>
      <point x="166" y="76"/>
      <point x="166" y="77"/>
      <point x="165" y="77" type="curve"/>
    </contour>
  </outline>
</glyph>
<glyph name="B" format="1">
  <advance width="500"/>
  <unicode hex="0042"/>
  <outline>
    <contour>
      <point x="396" y="424" type="line"/>
      <point x="396" y="435"/>
      <point x="403" y="439"/>
      <point x="405" y="447" type="curve" smooth="yes"/>
      <point x="410" y="479"/>
      <point x="410" y="515"/>
      <point x="406" y="548" type="curve"/>
      <point x="398" y="564"/>
      <point x="390" y="579"/>
      <point x="385" y="598" type="curve"/>
      <point x="372" y="615"/>
      <point x="357" y="631"/>
      <point x="343" y="647" type="curve"/>
      <point x="322" y="657"/>
      <point x="303" y="670"/>
      <point x="283" y="682" type="curve"/>
      <point x="227" y="694"/>
      <point x="162" y="689"/>
      <point x="103" y="695" type="curve"/>
      <point x="91" y="690"/>
      <point x="74" y="691"/>
      <point x="67" y="683" type="curve"/>
      <point x="63" y="674"/>
      <point x="65" y="663"/>
      <point x="65" y="652" type="curve" smooth="yes"/>
      <point x="67" y="620"/>
      <point x="65" y="588"/>
      <point x="69" y="561" type="curve"/>
      <point x="63" y="544"/>
      <point x="69" y="525"/>
      <point x="69" y="506" type="curve" smooth="yes"/>
      <point x="69" y="434"/>
      <point x="69" y="356"/>
      <point x="71" y="288" type="curve" smooth="yes"/>
      <point x="71" y="263"/>
      <point x="74" y="233"/>
      <point x="69" y="210" type="curve"/>
      <point x="72" y="138"/>
      <point x="74" y="77"/>
      <point x="69" y="8" type="curve" smooth="yes"/>
      <point x="68" y="0"/>
      <point x="79" y="-5"/>
      <point x="87" y="-7" type="curve" smooth="yes"/>
      <point x="97" y="-10"/>
      <point x="109" y="-5"/>
      <point x="118" y="-5" type="curve" smooth="yes"/>
      <point x="130" y="-5"/>
      <point x="143" y="-8"/>
      <point x="156" y="-8" type="curve" smooth="yes"/>
      <point x="168" y="-8"/>
      <point x="182" y="-5"/>
      <point x="194" y="-5" type="curve" smooth="yes"/>
      <point x="202" y="-5"/>
      <point x="211" y="-6"/>
      <point x="219" y="-7" type="curve" smooth="yes"/>
      <point x="223" y="-7"/>
      <point x="227" y="-5"/>
      <point x="231" y="-5" type="curve" smooth="yes"/>
      <point x="235" y="-5"/>
      <point x="239" y="-7"/>
      <point x="245" y="-7" type="curve" smooth="yes"/>
      <point x="270" y="-6"/>
      <point x="297" y="0"/>
      <point x="324" y="-2" type="curve"/>
      <point x="334" y="2"/>
      <point x="341" y="6"/>
      <point x="353" y="8" type="curve"/>
      <point x="361" y="13"/>
      <point x="371" y="17"/>
      <point x="381" y="20" type="curve"/>
      <point x="397" y="35"/>
      <point x="415" y="48"/>
      <point x="433" y="61" type="curve"/>
      <point x="436" y="70"/>
      <point x="443" y="78"/>
      <point x="448" y="88" type="curve" smooth="yes"/>
      <point x="453" y="98"/>
      <point x="460" y="107"/>
      <point x="463" y="116" type="curve"/>
      <point x="465" y="119"/>
      <point x="466" y="125"/>
      <point x="468" y="130" type="curve" smooth="yes"/>
      <point x="472" y="145"/>
      <point x="480" y="165"/>
      <point x="480" y="182" type="curve" smooth="yes"/>
      <point x="480" y="184"/>
      <point x="479" y="186"/>
      <point x="478" y="189" type="curve"/>
      <point x="476" y="205"/>
      <point x="477" y="220"/>
      <point x="475" y="237" type="curve" smooth="yes"/>
      <point x="474" y="249"/>
      <point x="471" y="264"/>
      <point x="466" y="273" type="curve" smooth="yes"/>
      <point x="454" y="293"/>
      <point x="440" y="308"/>
      <point x="428" y="328" type="curve"/>
      <point x="423" y="331"/>
      <point x="410" y="338"/>
      <point x="408" y="340" type="curve"/>
      <point x="404" y="349"/>
      <point x="392" y="349"/>
      <point x="388" y="356" type="curve"/>
      <point x="388" y="356"/>
      <point x="375" y="361"/>
      <point x="368" y="363" type="curve"/>
      <point x="366" y="363"/>
      <point x="352" y="366"/>
      <point x="351" y="374" type="curve"/>
      <point x="356" y="386"/>
      <point x="369" y="390"/>
      <point x="378" y="398" type="curve"/>
    </contour>
    <contour>
      <point x="323" y="517" type="line"/>
      <point x="323" y="510"/>
      <point x="321" y="499"/>
      <point x="324" y="494" type="curve"/>
      <point x="323" y="490"/>
      <point x="323" y="477"/>
      <point x="321" y="471" type="curve" smooth="yes"/>
      <point x="320" y="469"/>
      <point x="317" y="465"/>
      <point x="316" y="462" type="curve" smooth="yes"/>
      <point x="309" y="444" type="line" smooth="yes"/>
      <point x="307" y="439"/>
      <point x="305" y="437"/>
      <point x="303" y="432" type="curve"/>
      <point x="295" y="422"/>
      <point x="282" y="413"/>
      <point x="272" y="404" type="curve"/>
      <point x="263" y="403"/>
      <point x="256" y="396"/>
      <point x="248" y="392" type="curve"/>
      <point x="220" y="387"/>
      <point x="189" y="387"/>
      <point x="161" y="389" type="curve"/>
      <point x="149" y="402"/>
      <point x="163" y="430"/>
      <point x="153" y="446" type="curve"/>
      <point x="156" y="499"/>
      <point x="153" y="554"/>
      <point x="156" y="606" type="curve"/>
      <point x="166" y="619"/>
      <point x="187" y="613"/>
      <point x="207" y="613" type="curve"/>
      <point x="221" y="607"/>
      <point x="239" y="607"/>
      <point x="254" y="603" type="curve"/>
      <point x="276" y="593"/>
      <point x="293" y="577"/>
      <point x="307" y="558" type="curve"/>
    </contour>
    <contour>
      <point x="156" y="224" type="line" smooth="yes"/>
      <point x="157" y="252"/>
      <point x="153" y="282"/>
      <point x="156" y="311" type="curve"/>
      <point x="167" y="318"/>
      <point x="182" y="314"/>
      <point x="197" y="314" type="curve" smooth="yes"/>
      <point x="224" y="315"/>
      <point x="253" y="317"/>
      <point x="280" y="313" type="curve" smooth="yes"/>
      <point x="303" y="308"/>
      <point x="322" y="299"/>
      <point x="338" y="290" type="curve"/>
      <point x="345" y="288"/>
      <point x="348" y="282"/>
      <point x="353" y="277" type="curve" smooth="yes"/>
      <point x="357" y="272"/>
      <point x="363" y="269"/>
      <point x="366" y="264" type="curve"/>
      <point x="375" y="255"/>
      <point x="380" y="243"/>
      <point x="388" y="232" type="curve"/>
      <point x="388" y="226"/>
      <point x="390" y="222"/>
      <point x="391" y="217" type="curve" smooth="yes"/>
      <point x="392" y="200"/>
      <point x="389" y="189"/>
      <point x="390" y="174" type="curve"/>
      <point x="387" y="164"/>
      <point x="381" y="156"/>
      <point x="379" y="145" type="curve"/>
      <point x="346" y="105" type="line"/>
      <point x="328" y="98"/>
      <point x="315" y="85"/>
      <point x="295" y="78" type="curve" smooth="yes"/>
      <point x="282" y="74"/>
      <point x="266" y="78"/>
      <point x="251" y="78" type="curve" smooth="yes"/>
      <point x="240" y="78"/>
      <point x="231" y="74"/>
      <point x="220" y="73" type="curve" smooth="yes"/>
      <point x="215" y="73"/>
      <point x="210" y="75"/>
      <point x="204" y="75" type="curve" smooth="yes"/>
      <point x="191" y="75"/>
      <point x="171" y="71"/>
      <point x="158" y="77" type="curve"/>
      <point x="153" y="88"/>
      <point x="157" y="103"/>
      <point x="156" y="117" type="curve" smooth="yes"/>
      <point x="154" y="130"/>
      <point x="156" y="145"/>
      <point x="158" y="157" type="curve"/>
      <point x="158" y="164"/>
      <point x="154" y="167"/>
      <point x="153" y="174" type="curve"/>
      <point x="157" y="181"/>
      <point x="156" y="190"/>
      <point x="156" y="198" type="curve" smooth="yes"/>
    </contour>
  </outline>
</glyph>
<glyph name="D" format="1">
  <advance width="658"/>
  <unicode hex="0044"/>
  <outline>
    <contour>
      <point x="377" y="676" type="line"/>
      <point x="358" y="682"/>
      <point x="340" y="688"/>
      <point x="313" y="687" type="curve"/>
      <point x="292" y="692"/>
      <point x="267" y="696"/>
      <point x="240" y="693" type="curve"/>
      <point x="234" y="694"/>
      <point x="228" y="696"/>
      <point x="222" y="696" type="curve" smooth="yes"/>
      <point x="212" y="697"/>
      <point x="201" y="696"/>
      <point x="190" y="696" type="curve" smooth="yes"/>
      <point x="178" y="696"/>
      <point x="165" y="694"/>
      <point x="156" y="695" type="curve" smooth="yes"/>
      <point x="147" y="695"/>
      <point x="138" y="699"/>
      <point x="130" y="699" type="curve" smooth="yes"/>
      <point x="113" y="699"/>
      <point x="95" y="694"/>
      <point x="78" y="693" type="curve"/>
      <point x="72" y="688"/>
      <point x="72" y="677"/>
      <point x="66" y="671" type="curve"/>
      <point x="66" y="615"/>
      <point x="63" y="562"/>
      <point x="68" y="511" type="curve"/>
      <point x="66" y="507"/>
      <point x="65" y="500"/>
      <point x="65" y="494" type="curve"/>
      <point x="68" y="471"/>
      <point x="69" y="440"/>
      <point x="65" y="416" type="curve"/>
      <point x="68" y="401"/>
      <point x="65" y="378"/>
      <point x="66" y="360" type="curve" smooth="yes"/>
      <point x="67" y="353"/>
      <point x="69" y="349"/>
      <point x="69" y="342" type="curve"/>
      <point x="71" y="335"/>
      <point x="66" y="331"/>
      <point x="66" y="324" type="curve" smooth="yes"/>
      <point x="69" y="283"/>
      <point x="66" y="237"/>
      <point x="66" y="198" type="curve"/>
      <point x="74" y="169"/>
      <point x="68" y="138"/>
      <point x="68" y="105" type="curve" smooth="yes"/>
      <point x="68" y="78"/>
      <point x="74" y="51"/>
      <point x="72" y="23" type="curve"/>
      <point x="77" y="13"/>
      <point x="84" y="5"/>
      <point x="95" y="0" type="curve"/>
      <point x="116" y="0"/>
      <point x="136" y="1"/>
      <point x="153" y="1" type="curve" smooth="yes"/>
      <point x="182" y="2"/>
      <point x="207" y="5"/>
      <point x="237" y="1" type="curve"/>
      <point x="244" y="1"/>
      <point x="248" y="4"/>
      <point x="255" y="4" type="curve" smooth="yes"/>
      <point x="288" y="6"/>
      <point x="315" y="7"/>
      <point x="342" y="13" type="curve" smooth="yes"/>
      <point x="368" y="18"/>
      <point x="390" y="33"/>
      <point x="416" y="36" type="curve"/>
      <point x="425" y="43"/>
      <point x="433" y="51"/>
      <point x="446" y="53" type="curve"/>
      <point x="455" y="60"/>
      <point x="464" y="67"/>
      <point x="475" y="72" type="curve"/>
      <point x="486" y="82"/>
      <point x="497" y="91"/>
      <point x="509" y="100" type="curve"/>
      <point x="513" y="107"/>
      <point x="519" y="110"/>
      <point x="522" y="117" type="curve"/>
      <point x="527" y="123"/>
      <point x="536" y="124"/>
      <point x="539" y="131" type="curve"/>
      <point x="545" y="139"/>
      <point x="550" y="147"/>
      <point x="553" y="157" type="curve"/>
      <point x="567" y="172"/>
      <point x="578" y="190"/>
      <point x="585" y="212" type="curve"/>
      <point x="590" y="218"/>
      <point x="583" y="226"/>
      <point x="583" y="232" type="curve"/>
      <point x="590" y="233"/>
      <point x="597" y="234"/>
      <point x="597" y="242" type="curve"/>
      <point x="604" y="260"/>
      <point x="607" y="279"/>
      <point x="613" y="296" type="curve"/>
      <point x="611" y="310"/>
      <point x="614" y="328"/>
      <point x="613" y="339" type="curve" smooth="yes"/>
      <point x="611" y="363"/>
      <point x="612" y="388"/>
      <point x="606" y="409" type="curve"/>
      <point x="608" y="413"/>
      <point x="608" y="421"/>
      <point x="608" y="427" type="curve"/>
      <point x="605" y="438"/>
      <point x="599" y="446"/>
      <point x="597" y="458" type="curve"/>
      <point x="594" y="464"/>
      <point x="586" y="466"/>
      <point x="583" y="474" type="curve"/>
      <point x="584" y="480"/>
      <point x="586" y="485"/>
      <point x="583" y="491" type="curve" smooth="yes"/>
      <point x="572" y="514"/>
      <point x="558" y="533"/>
      <point x="548" y="557" type="curve"/>
      <point x="539" y="565"/>
      <point x="528" y="572"/>
      <point x="519" y="581" type="curve"/>
      <point x="518" y="588"/>
      <point x="512" y="591"/>
      <point x="506" y="595" type="curve"/>
      <point x="502" y="600"/>
      <point x="498" y="604"/>
      <point x="495" y="610" type="curve"/>
      <point x="477" y="617"/>
      <point x="466" y="631"/>
      <point x="452" y="641" type="curve"/>
      <point x="432" y="647"/>
      <point x="419" y="659"/>
      <point x="399" y="664" type="curve"/>
    </contour>
    <contour>
      <point x="515" y="281" type="line" smooth="yes"/>
      <point x="514" y="279"/>
      <point x="515" y="276"/>
      <point x="515" y="273" type="curve"/>
      <point x="512" y="266"/>
      <point x="503" y="261"/>
      <point x="503" y="252" type="curve"/>
      <point x="500" y="244"/>
      <point x="493" y="240"/>
      <point x="492" y="230" type="curve"/>
      <point x="487" y="225"/>
      <point x="484" y="218"/>
      <point x="481" y="210" type="curve"/>
      <point x="474" y="207"/>
      <point x="471" y="199"/>
      <point x="467" y="192" type="curve"/>
      <point x="452" y="176"/>
      <point x="434" y="162"/>
      <point x="419" y="146" type="curve"/>
      <point x="407" y="143"/>
      <point x="399" y="135"/>
      <point x="389" y="128" type="curve" smooth="yes"/>
      <point x="359" y="111" type="line"/>
      <point x="338" y="106"/>
      <point x="316" y="101"/>
      <point x="298" y="93" type="curve"/>
      <point x="287" y="94"/>
      <point x="279" y="91"/>
      <point x="272" y="88" type="curve"/>
      <point x="252" y="92"/>
      <point x="228" y="93"/>
      <point x="206" y="90" type="curve" smooth="yes"/>
      <point x="198" y="88"/>
      <point x="187" y="86"/>
      <point x="175" y="88" type="curve" smooth="yes"/>
      <point x="170" y="89"/>
      <point x="167" y="92"/>
      <point x="164" y="95" type="curve"/>
      <point x="157" y="109"/>
      <point x="160" y="140"/>
      <point x="162" y="157" type="curve"/>
      <point x="161" y="163"/>
      <point x="161" y="171"/>
      <point x="159" y="177" type="curve"/>
      <point x="160" y="240"/>
      <point x="160" y="305"/>
      <point x="159" y="368" type="curve"/>
      <point x="157" y="381"/>
      <point x="159" y="393"/>
      <point x="159" y="406" type="curve" smooth="yes"/>
      <point x="159" y="437"/>
      <point x="157" y="464"/>
      <point x="159" y="496" type="curve" smooth="yes"/>
      <point x="159" y="499"/>
      <point x="156" y="501"/>
      <point x="156" y="505" type="curve" smooth="yes"/>
      <point x="157" y="512"/>
      <point x="159" y="524"/>
      <point x="155" y="534" type="curve"/>
      <point x="159" y="557"/>
      <point x="154" y="586"/>
      <point x="162" y="604" type="curve"/>
      <point x="169" y="613"/>
      <point x="183" y="606"/>
      <point x="194" y="610" type="curve"/>
      <point x="209" y="612"/>
      <point x="227" y="607"/>
      <point x="247" y="606" type="curve" smooth="yes"/>
      <point x="266" y="605"/>
      <point x="285" y="605"/>
      <point x="302" y="603" type="curve"/>
      <point x="312" y="599"/>
      <point x="321" y="594"/>
      <point x="336" y="595" type="curve"/>
      <point x="344" y="589"/>
      <point x="354" y="585"/>
      <point x="365" y="583" type="curve"/>
      <point x="378" y="572"/>
      <point x="397" y="567"/>
      <point x="409" y="557" type="curve"/>
      <point x="412" y="551"/>
      <point x="417" y="552"/>
      <point x="420" y="549" type="curve"/>
      <point x="430" y="544"/>
      <point x="439" y="533"/>
      <point x="451" y="528" type="curve"/>
      <point x="457" y="520"/>
      <point x="461" y="511"/>
      <point x="467" y="505" type="curve" smooth="yes"/>
      <point x="474" y="498"/>
      <point x="480" y="492"/>
      <point x="484" y="482" type="curve"/>
      <point x="498" y="470"/>
      <point x="501" y="447"/>
      <point x="513" y="432" type="curve"/>
      <point x="514" y="421"/>
      <point x="517" y="412"/>
      <point x="521" y="404" type="curve"/>
      <point x="522" y="375"/>
      <point x="531" y="341"/>
      <point x="519" y="319" type="curve"/>
      <point x="518" y="307"/>
      <point x="519" y="295"/>
      <point x="518" y="285" type="curve"/>
    </contour>
    <contour>
      <point x="334" y="0" type="move" name="bottom"/>
    </contour>
    <contour>
      <point x="334" y="348" type="move" name="center"/>
    </contour>
    <contour>
      <point x="334" y="695" type="move" name="top"/>
    </contour>
  </outline>
</glyph>
<glyph name="E" format="1">
  <advance width="495"/>
  <unicode hex="0045"/>
  <outline>
    <contour>
      <point x="154" y="226" type="line"/>
      <point x="153" y="241"/>
      <point x="153" y="265"/>
      <point x="154" y="282" type="curve"/>
      <point x="159" y="289"/>
      <point x="153" y="305"/>
      <point x="160" y="311" type="curve"/>
      <point x="156" y="321"/>
      <point x="161" y="328"/>
      <point x="166" y="334" type="curve"/>
      <point x="183" y="341"/>
      <point x="211" y="339"/>
      <point x="227" y="339" type="curve" smooth="yes"/>
      <point x="232" y="339"/>
      <point x="236" y="340"/>
      <point x="239" y="340" type="curve" smooth="yes"/>
      <point x="269" y="341"/>
      <point x="295" y="342"/>
      <point x="322" y="342" type="curve" smooth="yes"/>
      <point x="332" y="342"/>
      <point x="342" y="340"/>
      <point x="354" y="340" type="curve" smooth="yes"/>
      <point x="363" y="340"/>
      <point x="374" y="342"/>
      <point x="383" y="340" type="curve"/>
      <point x="401" y="346"/>
      <point x="426" y="343"/>
      <point x="438" y="354" type="curve"/>
      <point x="448" y="373"/>
      <point x="435" y="394"/>
      <point x="438" y="418" type="curve"/>
      <point x="423" y="429"/>
      <point x="394" y="427"/>
      <point x="366" y="427" type="curve"/>
      <point x="338" y="437"/>
      <point x="303" y="427"/>
      <point x="276" y="435" type="curve"/>
      <point x="269" y="429"/>
      <point x="260" y="434"/>
      <point x="248" y="432" type="curve" smooth="yes"/>
      <point x="219" y="430"/>
      <point x="178" y="424"/>
      <point x="161" y="442" type="curve"/>
      <point x="154" y="456"/>
      <point x="156" y="481"/>
      <point x="158" y="493" type="curve" smooth="yes"/>
      <point x="159" y="506"/>
      <point x="155" y="515"/>
      <point x="154" y="526" type="curve"/>
      <point x="161" y="544"/>
      <point x="158" y="563"/>
      <point x="158" y="584" type="curve"/>
      <point x="163" y="589"/>
      <point x="161" y="601"/>
      <point x="168" y="603" type="curve"/>
      <point x="174" y="610"/>
      <point x="188" y="608"/>
      <point x="200" y="606" type="curve"/>
      <point x="239" y="613"/>
      <point x="280" y="610"/>
      <point x="322" y="610" type="curve" smooth="yes"/>
      <point x="348" y="610"/>
      <point x="375" y="615"/>
      <point x="400" y="612" type="curve"/>
      <point x="414" y="615"/>
      <point x="434" y="613"/>
      <point x="436" y="628" type="curve" smooth="yes"/>
      <point x="438" y="647"/>
      <point x="438" y="677"/>
      <point x="427" y="688" type="curve"/>
      <point x="400" y="694"/>
      <point x="371" y="693"/>
      <point x="340" y="693" type="curve" smooth="yes"/>
      <point x="332" y="693"/>
      <point x="324" y="695"/>
      <point x="317" y="695" type="curve" smooth="yes"/>
      <point x="309" y="694"/>
      <point x="302" y="691"/>
      <point x="294" y="691" type="curve" smooth="yes"/>
      <point x="279" y="691"/>
      <point x="264" y="693"/>
      <point x="248" y="693" type="curve" smooth="yes"/>
      <point x="196" y="693"/>
      <point x="148" y="691"/>
      <point x="97" y="693" type="curve"/>
      <point x="88" y="689"/>
      <point x="75" y="688"/>
      <point x="70" y="679" type="curve"/>
      <point x="64" y="659"/>
      <point x="68" y="637"/>
      <point x="70" y="615" type="curve" smooth="yes"/>
      <point x="70" y="593"/>
      <point x="71" y="569"/>
      <point x="71" y="549" type="curve"/>
      <point x="67" y="537"/>
      <point x="66" y="524"/>
      <point x="65" y="510" type="curve" smooth="yes"/>
      <point x="65" y="489"/>
      <point x="66" y="466"/>
      <point x="71" y="451" type="curve"/>
      <point x="71" y="445"/>
      <point x="66" y="443"/>
      <point x="67" y="436" type="curve"/>
      <point x="71" y="429"/>
      <point x="72" y="421"/>
      <point x="71" y="411" type="curve"/>
      <point x="68" y="400"/>
      <point x="75" y="396"/>
      <point x="74" y="386" type="curve"/>
      <point x="67" y="365"/>
      <point x="73" y="340"/>
      <point x="73" y="316" type="curve" smooth="yes"/>
      <point x="72" y="285"/>
      <point x="71" y="255"/>
      <point x="73" y="229" type="curve"/>
      <point x="68" y="213"/>
      <point x="70" y="195"/>
      <point x="73" y="178" type="curve" smooth="yes"/>
      <point x="74" y="171"/>
      <point x="68" y="171"/>
      <point x="70" y="163" type="curve"/>
      <point x="73" y="158"/>
      <point x="75" y="152"/>
      <point x="71" y="145" type="curve"/>
      <point x="73" y="139"/>
      <point x="72" y="128"/>
      <point x="74" y="122" type="curve"/>
      <point x="74" y="119"/>
      <point x="73" y="116"/>
      <point x="73" y="111" type="curve"/>
      <point x="71" y="100"/>
      <point x="72" y="77"/>
      <point x="73" y="65" type="curve" smooth="yes"/>
      <point x="73" y="52"/>
      <point x="68" y="40"/>
      <point x="74" y="30" type="curve"/>
      <point x="80" y="24"/>
      <point x="85" y="17"/>
      <point x="94" y="15" type="curve" smooth="yes"/>
      <point x="119" y="8"/>
      <point x="151" y="12"/>
      <point x="176" y="12" type="curve" smooth="yes"/>
      <point x="193" y="12"/>
      <point x="209" y="10"/>
      <point x="226" y="10" type="curve" smooth="yes"/>
      <point x="242" y="10"/>
      <point x="259" y="10"/>
      <point x="273" y="13" type="curve"/>
      <point x="307" y="8"/>
      <point x="345" y="16"/>
      <point x="377" y="10" type="curve"/>
      <point x="383" y="10"/>
      <point x="388" y="14"/>
      <point x="395" y="13" type="curve"/>
      <point x="405" y="14"/>
      <point x="418" y="11"/>
      <point x="424" y="17" type="curve"/>
      <point x="431" y="19"/>
      <point x="439" y="21"/>
      <point x="442" y="30" type="curve"/>
      <point x="445" y="52"/>
      <point x="448" y="81"/>
      <point x="435" y="93" type="curve"/>
      <point x="410" y="100"/>
      <point x="382" y="96"/>
      <point x="357" y="96" type="curve" smooth="yes"/>
      <point x="347" y="96"/>
      <point x="339" y="99"/>
      <point x="329" y="99" type="curve" smooth="yes"/>
      <point x="323" y="99"/>
      <point x="317" y="95"/>
      <point x="310" y="95" type="curve" smooth="yes"/>
      <point x="304" y="94"/>
      <point x="296" y="96"/>
      <point x="290" y="96" type="curve" smooth="yes"/>
      <point x="283" y="96"/>
      <point x="275" y="94"/>
      <point x="268" y="95" type="curve" smooth="yes"/>
      <point x="260" y="95"/>
      <point x="254" y="99"/>
      <point x="247" y="99" type="curve" smooth="yes"/>
      <point x="240" y="99"/>
      <point x="234" y="96"/>
      <point x="227" y="96" type="curve" smooth="yes"/>
      <point x="221" y="96"/>
      <point x="214" y="99"/>
      <point x="207" y="99" type="curve" smooth="yes"/>
      <point x="198" y="99"/>
      <point x="188" y="93"/>
      <point x="178" y="96" type="curve"/>
      <point x="166" y="102"/>
      <point x="159" y="111"/>
      <point x="154" y="123" type="curve"/>
      <point x="152" y="133"/>
      <point x="155" y="146"/>
      <point x="154" y="160" type="curve"/>
      <point x="160" y="164"/>
      <point x="155" y="172"/>
      <point x="156" y="175" type="curve"/>
      <point x="156" y="181"/>
      <point x="159" y="187"/>
      <point x="160" y="194" type="curve"/>
    </contour>
    <contour>
      <point x="273" y="0" type="move" name="bottom"/>
    </contour>
    <contour>
      <point x="383" y="10" type="move" name="ogonek"/>
    </contour>
    <contour>
      <point x="253" y="695" type="move" name="top"/>
    </contour>
    <contour>
      <point x="27" y="695" type="move" name="topleft"/>
    </contour>
  </outline>
</glyph>
<glyph name="G" format="1">
  <advance width="799"/>
  <unicode hex="0047"/>
  <outline>
    <contour>
      <point x="288" y="6" type="line"/>
      <point x="304" y="3"/>
      <point x="318" y="-1"/>
      <point x="333" y="-3" type="curve"/>
      <point x="339" y="-8"/>
      <point x="347" y="-7"/>
      <point x="355" y="-8" type="curve"/>
      <point x="377" y="-15" type="line"/>
      <point x="417" y="-11"/>
      <point x="463" y="-11"/>
      <point x="504" y="-7" type="curve"/>
      <point x="516" y="-3"/>
      <point x="525" y="3"/>
      <point x="542" y="1" type="curve"/>
      <point x="552" y="7"/>
      <point x="561" y="13"/>
      <point x="572" y="17" type="curve"/>
      <point x="578" y="25"/>
      <point x="593" y="25"/>
      <point x="601" y="33" type="curve"/>
      <point x="621" y="43"/>
      <point x="635" y="60"/>
      <point x="653" y="73" type="curve"/>
      <point x="660" y="85"/>
      <point x="669" y="94"/>
      <point x="678" y="105" type="curve"/>
      <point x="680" y="111"/>
      <point x="688" y="113"/>
      <point x="691" y="120" type="curve" smooth="yes"/>
      <point x="694" y="127"/>
      <point x="698" y="131"/>
      <point x="702" y="137" type="curve"/>
      <point x="707" y="149"/>
      <point x="712" y="162"/>
      <point x="719" y="172" type="curve"/>
      <point x="725" y="184"/>
      <point x="727" y="199"/>
      <point x="734" y="209" type="curve"/>
      <point x="735" y="224"/>
      <point x="741" y="237"/>
      <point x="743" y="252" type="curve" smooth="yes"/>
      <point x="746" y="270"/>
      <point x="750" y="292"/>
      <point x="749" y="311" type="curve" smooth="yes"/>
      <point x="749" y="348" type="line" smooth="yes"/>
      <point x="749" y="350"/>
      <point x="748" y="351"/>
      <point x="746" y="352" type="curve"/>
      <point x="743" y="358"/>
      <point x="733" y="358"/>
      <point x="726" y="359" type="curve" smooth="yes"/>
      <point x="714" y="360"/>
      <point x="698" y="358"/>
      <point x="681" y="357" type="curve" smooth="yes"/>
      <point x="654" y="356"/>
      <point x="625" y="359"/>
      <point x="606" y="354" type="curve"/>
      <point x="590" y="359"/>
      <point x="572" y="356"/>
      <point x="554" y="356" type="curve" smooth="yes"/>
      <point x="544" y="355"/>
      <point x="536" y="357"/>
      <point x="527" y="357" type="curve" smooth="yes"/>
      <point x="507" y="358"/>
      <point x="485" y="360"/>
      <point x="470" y="351" type="curve"/>
      <point x="466" y="337"/>
      <point x="470" y="320"/>
      <point x="472" y="307" type="curve"/>
      <point x="471" y="298"/>
      <point x="469" y="289"/>
      <point x="469" y="279" type="curve"/>
      <point x="473" y="271"/>
      <point x="481" y="268"/>
      <point x="487" y="262" type="curve"/>
      <point x="532" y="264"/>
      <point x="588" y="269"/>
      <point x="630" y="267" type="curve" smooth="yes"/>
      <point x="637" y="267"/>
      <point x="643" y="271"/>
      <point x="647" y="265" type="curve"/>
      <point x="648" y="257"/>
      <point x="646" y="249"/>
      <point x="644" y="242" type="curve" smooth="yes"/>
      <point x="642" y="232"/>
      <point x="640" y="228"/>
      <point x="638" y="222" type="curve" smooth="yes"/>
      <point x="636" y="218"/>
      <point x="636" y="215"/>
      <point x="635" y="212" type="curve"/>
      <point x="629" y="202"/>
      <point x="623" y="195"/>
      <point x="621" y="186" type="curve"/>
      <point x="606" y="170"/>
      <point x="596" y="149"/>
      <point x="580" y="135" type="curve" smooth="yes"/>
      <point x="569" y="126"/>
      <point x="555" y="120"/>
      <point x="542" y="111" type="curve"/>
      <point x="523" y="107"/>
      <point x="506" y="99"/>
      <point x="487" y="93" type="curve" smooth="yes"/>
      <point x="467" y="88"/>
      <point x="446" y="88"/>
      <point x="421" y="85" type="curve"/>
      <point x="407" y="88"/>
      <point x="389" y="89"/>
      <point x="371" y="90" type="curve"/>
      <point x="333" y="99" type="line"/>
      <point x="322" y="104"/>
      <point x="312" y="110"/>
      <point x="296" y="111" type="curve"/>
      <point x="289" y="119"/>
      <point x="278" y="123"/>
      <point x="268" y="127" type="curve"/>
      <point x="249" y="144"/>
      <point x="227" y="158"/>
      <point x="209" y="177" type="curve"/>
      <point x="203" y="195"/>
      <point x="188" y="207"/>
      <point x="177" y="220" type="curve"/>
      <point x="174" y="231"/>
      <point x="168" y="237"/>
      <point x="165" y="245" type="curve" smooth="yes"/>
      <point x="151" y="281"/>
      <point x="142" y="320"/>
      <point x="145" y="372" type="curve"/>
      <point x="147" y="384"/>
      <point x="149" y="394"/>
      <point x="149" y="407" type="curve"/>
      <point x="161" y="428"/>
      <point x="169" y="453"/>
      <point x="180" y="474" type="curve"/>
      <point x="186" y="478"/>
      <point x="186" y="488"/>
      <point x="192" y="491" type="curve"/>
      <point x="196" y="498"/>
      <point x="202" y="501"/>
      <point x="204" y="510" type="curve"/>
      <point x="216" y="519"/>
      <point x="225" y="530"/>
      <point x="235" y="541" type="curve"/>
      <point x="242" y="543"/>
      <point x="245" y="551"/>
      <point x="252" y="554" type="curve"/>
      <point x="258" y="559"/>
      <point x="266" y="562"/>
      <point x="270" y="568" type="curve"/>
      <point x="285" y="573"/>
      <point x="295" y="583"/>
      <point x="310" y="589" type="curve" smooth="yes"/>
      <point x="322" y="594"/>
      <point x="335" y="596"/>
      <point x="345" y="601" type="curve"/>
      <point x="358" y="598"/>
      <point x="368" y="606"/>
      <point x="382" y="608" type="curve" smooth="yes"/>
      <point x="398" y="611"/>
      <point x="414" y="608"/>
      <point x="433" y="610" type="curve"/>
      <point x="450" y="603"/>
      <point x="465" y="607"/>
      <point x="481" y="604" type="curve" smooth="yes"/>
      <point x="492" y="603"/>
      <point x="503" y="595"/>
      <point x="517" y="597" type="curve"/>
      <point x="522" y="593"/>
      <point x="529" y="588"/>
      <point x="537" y="588" type="curve"/>
      <point x="551" y="580"/>
      <point x="562" y="570"/>
      <point x="579" y="565" type="curve"/>
      <point x="588" y="554"/>
      <point x="600" y="546"/>
      <point x="609" y="536" type="curve"/>
      <point x="616" y="533"/>
      <point x="616" y="524"/>
      <point x="623" y="519" type="curve"/>
      <point x="626" y="513"/>
      <point x="635" y="511"/>
      <point x="642" y="510" type="curve"/>
      <point x="660" y="511"/>
      <point x="669" y="525"/>
      <point x="679" y="534" type="curve" smooth="yes"/>
      <point x="690" y="544"/>
      <point x="703" y="552"/>
      <point x="708" y="568" type="curve"/>
      <point x="701" y="590"/>
      <point x="683" y="600"/>
      <point x="671" y="616" type="curve"/>
      <point x="653" y="626"/>
      <point x="637" y="639"/>
      <point x="623" y="653" type="curve"/>
      <point x="604" y="659"/>
      <point x="590" y="670"/>
      <point x="571" y="675" type="curve"/>
      <point x="563" y="681"/>
      <point x="553" y="682"/>
      <point x="543" y="685" type="curve" smooth="yes"/>
      <point x="535" y="688"/>
      <point x="526" y="693"/>
      <point x="517" y="696" type="curve"/>
      <point x="477" y="704"/>
      <point x="434" y="710"/>
      <point x="383" y="708" type="curve" smooth="yes"/>
      <point x="377" y="708"/>
      <point x="375" y="703"/>
      <point x="365" y="705" type="curve"/>
      <point x="359" y="704"/>
      <point x="350" y="704"/>
      <point x="346" y="700" type="curve"/>
      <point x="331" y="700"/>
      <point x="324" y="691"/>
      <point x="307" y="693" type="curve"/>
      <point x="290" y="685"/>
      <point x="273" y="677"/>
      <point x="253" y="673" type="curve"/>
      <point x="240" y="664"/>
      <point x="223" y="656"/>
      <point x="209" y="647" type="curve"/>
      <point x="204" y="640"/>
      <point x="199" y="633"/>
      <point x="189" y="632" type="curve"/>
      <point x="182" y="626"/>
      <point x="179" y="618"/>
      <point x="169" y="615" type="curve"/>
      <point x="161" y="599"/>
      <point x="145" y="591"/>
      <point x="136" y="577" type="curve"/>
      <point x="123" y="566"/>
      <point x="116" y="549"/>
      <point x="102" y="537" type="curve"/>
      <point x="99" y="528"/>
      <point x="95" y="519"/>
      <point x="90" y="513" type="curve"/>
      <point x="85" y="504"/>
      <point x="81" y="495"/>
      <point x="76" y="488" type="curve"/>
      <point x="73" y="461"/>
      <point x="58" y="436"/>
      <point x="56" y="404" type="curve" smooth="yes"/>
      <point x="55" y="386"/>
      <point x="55" y="366"/>
      <point x="55" y="348" type="curve" smooth="yes"/>
      <point x="54" y="330"/>
      <point x="56" y="312"/>
      <point x="50" y="296" type="curve"/>
      <point x="57" y="285"/>
      <point x="58" y="270"/>
      <point x="59" y="255" type="curve"/>
      <point x="65" y="248"/>
      <point x="65" y="240"/>
      <point x="67" y="232" type="curve"/>
      <point x="71" y="224"/>
      <point x="75" y="217"/>
      <point x="78" y="210" type="curve" smooth="yes"/>
      <point x="79" y="207"/>
      <point x="79" y="202"/>
      <point x="81" y="198" type="curve" smooth="yes"/>
      <point x="86" y="186"/>
      <point x="94" y="178"/>
      <point x="99" y="166" type="curve" smooth="yes"/>
      <point x="102" y="160"/>
      <point x="103" y="153"/>
      <point x="106" y="145" type="curve"/>
      <point x="113" y="137"/>
      <point x="123" y="129"/>
      <point x="130" y="120" type="curve" smooth="yes"/>
      <point x="136" y="110"/>
      <point x="146" y="104"/>
      <point x="151" y="91" type="curve"/>
      <point x="164" y="87"/>
      <point x="172" y="80"/>
      <point x="180" y="70" type="curve"/>
      <point x="186" y="68"/>
      <point x="189" y="63"/>
      <point x="192" y="58" type="curve"/>
      <point x="199" y="56"/>
      <point x="204" y="51"/>
      <point x="208" y="47" type="curve"/>
      <point x="215" y="43"/>
      <point x="222" y="41"/>
      <point x="226" y="35" type="curve"/>
      <point x="235" y="33"/>
      <point x="241" y="30"/>
      <point x="247" y="24" type="curve"/>
    </contour>
    <contour>
      <point x="411" y="0" type="move" name="bottom"/>
    </contour>
    <contour>
      <point x="411" y="695" type="move" name="top"/>
    </contour>
  </outline>
</glyph>
<glyph name="J" format="1">
  <advance width="301"/>
  <unicode hex="004A"/>
  <outline>
    <contour>
      <point x="-57" y="-220"/>
      <point x="-21" y="-222"/>
      <point x="4" y="-232" type="curve"/>
      <point x="18" y="-232"/>
      <point x="29" y="-234"/>
      <point x="40" y="-236" type="curve"/>
      <point x="66" y="-229"/>
      <point x="91" y="-223"/>
      <point x="120" y="-217" type="curve"/>
      <point x="128" y="-210"/>
      <point x="140" y="-207"/>
      <point x="149" y="-200" type="curve"/>
      <point x="159" y="-195"/>
      <point x="166" y="-184"/>
      <point x="178" y="-180" type="curve"/>
      <point x="183" y="-172"/>
      <point x="191" y="-164"/>
      <point x="199" y="-157" type="curve"/>
      <point x="204" y="-148"/>
      <point x="209" y="-141"/>
      <point x="214" y="-134" type="curve"/>
      <point x="216" y="-125"/>
      <point x="219" y="-118"/>
      <point x="225" y="-112" type="curve"/>
      <point x="224" y="-102"/>
      <point x="228" y="-98"/>
      <point x="230" y="-90" type="curve"/>
      <point x="230" y="-66"/>
      <point x="234" y="-40"/>
      <point x="234" y="-15" type="curve" smooth="yes"/>
      <point x="234" y="10"/>
      <point x="231" y="34"/>
      <point x="236" y="56" type="curve"/>
      <point x="231" y="85"/>
      <point x="232" y="127"/>
      <point x="236" y="155" type="curve"/>
      <point x="232" y="187"/>
      <point x="233" y="220"/>
      <point x="233" y="250" type="curve" smooth="yes"/>
      <point x="233" y="261"/>
      <point x="235" y="272"/>
      <point x="234" y="279" type="curve" smooth="yes"/>
      <point x="232" y="317"/>
      <point x="234" y="360"/>
      <point x="234" y="401" type="curve" smooth="yes"/>
      <point x="234" y="432"/>
      <point x="229" y="476"/>
      <point x="234" y="506" type="curve"/>
      <point x="231" y="535"/>
      <point x="234" y="567"/>
      <point x="233" y="600" type="curve" smooth="yes"/>
      <point x="232" y="616"/>
      <point x="232" y="634"/>
      <point x="233" y="650" type="curve" smooth="yes"/>
      <point x="233" y="665"/>
      <point x="237" y="681"/>
      <point x="228" y="693" type="curve"/>
      <point x="217" y="696"/>
      <point x="196" y="700"/>
      <point x="188" y="695" type="curve"/>
      <point x="172" y="694"/>
      <point x="153" y="696"/>
      <point x="144" y="688" type="curve" smooth="yes"/>
      <point x="139" y="683"/>
      <point x="137" y="666"/>
      <point x="141" y="656" type="curve"/>
      <point x="144" y="591"/>
      <point x="141" y="518"/>
      <point x="144" y="451" type="curve"/>
      <point x="140" y="442"/>
      <point x="142" y="428"/>
      <point x="139" y="418" type="curve"/>
      <point x="141" y="404"/>
      <point x="144" y="392"/>
      <point x="144" y="377" type="curve" smooth="yes"/>
      <point x="145" y="365"/>
      <point x="142" y="358"/>
      <point x="141" y="348" type="curve"/>
      <point x="144" y="322"/>
      <point x="143" y="296"/>
      <point x="143" y="273" type="curve" smooth="yes"/>
      <point x="144" y="252" type="line" smooth="yes"/>
      <point x="144" y="247"/>
      <point x="141" y="242"/>
      <point x="141" y="237" type="curve" smooth="yes"/>
      <point x="141" y="234"/>
      <point x="143" y="233"/>
      <point x="143" y="230" type="curve" smooth="yes"/>
      <point x="143" y="228"/>
      <point x="141" y="224"/>
      <point x="141" y="222" type="curve" smooth="yes"/>
      <point x="141" y="208"/>
      <point x="144" y="194"/>
      <point x="144" y="180" type="curve" smooth="yes"/>
      <point x="144" y="165"/>
      <point x="143" y="151"/>
      <point x="143" y="135" type="curve" smooth="yes"/>
      <point x="143" y="119"/>
      <point x="144" y="102"/>
      <point x="144" y="85" type="curve" smooth="yes"/>
      <point x="145" y="52"/>
      <point x="140" y="19"/>
      <point x="146" y="-11" type="curve"/>
      <point x="143" y="-25"/>
      <point x="141" y="-43"/>
      <point x="139" y="-60" type="curve"/>
      <point x="134" y="-73"/>
      <point x="128" y="-86"/>
      <point x="124" y="-101" type="curve"/>
      <point x="108" y="-116"/>
      <point x="95" y="-132"/>
      <point x="72" y="-141" type="curve"/>
      <point x="53" y="-144"/>
      <point x="33" y="-140"/>
      <point x="14" y="-142" type="curve"/>
      <point x="8" y="-138"/>
      <point x="-2" y="-139"/>
      <point x="-7" y="-134" type="curve"/>
      <point x="-15" y="-132"/>
      <point x="-25" y="-128"/>
      <point x="-33" y="-132" type="curve" smooth="yes"/>
      <point x="-46" y="-137"/>
      <point x="-43" y="-155"/>
      <point x="-53" y="-162" type="curve" smooth="yes"/>
      <point x="-58" y="-165"/>
      <point x="-60" y="-172"/>
      <point x="-61" y="-179" type="curve"/>
      <point x="-67" y="-182"/>
      <point x="-69" y="-190"/>
      <point x="-70" y="-197" type="curve"/>
    </contour>
    <contour>
      <point x="157" y="0" type="move" name="bottom"/>
    </contour>
    <contour>
      <point x="157" y="695" type="move" name="top"/>
    </contour>
  </outline>
</glyph>
<glyph name="L" format="1">
  <advance width="426"/>
  <unicode hex="004C"/>
  <outline>
    <contour>
      <point x="70" y="218" type="line"/>
      <point x="68" y="130" type="line" smooth="yes"/>
      <point x="68" y="128"/>
      <point x="69" y="127"/>
      <point x="70" y="125" type="curve"/>
      <point x="70" y="90" type="line" smooth="yes"/>
      <point x="69" y="78"/>
      <point x="68" y="65"/>
      <point x="68" y="56" type="curve" smooth="yes"/>
      <point x="68" y="52"/>
      <point x="70" y="49"/>
      <point x="70" y="45" type="curve" smooth="yes"/>
      <point x="69" y="35"/>
      <point x="62" y="27"/>
      <point x="66" y="17" type="curve" smooth="yes"/>
      <point x="77" y="-10"/>
      <point x="111" y="-3"/>
      <point x="144" y="-3" type="curve" smooth="yes"/>
      <point x="178" y="-3"/>
      <point x="214" y="1"/>
      <point x="238" y="-5" type="curve"/>
      <point x="265" y="1"/>
      <point x="302" y="-5"/>
      <point x="328" y="-5" type="curve" smooth="yes"/>
      <point x="332" y="-5"/>
      <point x="335" y="-3"/>
      <point x="338" y="-3" type="curve" smooth="yes"/>
      <point x="343" y="-4"/>
      <point x="344" y="-5"/>
      <point x="349" y="-5" type="curve" smooth="yes"/>
      <point x="355" y="-4"/>
      <point x="362" y="-2"/>
      <point x="369" y="0" type="curve" smooth="yes"/>
      <point x="375" y="1"/>
      <point x="381" y="3"/>
      <point x="387" y="6" type="curve"/>
      <point x="390" y="15"/>
      <point x="398" y="19"/>
      <point x="396" y="33" type="curve"/>
      <point x="396" y="70" type="line" smooth="yes"/>
      <point x="396" y="72"/>
      <point x="395" y="74"/>
      <point x="393" y="75" type="curve"/>
      <point x="392" y="92"/>
      <point x="339" y="91"/>
      <point x="339" y="91" type="curve"/>
      <point x="277" y="99" type="line"/>
      <point x="261" y="93"/>
      <point x="237" y="96"/>
      <point x="221" y="91" type="curve"/>
      <point x="204" y="95"/>
      <point x="180" y="86"/>
      <point x="172" y="100" type="curve"/>
      <point x="169" y="141"/>
      <point x="173" y="186"/>
      <point x="172" y="224" type="curve" smooth="yes"/>
      <point x="171" y="250"/>
      <point x="171" y="280"/>
      <point x="173" y="308" type="curve"/>
      <point x="169" y="338"/>
      <point x="167" y="375"/>
      <point x="173" y="404" type="curve"/>
      <point x="168" y="411"/>
      <point x="172" y="420"/>
      <point x="172" y="429" type="curve" smooth="yes"/>
      <point x="171" y="438"/>
      <point x="168" y="448"/>
      <point x="168" y="458" type="curve" smooth="yes"/>
      <point x="168" y="477"/>
      <point x="169" y="496"/>
      <point x="169" y="516" type="curve" smooth="yes"/>
      <point x="169" y="526"/>
      <point x="172" y="535"/>
      <point x="172" y="545" type="curve" smooth="yes"/>
      <point x="172" y="554"/>
      <point x="169" y="563"/>
      <point x="169" y="572" type="curve" smooth="yes"/>
      <point x="172" y="628" type="line" smooth="yes"/>
      <point x="172" y="647"/>
      <point x="174" y="666"/>
      <point x="168" y="683" type="curve"/>
      <point x="164" y="685"/>
      <point x="164" y="689"/>
      <point x="161" y="691" type="curve"/>
      <point x="155" y="697"/>
      <point x="145" y="697"/>
      <point x="137" y="702" type="curve"/>
      <point x="114" y="701"/>
      <point x="89" y="702"/>
      <point x="73" y="695" type="curve"/>
      <point x="65" y="679"/>
      <point x="66" y="658"/>
      <point x="66" y="636" type="curve" smooth="yes"/>
      <point x="66" y="604"/>
      <point x="69" y="569"/>
      <point x="66" y="541" type="curve"/>
      <point x="68" y="534"/>
      <point x="70" y="528"/>
      <point x="70" y="517" type="curve" smooth="yes"/>
      <point x="68" y="427"/>
      <point x="69" y="331"/>
      <point x="68" y="245" type="curve"/>
      <point x="66" y="245"/>
      <point x="69" y="237"/>
      <point x="70" y="235" type="curve"/>
    </contour>
    <contour>
      <point x="211" y="0" type="move" name="bottom"/>
    </contour>
    <contour>
      <point x="211" y="348" type="move" name="center"/>
    </contour>
    <contour>
      <point x="211" y="695" type="move" name="top"/>
    </contour>
    <contour>
      <point x="400" y="695" type="move" name="topright"/>
    </contour>
  </outline>
</glyph>
<glyph name="M" format="1">
  <advance width="813"/>
  <unicode hex="004D"/>
  <outline>
    <contour>
      <point x="676" y="593" type="line"/>
      <point x="674" y="615"/>
      <point x="670" y="635"/>
      <point x="665" y="653" type="curve"/>
      <point x="666" y="673"/>
      <point x="661" y="694"/>
      <point x="646" y="693" type="curve" smooth="yes"/>
      <point x="635" y="692"/>
      <point x="634" y="682"/>
      <point x="630" y="670" type="curve"/>
      <point x="616" y="641"/>
      <point x="603" y="613"/>
      <point x="587" y="586" type="curve"/>
      <point x="585" y="575"/>
      <point x="581" y="565"/>
      <point x="574" y="558" type="curve"/>
      <point x="575" y="549"/>
      <point x="569" y="544"/>
      <point x="566" y="536" type="curve" smooth="yes"/>
      <point x="557" y="513" type="line" smooth="yes"/>
      <point x="551" y="498"/>
      <point x="543" y="485"/>
      <point x="534" y="473" type="curve"/>
      <point x="532" y="459"/>
      <point x="525" y="451"/>
      <point x="522" y="438" type="curve"/>
      <point x="518" y="430"/>
      <point x="514" y="425"/>
      <point x="509" y="419" type="curve"/>
      <point x="509" y="413"/>
      <point x="507" y="408"/>
      <point x="506" y="403" type="curve"/>
      <point x="497" y="392"/>
      <point x="493" y="378"/>
      <point x="485" y="368" type="curve"/>
      <point x="485" y="359"/>
      <point x="478" y="357"/>
      <point x="477" y="349" type="curve" smooth="yes"/>
      <point x="477" y="340"/>
      <point x="471" y="337"/>
      <point x="467" y="331" type="curve"/>
      <point x="466" y="321"/>
      <point x="461" y="317"/>
      <point x="461" y="307" type="curve"/>
      <point x="448" y="294"/>
      <point x="443" y="271"/>
      <point x="436" y="255" type="curve"/>
      <point x="434" y="253"/>
      <point x="432" y="252"/>
      <point x="432" y="250" type="curve"/>
      <point x="426" y="236"/>
      <point x="425" y="224"/>
      <point x="418" y="212" type="curve"/>
      <point x="414" y="199"/>
      <point x="412" y="187"/>
      <point x="401" y="182" type="curve"/>
      <point x="390" y="191"/>
      <point x="390" y="212"/>
      <point x="383" y="224" type="curve"/>
      <point x="377" y="239"/>
      <point x="372" y="253"/>
      <point x="366" y="267" type="curve"/>
      <point x="365" y="277"/>
      <point x="357" y="279"/>
      <point x="357" y="288" type="curve"/>
      <point x="354" y="296"/>
      <point x="351" y="303"/>
      <point x="347" y="308" type="curve"/>
      <point x="341" y="323"/>
      <point x="335" y="337"/>
      <point x="327" y="349" type="curve"/>
      <point x="328" y="356"/>
      <point x="325" y="358"/>
      <point x="325" y="364" type="curve"/>
      <point x="320" y="370"/>
      <point x="318" y="378"/>
      <point x="314" y="386" type="curve"/>
      <point x="309" y="404"/>
      <point x="301" y="417"/>
      <point x="294" y="429" type="curve" smooth="yes"/>
      <point x="281" y="453"/>
      <point x="272" y="477"/>
      <point x="264" y="505" type="curve"/>
      <point x="259" y="511"/>
      <point x="253" y="516"/>
      <point x="250" y="525" type="curve" smooth="yes"/>
      <point x="245" y="536"/>
      <point x="242" y="549"/>
      <point x="236" y="560" type="curve" smooth="yes"/>
      <point x="233" y="567"/>
      <point x="229" y="573"/>
      <point x="229" y="581" type="curve"/>
      <point x="217" y="595"/>
      <point x="212" y="612"/>
      <point x="204" y="628" type="curve" smooth="yes"/>
      <point x="198" y="644"/>
      <point x="188" y="660"/>
      <point x="185" y="679" type="curve"/>
      <point x="178" y="688"/>
      <point x="174" y="705"/>
      <point x="160" y="700" type="curve" smooth="yes"/>
      <point x="150" y="696"/>
      <point x="151" y="684"/>
      <point x="148" y="675" type="curve" smooth="yes"/>
      <point x="145" y="665"/>
      <point x="144" y="654"/>
      <point x="140" y="647" type="curve"/>
      <point x="140" y="607"/>
      <point x="126" y="583"/>
      <point x="122" y="548" type="curve"/>
      <point x="115" y="515"/>
      <point x="108" y="483"/>
      <point x="98" y="455" type="curve"/>
      <point x="98" y="435" type="line"/>
      <point x="92" y="423"/>
      <point x="92" y="408"/>
      <point x="90" y="395" type="curve"/>
      <point x="79" y="357" type="line"/>
      <point x="78" y="331"/>
      <point x="72" y="310"/>
      <point x="67" y="287" type="curve"/>
      <point x="67" y="272" type="line"/>
      <point x="52" y="233"/>
      <point x="48" y="183"/>
      <point x="36" y="140" type="curve"/>
      <point x="41" y="120"/>
      <point x="30" y="100"/>
      <point x="36" y="78" type="curve"/>
      <point x="36" y="69"/>
      <point x="25" y="70"/>
      <point x="26" y="60" type="curve"/>
      <point x="31" y="45"/>
      <point x="20" y="32"/>
      <point x="27" y="18" type="curve"/>
      <point x="43" y="10"/>
      <point x="75" y="4"/>
      <point x="96" y="12" type="curve"/>
      <point x="103" y="19"/>
      <point x="104" y="32"/>
      <point x="110" y="40" type="curve"/>
      <point x="110" y="46"/>
      <point x="107" y="48"/>
      <point x="108" y="55" type="curve"/>
      <point x="123" y="109"/>
      <point x="129" y="173"/>
      <point x="145" y="227" type="curve"/>
      <point x="144" y="250"/>
      <point x="149" y="268"/>
      <point x="157" y="284" type="curve"/>
      <point x="157" y="302" type="line"/>
      <point x="171" y="328"/>
      <point x="165" y="372"/>
      <point x="180" y="398" type="curve"/>
      <point x="179" y="408"/>
      <point x="181" y="419"/>
      <point x="183" y="429" type="curve" smooth="yes"/>
      <point x="185" y="439"/>
      <point x="184" y="453"/>
      <point x="193" y="456" type="curve"/>
      <point x="204" y="436"/>
      <point x="212" y="411"/>
      <point x="221" y="389" type="curve"/>
      <point x="228" y="379"/>
      <point x="230" y="366"/>
      <point x="236" y="356" type="curve" smooth="yes"/>
      <point x="243" y="345"/>
      <point x="246" y="333"/>
      <point x="252" y="322" type="curve"/>
      <point x="260" y="297"/>
      <point x="273" y="279"/>
      <point x="282" y="255" type="curve"/>
      <point x="294" y="234"/>
      <point x="303" y="212"/>
      <point x="310" y="187" type="curve"/>
      <point x="315" y="181"/>
      <point x="319" y="175"/>
      <point x="322" y="169" type="curve" smooth="yes"/>
      <point x="325" y="161"/>
      <point x="327" y="152"/>
      <point x="331" y="146" type="curve" smooth="yes"/>
      <point x="334" y="141"/>
      <point x="335" y="138"/>
      <point x="337" y="131" type="curve" smooth="yes"/>
      <point x="340" y="123"/>
      <point x="345" y="117"/>
      <point x="347" y="108" type="curve" smooth="yes"/>
      <point x="354" y="87"/>
      <point x="366" y="70"/>
      <point x="371" y="45" type="curve"/>
      <point x="374" y="38"/>
      <point x="379" y="32"/>
      <point x="383" y="23" type="curve" smooth="yes"/>
      <point x="386" y="16"/>
      <point x="388" y="6"/>
      <point x="398" y="6" type="curve"/>
      <point x="412" y="8"/>
      <point x="418" y="18"/>
      <point x="421" y="32" type="curve"/>
      <point x="426" y="41"/>
      <point x="431" y="52"/>
      <point x="436" y="64" type="curve"/>
      <point x="442" y="72"/>
      <point x="443" y="87"/>
      <point x="450" y="95" type="curve"/>
      <point x="456" y="106"/>
      <point x="459" y="118"/>
      <point x="467" y="125" type="curve"/>
      <point x="467" y="133"/>
      <point x="471" y="138"/>
      <point x="473" y="145" type="curve"/>
      <point x="490" y="174"/>
      <point x="501" y="210"/>
      <point x="519" y="239" type="curve" smooth="yes"/>
      <point x="535" y="270"/>
      <point x="547" y="305"/>
      <point x="564" y="334" type="curve"/>
      <point x="565" y="343"/>
      <point x="569" y="349"/>
      <point x="571" y="357" type="curve"/>
      <point x="579" y="367"/>
      <point x="584" y="377"/>
      <point x="587" y="391" type="curve"/>
      <point x="593" y="393"/>
      <point x="593" y="402"/>
      <point x="595" y="409" type="curve"/>
      <point x="598" y="413"/>
      <point x="602" y="418"/>
      <point x="604" y="424" type="curve" smooth="yes"/>
      <point x="608" y="434"/>
      <point x="607" y="448"/>
      <point x="618" y="451" type="curve"/>
      <point x="624" y="428"/>
      <point x="625" y="401"/>
      <point x="633" y="379" type="curve"/>
      <point x="633" y="374"/>
      <point x="630" y="372"/>
      <point x="631" y="366" type="curve"/>
      <point x="641" y="343"/>
      <point x="641" y="311"/>
      <point x="650" y="287" type="curve"/>
      <point x="651" y="280"/>
      <point x="646" y="279"/>
      <point x="648" y="272" type="curve"/>
      <point x="652" y="266"/>
      <point x="653" y="259"/>
      <point x="656" y="252" type="curve"/>
      <point x="655" y="239"/>
      <point x="658" y="230"/>
      <point x="661" y="220" type="curve"/>
      <point x="661" y="195"/>
      <point x="669" y="178"/>
      <point x="673" y="157" type="curve" smooth="yes"/>
      <point x="676" y="136"/>
      <point x="687" y="120"/>
      <point x="685" y="93" type="curve"/>
      <point x="690" y="81"/>
      <point x="687" y="59"/>
      <point x="693" y="48" type="curve"/>
      <point x="692" y="29"/>
      <point x="698" y="17"/>
      <point x="708" y="8" type="curve"/>
      <point x="729" y="3"/>
      <point x="764" y="4"/>
      <point x="783" y="12" type="curve"/>
      <point x="793" y="25"/>
      <point x="784" y="37"/>
      <point x="781" y="52" type="curve" smooth="yes"/>
      <point x="779" y="60"/>
      <point x="779" y="70"/>
      <point x="778" y="78" type="curve" smooth="yes"/>
      <point x="777" y="87"/>
      <point x="775" y="95"/>
      <point x="773" y="103" type="curve" smooth="yes"/>
      <point x="772" y="112"/>
      <point x="772" y="121"/>
      <point x="768" y="128" type="curve"/>
      <point x="762" y="162"/>
      <point x="750" y="190"/>
      <point x="751" y="230" type="curve"/>
      <point x="743" y="250"/>
      <point x="744" y="279"/>
      <point x="734" y="297" type="curve"/>
      <point x="736" y="312"/>
      <point x="730" y="318"/>
      <point x="731" y="332" type="curve"/>
      <point x="725" y="340"/>
      <point x="728" y="356"/>
      <point x="722" y="364" type="curve"/>
      <point x="721" y="377"/>
      <point x="716" y="389"/>
      <point x="713" y="399" type="curve"/>
      <point x="712" y="430"/>
      <point x="702" y="451"/>
      <point x="696" y="478" type="curve" smooth="yes"/>
      <point x="695" y="484"/>
      <point x="698" y="487"/>
      <point x="697" y="493" type="curve"/>
      <point x="692" y="506"/>
      <point x="692" y="519"/>
      <point x="690" y="533" type="curve" smooth="yes"/>
      <point x="687" y="546"/>
      <point x="683" y="561"/>
      <point x="683" y="577" type="curve"/>
    </contour>
    <contour>
      <point x="412" y="0" type="move" name="bottom"/>
    </contour>
    <contour>
      <point x="412" y="695" type="move" name="top"/>
    </contour>
  </outline>
</glyph>
<glyph name="N" format="1">
  <advance width="755"/>
  <unicode hex="004E"/>
  <outline>
    <contour>
      <point x="163" y="621" type="line"/>
      <point x="151" y="637"/>
      <point x="137" y="652"/>
      <point x="122" y="667" type="curve"/>
      <point x="105" y="678"/>
      <point x="98" y="700"/>
      <point x="70" y="702" type="curve"/>
      <point x="62" y="692"/>
      <point x="66" y="666"/>
      <point x="69" y="653" type="curve"/>
      <point x="69" y="634"/>
      <point x="70" y="623"/>
      <point x="65" y="610" type="curve"/>
      <point x="72" y="598"/>
      <point x="67" y="585"/>
      <point x="67" y="572" type="curve" smooth="yes"/>
      <point x="67" y="567"/>
      <point x="68" y="561"/>
      <point x="69" y="554" type="curve"/>
      <point x="69" y="494" type="line" smooth="yes"/>
      <point x="68" y="474"/>
      <point x="74" y="454"/>
      <point x="70" y="435" type="curve"/>
      <point x="73" y="419"/>
      <point x="77" y="404"/>
      <point x="75" y="387" type="curve" smooth="yes"/>
      <point x="74" y="376"/>
      <point x="70" y="366"/>
      <point x="70" y="354" type="curve" smooth="yes"/>
      <point x="70" y="343"/>
      <point x="72" y="333"/>
      <point x="72" y="322" type="curve" smooth="yes"/>
      <point x="71" y="310"/>
      <point x="68" y="297"/>
      <point x="72" y="284" type="curve"/>
      <point x="67" y="265"/>
      <point x="71" y="248"/>
      <point x="69" y="226" type="curve"/>
      <point x="78" y="204"/>
      <point x="65" y="167"/>
      <point x="75" y="151" type="curve"/>
      <point x="69" y="133"/>
      <point x="68" y="107"/>
      <point x="72" y="88" type="curve"/>
      <point x="69" y="66"/>
      <point x="70" y="36"/>
      <point x="75" y="17" type="curve"/>
      <point x="90" y="4"/>
      <point x="139" y="4"/>
      <point x="154" y="17" type="curve"/>
      <point x="157" y="25"/>
      <point x="158" y="38"/>
      <point x="159" y="50" type="curve" smooth="yes"/>
      <point x="159" y="58"/>
      <point x="154" y="61"/>
      <point x="154" y="70" type="curve"/>
      <point x="150" y="96"/>
      <point x="154" y="129"/>
      <point x="154" y="152" type="curve" smooth="yes"/>
      <point x="154" y="156"/>
      <point x="152" y="159"/>
      <point x="152" y="163" type="curve"/>
      <point x="156" y="189" type="line"/>
      <point x="156" y="200"/>
      <point x="154" y="213"/>
      <point x="154" y="226" type="curve" smooth="yes"/>
      <point x="154" y="233"/>
      <point x="157" y="242"/>
      <point x="157" y="250" type="curve" smooth="yes"/>
      <point x="159" y="279"/>
      <point x="152" y="307"/>
      <point x="157" y="337" type="curve"/>
      <point x="152" y="355"/>
      <point x="154" y="386"/>
      <point x="157" y="404" type="curve"/>
      <point x="154" y="419"/>
      <point x="157" y="440"/>
      <point x="154" y="455" type="curve"/>
      <point x="157" y="459"/>
      <point x="159" y="465"/>
      <point x="160" y="471" type="curve" smooth="yes"/>
      <point x="161" y="475"/>
      <point x="166" y="474"/>
      <point x="166" y="478" type="curve"/>
      <point x="170" y="478"/>
      <point x="167" y="485"/>
      <point x="172" y="484" type="curve" smooth="yes"/>
      <point x="185" y="481"/>
      <point x="189" y="469"/>
      <point x="201" y="464" type="curve"/>
      <point x="207" y="454"/>
      <point x="219" y="448"/>
      <point x="227" y="441" type="curve"/>
      <point x="230" y="434"/>
      <point x="237" y="430"/>
      <point x="241" y="424" type="curve"/>
      <point x="243" y="417"/>
      <point x="249" y="413"/>
      <point x="256" y="409" type="curve"/>
      <point x="264" y="398"/>
      <point x="277" y="390"/>
      <point x="284" y="377" type="curve"/>
      <point x="306" y="358"/>
      <point x="328" y="340"/>
      <point x="346" y="317" type="curve"/>
      <point x="356" y="313"/>
      <point x="362" y="303"/>
      <point x="369" y="296" type="curve" smooth="yes"/>
      <point x="377" y="288"/>
      <point x="386" y="282"/>
      <point x="392" y="273" type="curve"/>
      <point x="398" y="268"/>
      <point x="400" y="261"/>
      <point x="408" y="259" type="curve"/>
      <point x="416" y="247"/>
      <point x="427" y="239"/>
      <point x="438" y="229" type="curve" smooth="yes"/>
      <point x="449" y="218"/>
      <point x="459" y="209"/>
      <point x="471" y="200" type="curve"/>
      <point x="475" y="191"/>
      <point x="484" y="187"/>
      <point x="490" y="178" type="curve" smooth="yes"/>
      <point x="496" y="170"/>
      <point x="506" y="163"/>
      <point x="513" y="157" type="curve" smooth="yes"/>
      <point x="522" y="149"/>
      <point x="527" y="141"/>
      <point x="534" y="134" type="curve" smooth="yes"/>
      <point x="541" y="128"/>
      <point x="547" y="125"/>
      <point x="554" y="120" type="curve"/>
      <point x="560" y="107"/>
      <point x="572" y="98"/>
      <point x="582" y="88" type="curve" smooth="yes"/>
      <point x="591" y="77"/>
      <point x="601" y="68"/>
      <point x="610" y="56" type="curve"/>
      <point x="633" y="40"/>
      <point x="644" y="10"/>
      <point x="675" y="1" type="curve"/>
      <point x="688" y="8"/>
      <point x="691" y="27"/>
      <point x="690" y="48" type="curve"/>
      <point x="681" y="76"/>
      <point x="688" y="122"/>
      <point x="684" y="155" type="curve" smooth="yes"/>
      <point x="684" y="161"/>
      <point x="685" y="165"/>
      <point x="687" y="171" type="curve"/>
      <point x="682" y="192"/>
      <point x="685" y="215"/>
      <point x="685" y="239" type="curve" smooth="yes"/>
      <point x="685" y="249"/>
      <point x="682" y="259"/>
      <point x="685" y="269" type="curve"/>
      <point x="683" y="277"/>
      <point x="682" y="284"/>
      <point x="682" y="293" type="curve" smooth="yes"/>
      <point x="682" y="299"/>
      <point x="685" y="305"/>
      <point x="685" y="313" type="curve"/>
      <point x="686" y="318"/>
      <point x="684" y="323"/>
      <point x="684" y="329" type="curve" smooth="yes"/>
      <point x="684" y="335"/>
      <point x="685" y="341"/>
      <point x="685" y="348" type="curve" smooth="yes"/>
      <point x="685" y="372"/>
      <point x="682" y="395"/>
      <point x="684" y="421" type="curve" smooth="yes"/>
      <point x="684" y="428"/>
      <point x="687" y="437"/>
      <point x="687" y="444" type="curve" smooth="yes"/>
      <point x="687" y="459"/>
      <point x="683" y="475"/>
      <point x="684" y="491" type="curve" smooth="yes"/>
      <point x="684" y="496"/>
      <point x="685" y="502"/>
      <point x="685" y="508" type="curve" smooth="yes"/>
      <point x="685" y="516"/>
      <point x="682" y="526"/>
      <point x="682" y="534" type="curve" smooth="yes"/>
      <point x="682" y="542"/>
      <point x="684" y="548"/>
      <point x="684" y="554" type="curve" smooth="yes"/>
      <point x="684" y="575"/>
      <point x="681" y="596"/>
      <point x="687" y="615" type="curve"/>
      <point x="679" y="632"/>
      <point x="688" y="667"/>
      <point x="681" y="683" type="curve"/>
      <point x="675" y="689"/>
      <point x="666" y="689"/>
      <point x="656" y="690" type="curve"/>
      <point x="645" y="689"/>
      <point x="638" y="692"/>
      <point x="627" y="691" type="curve"/>
      <point x="620" y="688"/>
      <point x="609" y="689"/>
      <point x="603" y="685" type="curve"/>
      <point x="597" y="673"/>
      <point x="596" y="654"/>
      <point x="598" y="643" type="curve"/>
      <point x="599" y="641"/>
      <point x="597" y="641"/>
      <point x="597" y="641" type="curve"/>
      <point x="596" y="632"/>
      <point x="599" y="629"/>
      <point x="600" y="621" type="curve" smooth="yes"/>
      <point x="602" y="606"/>
      <point x="599" y="594"/>
      <point x="598" y="580" type="curve" smooth="yes"/>
      <point x="597" y="571"/>
      <point x="602" y="569"/>
      <point x="601" y="561" type="curve"/>
      <point x="602" y="540"/>
      <point x="598" y="517"/>
      <point x="601" y="494" type="curve" smooth="yes"/>
      <point x="602" y="488"/>
      <point x="598" y="485"/>
      <point x="598" y="479" type="curve"/>
      <point x="601" y="472"/>
      <point x="600" y="461"/>
      <point x="601" y="453" type="curve"/>
      <point x="594" y="429"/>
      <point x="604" y="399"/>
      <point x="598" y="372" type="curve"/>
      <point x="598" y="365"/>
      <point x="602" y="361"/>
      <point x="601" y="354" type="curve" smooth="yes"/>
      <point x="601" y="345"/>
      <point x="602" y="334"/>
      <point x="601" y="324" type="curve" smooth="yes"/>
      <point x="601" y="314"/>
      <point x="599" y="302"/>
      <point x="601" y="293" type="curve"/>
      <point x="596" y="279"/>
      <point x="601" y="254"/>
      <point x="595" y="242" type="curve"/>
      <point x="601" y="233"/>
      <point x="579" y="223"/>
      <point x="572" y="229" type="curve"/>
      <point x="561" y="233"/>
      <point x="557" y="244"/>
      <point x="546" y="249" type="curve"/>
      <point x="539" y="257"/>
      <point x="529" y="262"/>
      <point x="522" y="269" type="curve"/>
      <point x="516" y="273"/>
      <point x="513" y="280"/>
      <point x="508" y="285" type="curve" smooth="yes"/>
      <point x="493" y="302"/>
      <point x="476" y="314"/>
      <point x="461" y="329" type="curve"/>
      <point x="454" y="341"/>
      <point x="440" y="348"/>
      <point x="432" y="359" type="curve" smooth="yes"/>
      <point x="422" y="370"/>
      <point x="410" y="379"/>
      <point x="398" y="387" type="curve"/>
      <point x="384" y="413"/>
      <point x="359" y="428"/>
      <point x="342" y="451" type="curve"/>
      <point x="336" y="455"/>
      <point x="329" y="458"/>
      <point x="322" y="461" type="curve"/>
      <point x="319" y="475"/>
      <point x="307" y="480"/>
      <point x="299" y="491" type="curve"/>
      <point x="291" y="499"/>
      <point x="280" y="508"/>
      <point x="271" y="516" type="curve" smooth="yes"/>
      <point x="254" y="534"/>
      <point x="237" y="554"/>
      <point x="215" y="569" type="curve"/>
      <point x="209" y="587"/>
      <point x="193" y="596"/>
      <point x="183" y="610" type="curve"/>
    </contour>
    <contour>
      <point x="379" y="0" type="move" name="bottom"/>
    </contour>
    <contour>
      <point x="399" y="695" type="move" name="top"/>
    </contour>
  </outline>
</glyph>
<glyph name="O" format="1">
  <advance width="836"/>
  <unicode hex="004F"/>
  <outline>
    <contour>
      <point x="103" y="536" type="line"/>
      <point x="102" y="534"/>
      <point x="103" y="531"/>
      <point x="102" y="529" type="curve" smooth="yes"/>
      <point x="101" y="528"/>
      <point x="98" y="527"/>
      <point x="97" y="525" type="curve" smooth="yes"/>
      <point x="93" y="519" type="line" smooth="yes"/>
      <point x="81" y="504"/>
      <point x="74" y="483"/>
      <point x="67" y="462" type="curve"/>
      <point x="64" y="448"/>
      <point x="62" y="435"/>
      <point x="56" y="423" type="curve"/>
      <point x="53" y="396"/>
      <point x="52" y="369"/>
      <point x="52" y="340" type="curve"/>
      <point x="51" y="331"/>
      <point x="50" y="321"/>
      <point x="50" y="313" type="curve" smooth="yes"/>
      <point x="51" y="296"/>
      <point x="62" y="282"/>
      <point x="58" y="265" type="curve"/>
      <point x="65" y="251"/>
      <point x="70" y="236"/>
      <point x="73" y="218" type="curve"/>
      <point x="96" y="178"/>
      <point x="120" y="139"/>
      <point x="152" y="108" type="curve"/>
      <point x="161" y="96"/>
      <point x="176" y="90"/>
      <point x="184" y="76" type="curve"/>
      <point x="197" y="70"/>
      <point x="209" y="60"/>
      <point x="222" y="53" type="curve" smooth="yes"/>
      <point x="237" y="45"/>
      <point x="252" y="34"/>
      <point x="269" y="29" type="curve" smooth="yes"/>
      <point x="272" y="28"/>
      <point x="274" y="25"/>
      <point x="277" y="24" type="curve" smooth="yes"/>
      <point x="283" y="23"/>
      <point x="290" y="22"/>
      <point x="296" y="20" type="curve"/>
      <point x="297" y="17" type="line"/>
      <point x="299" y="16"/>
      <point x="301" y="17"/>
      <point x="302" y="17" type="curve"/>
      <point x="311" y="13"/>
      <point x="319" y="11"/>
      <point x="328" y="6" type="curve"/>
      <point x="343" y="8"/>
      <point x="353" y="4"/>
      <point x="364" y="1" type="curve"/>
      <point x="381" y="2"/>
      <point x="395" y="1"/>
      <point x="407" y="-2" type="curve"/>
      <point x="440" y="1"/>
      <point x="477" y="-1"/>
      <point x="505" y="8" type="curve" smooth="yes"/>
      <point x="520" y="13"/>
      <point x="537" y="16"/>
      <point x="549" y="23" type="curve"/>
      <point x="564" y="28"/>
      <point x="579" y="33"/>
      <point x="590" y="41" type="curve"/>
      <point x="605" y="46"/>
      <point x="614" y="57"/>
      <point x="630" y="61" type="curve"/>
      <point x="664" y="87" type="line"/>
      <point x="671" y="99"/>
      <point x="687" y="104"/>
      <point x="693" y="117" type="curve"/>
      <point x="714" y="136"/>
      <point x="728" y="161"/>
      <point x="745" y="183" type="curve"/>
      <point x="750" y="202"/>
      <point x="764" y="217"/>
      <point x="770" y="237" type="curve" smooth="yes"/>
      <point x="773" y="245"/>
      <point x="772" y="253"/>
      <point x="774" y="262" type="curve"/>
      <point x="774" y="264"/>
      <point x="776" y="266"/>
      <point x="777" y="269" type="curve" smooth="yes"/>
      <point x="779" y="280"/>
      <point x="780" y="290"/>
      <point x="784" y="302" type="curve"/>
      <point x="782" y="330"/>
      <point x="785" y="355"/>
      <point x="786" y="384" type="curve" smooth="yes"/>
      <point x="786" y="385"/>
      <point x="785" y="386"/>
      <point x="784" y="386" type="curve"/>
      <point x="782" y="407"/>
      <point x="774" y="423"/>
      <point x="775" y="447" type="curve"/>
      <point x="769" y="458"/>
      <point x="767" y="472"/>
      <point x="760" y="481" type="curve"/>
      <point x="758" y="495"/>
      <point x="747" y="501"/>
      <point x="746" y="516" type="curve"/>
      <point x="735" y="530"/>
      <point x="726" y="548"/>
      <point x="714" y="561" type="curve"/>
      <point x="703" y="577"/>
      <point x="689" y="590"/>
      <point x="679" y="606" type="curve"/>
      <point x="667" y="612"/>
      <point x="656" y="618"/>
      <point x="648" y="626" type="curve"/>
      <point x="637" y="632"/>
      <point x="628" y="639"/>
      <point x="620" y="648" type="curve"/>
      <point x="592" y="655"/>
      <point x="579" y="678"/>
      <point x="543" y="678" type="curve"/>
      <point x="535" y="684"/>
      <point x="528" y="688"/>
      <point x="517" y="691" type="curve" smooth="yes"/>
      <point x="511" y="693"/>
      <point x="502" y="695"/>
      <point x="493" y="696" type="curve"/>
      <point x="485" y="699"/>
      <point x="476" y="701"/>
      <point x="468" y="702" type="curve" smooth="yes"/>
      <point x="463" y="702"/>
      <point x="458" y="701"/>
      <point x="453" y="702" type="curve" smooth="yes"/>
      <point x="449" y="702"/>
      <point x="445" y="705"/>
      <point x="441" y="705" type="curve" smooth="yes"/>
      <point x="418" y="707"/>
      <point x="401" y="705"/>
      <point x="381" y="703" type="curve" smooth="yes"/>
      <point x="369" y="703"/>
      <point x="357" y="702"/>
      <point x="348" y="700" type="curve" smooth="yes"/>
      <point x="344" y="699"/>
      <point x="339" y="695"/>
      <point x="336" y="695" type="curve"/>
      <point x="330" y="693"/>
      <point x="325" y="694"/>
      <point x="319" y="693" type="curve" smooth="yes"/>
      <point x="314" y="692"/>
      <point x="311" y="689"/>
      <point x="305" y="688" type="curve" smooth="yes"/>
      <point x="300" y="687"/>
      <point x="296" y="687"/>
      <point x="291" y="685" type="curve"/>
      <point x="277" y="676"/>
      <point x="259" y="673"/>
      <point x="247" y="664" type="curve"/>
      <point x="231" y="657"/>
      <point x="223" y="644"/>
      <point x="204" y="641" type="curve"/>
      <point x="188" y="628"/>
      <point x="173" y="614"/>
      <point x="154" y="603" type="curve"/>
      <point x="148" y="596"/>
      <point x="143" y="587"/>
      <point x="137" y="580" type="curve" smooth="yes"/>
      <point x="131" y="572"/>
      <point x="122" y="567"/>
      <point x="117" y="560" type="curve" smooth="yes"/>
      <point x="114" y="554"/>
      <point x="111" y="546"/>
      <point x="108" y="541" type="curve"/>
    </contour>
    <contour>
      <point x="700" y="381" type="line"/>
      <point x="702" y="381"/>
      <point x="702" y="381"/>
      <point x="702" y="379" type="curve"/>
      <point x="700" y="372"/>
      <point x="702" y="365"/>
      <point x="702" y="357" type="curve" smooth="yes"/>
      <point x="701" y="346"/>
      <point x="698" y="333"/>
      <point x="699" y="319" type="curve"/>
      <point x="693" y="303"/>
      <point x="690" y="287"/>
      <point x="690" y="267" type="curve"/>
      <point x="684" y="261"/>
      <point x="682" y="249"/>
      <point x="675" y="244" type="curve"/>
      <point x="670" y="236"/>
      <point x="667" y="227"/>
      <point x="664" y="218" type="curve"/>
      <point x="653" y="209"/>
      <point x="644" y="198"/>
      <point x="638" y="183" type="curve"/>
      <point x="630" y="178"/>
      <point x="623" y="171"/>
      <point x="618" y="163" type="curve"/>
      <point x="609" y="157"/>
      <point x="598" y="152"/>
      <point x="592" y="142" type="curve"/>
      <point x="580" y="137"/>
      <point x="570" y="130"/>
      <point x="561" y="123" type="curve"/>
      <point x="544" y="121"/>
      <point x="531" y="113"/>
      <point x="522" y="103" type="curve"/>
      <point x="505" y="105"/>
      <point x="494" y="101"/>
      <point x="485" y="95" type="curve"/>
      <point x="462" y="95"/>
      <point x="440" y="86"/>
      <point x="418" y="91" type="curve"/>
      <point x="399" y="85"/>
      <point x="372" y="90"/>
      <point x="356" y="96" type="curve"/>
      <point x="337" y="96" type="line"/>
      <point x="315" y="105"/>
      <point x="298" y="117"/>
      <point x="274" y="123" type="curve"/>
      <point x="265" y="129"/>
      <point x="258" y="137"/>
      <point x="247" y="140" type="curve"/>
      <point x="242" y="149"/>
      <point x="233" y="155"/>
      <point x="226" y="162" type="curve" smooth="yes"/>
      <point x="214" y="172"/>
      <point x="201" y="184"/>
      <point x="189" y="195" type="curve"/>
      <point x="187" y="204"/>
      <point x="181" y="207"/>
      <point x="177" y="212" type="curve"/>
      <point x="174" y="228"/>
      <point x="164" y="239"/>
      <point x="160" y="253" type="curve" smooth="yes"/>
      <point x="155" y="267"/>
      <point x="150" y="282"/>
      <point x="143" y="296" type="curve"/>
      <point x="140" y="331" type="line" smooth="yes"/>
      <point x="140" y="340"/>
      <point x="138" y="352"/>
      <point x="139" y="360" type="curve" smooth="yes"/>
      <point x="139" y="370"/>
      <point x="142" y="379"/>
      <point x="143" y="389" type="curve" smooth="yes"/>
      <point x="145" y="399"/>
      <point x="148" y="408"/>
      <point x="149" y="418" type="curve"/>
      <point x="155" y="425"/>
      <point x="156" y="438"/>
      <point x="160" y="447" type="curve"/>
      <point x="168" y="457"/>
      <point x="167" y="467"/>
      <point x="172" y="478" type="curve" smooth="yes"/>
      <point x="178" y="490"/>
      <point x="191" y="497"/>
      <point x="194" y="511" type="curve"/>
      <point x="207" y="522"/>
      <point x="217" y="534"/>
      <point x="227" y="548" type="curve"/>
      <point x="232" y="548"/>
      <point x="236" y="553"/>
      <point x="239" y="557" type="curve"/>
      <point x="243" y="560"/>
      <point x="254" y="563"/>
      <point x="259" y="568" type="curve"/>
      <point x="270" y="572"/>
      <point x="280" y="584"/>
      <point x="293" y="589" type="curve"/>
      <point x="303" y="595"/>
      <point x="319" y="597"/>
      <point x="334" y="601" type="curve" smooth="yes"/>
      <point x="354" y="608" type="line" smooth="yes"/>
      <point x="361" y="610"/>
      <point x="368" y="613"/>
      <point x="374" y="613" type="curve"/>
      <point x="385" y="615"/>
      <point x="398" y="614"/>
      <point x="409" y="615" type="curve" smooth="yes"/>
      <point x="422" y="616"/>
      <point x="434" y="617"/>
      <point x="446" y="616" type="curve" smooth="yes"/>
      <point x="457" y="616"/>
      <point x="468" y="612"/>
      <point x="479" y="612" type="curve"/>
      <point x="489" y="608"/>
      <point x="498" y="605"/>
      <point x="510" y="603" type="curve"/>
      <point x="528" y="597"/>
      <point x="542" y="586"/>
      <point x="561" y="581" type="curve"/>
      <point x="567" y="573"/>
      <point x="578" y="570"/>
      <point x="584" y="563" type="curve"/>
      <point x="612" y="548"/>
      <point x="628" y="524"/>
      <point x="650" y="505" type="curve"/>
      <point x="655" y="493"/>
      <point x="662" y="482"/>
      <point x="670" y="474" type="curve"/>
      <point x="673" y="462"/>
      <point x="681" y="453"/>
      <point x="687" y="442" type="curve"/>
      <point x="686" y="441"/>
      <point x="687" y="440"/>
      <point x="688" y="439" type="curve"/>
      <point x="689" y="418"/>
      <point x="698" y="404"/>
      <point x="700" y="384" type="curve" smooth="yes"/>
    </contour>
    <contour>
      <point x="414" y="0" type="move" name="bottom"/>
    </contour>
    <contour>
      <point x="414" y="348" type="move" name="center"/>
    </contour>
    <contour>
      <point x="453" y="10" type="move" name="ogonek"/>
    </contour>
    <contour>
      <point x="414" y="695" type="move" name="top"/>
    </contour>
    <contour>
      <point x="17" y="695" type="move" name="topleft"/>
    </contour>
    <contour>
      <point x="811" y="695" type="move" name="topright"/>
    </contour>
  </outline>
</glyph>
<glyph name="P" format="1">
  <advance width="488"/>
  <unicode hex="0050"/>
  <outline>
    <contour>
      <point x="243" y="297" type="line"/>
      <point x="247" y="297"/>
      <point x="251" y="299"/>
      <point x="255" y="299" type="curve" smooth="yes"/>
      <point x="270" y="299" type="line"/>
      <point x="282" y="303"/>
      <point x="296" y="303"/>
      <point x="306" y="305" type="curve" smooth="yes"/>
      <point x="320" y="308"/>
      <point x="336" y="314"/>
      <point x="345" y="319" type="curve" smooth="yes"/>
      <point x="350" y="322"/>
      <point x="356" y="324"/>
      <point x="361" y="325" type="curve"/>
      <point x="371" y="334"/>
      <point x="378" y="343"/>
      <point x="390" y="349" type="curve"/>
      <point x="400" y="357"/>
      <point x="406" y="368"/>
      <point x="416" y="374" type="curve"/>
      <point x="420" y="385"/>
      <point x="428" y="389"/>
      <point x="432" y="398" type="curve" smooth="yes"/>
      <point x="437" y="406"/>
      <point x="442" y="414"/>
      <point x="447" y="423" type="curve"/>
      <point x="451" y="453"/>
      <point x="460" y="478"/>
      <point x="457" y="516" type="curve"/>
      <point x="454" y="527"/>
      <point x="454" y="538"/>
      <point x="453" y="549" type="curve"/>
      <point x="450" y="561"/>
      <point x="445" y="571"/>
      <point x="444" y="581" type="curve"/>
      <point x="429" y="602"/>
      <point x="415" y="623"/>
      <point x="398" y="641" type="curve"/>
      <point x="392" y="646"/>
      <point x="386" y="650"/>
      <point x="377" y="652" type="curve"/>
      <point x="372" y="660"/>
      <point x="363" y="666"/>
      <point x="355" y="671" type="curve"/>
      <point x="343" y="675"/>
      <point x="333" y="681"/>
      <point x="320" y="683" type="curve"/>
      <point x="314" y="685"/>
      <point x="307" y="685"/>
      <point x="300" y="687" type="curve" smooth="yes"/>
      <point x="294" y="688"/>
      <point x="286" y="691"/>
      <point x="280" y="691" type="curve" smooth="yes"/>
      <point x="274" y="692"/>
      <point x="269" y="691"/>
      <point x="263" y="691" type="curve" smooth="yes"/>
      <point x="255" y="690" type="line" smooth="yes"/>
      <point x="251" y="690"/>
      <point x="249" y="691"/>
      <point x="247" y="691" type="curve" smooth="yes"/>
      <point x="234" y="691"/>
      <point x="221" y="692"/>
      <point x="210" y="690" type="curve"/>
      <point x="182" y="702"/>
      <point x="137" y="691"/>
      <point x="97" y="695" type="curve"/>
      <point x="86" y="694"/>
      <point x="82" y="697"/>
      <point x="73" y="693" type="curve"/>
      <point x="56" y="669"/>
      <point x="72" y="622"/>
      <point x="65" y="588" type="curve" smooth="yes"/>
      <point x="63" y="579"/>
      <point x="69" y="577"/>
      <point x="68" y="568" type="curve"/>
      <point x="63" y="551"/>
      <point x="69" y="531"/>
      <point x="70" y="517" type="curve" smooth="yes"/>
      <point x="70" y="514"/>
      <point x="68" y="511"/>
      <point x="68" y="508" type="curve" smooth="yes"/>
      <point x="68" y="493"/>
      <point x="70" y="479"/>
      <point x="70" y="464" type="curve" smooth="yes"/>
      <point x="69" y="437"/>
      <point x="71" y="410"/>
      <point x="71" y="383" type="curve" smooth="yes"/>
      <point x="71" y="376"/>
      <point x="70" y="370"/>
      <point x="70" y="364" type="curve" smooth="yes"/>
      <point x="69" y="349"/>
      <point x="71" y="334"/>
      <point x="71" y="319" type="curve" smooth="yes"/>
      <point x="71" y="299"/>
      <point x="68" y="273"/>
      <point x="68" y="258" type="curve" smooth="yes"/>
      <point x="68" y="253"/>
      <point x="70" y="249"/>
      <point x="70" y="245" type="curve" smooth="yes"/>
      <point x="69" y="237"/>
      <point x="66" y="230"/>
      <point x="66" y="222" type="curve" smooth="yes"/>
      <point x="66" y="194"/>
      <point x="70" y="166"/>
      <point x="70" y="139" type="curve" smooth="yes"/>
      <point x="69" y="126"/>
      <point x="69" y="114"/>
      <point x="70" y="102" type="curve" smooth="yes"/>
      <point x="70" y="88"/>
      <point x="69" y="74"/>
      <point x="71" y="61" type="curve"/>
      <point x="67" y="50"/>
      <point x="66" y="28"/>
      <point x="68" y="15" type="curve"/>
      <point x="72" y="11"/>
      <point x="76" y="8"/>
      <point x="79" y="3" type="curve"/>
      <point x="104" y="7"/>
      <point x="133" y="6"/>
      <point x="158" y="10" type="curve"/>
      <point x="164" y="32"/>
      <point x="161" y="56"/>
      <point x="160" y="78" type="curve" smooth="yes"/>
      <point x="159" y="93"/>
      <point x="159" y="110"/>
      <point x="160" y="120" type="curve" smooth="yes"/>
      <point x="160" y="124"/>
      <point x="158" y="125"/>
      <point x="158" y="128" type="curve" smooth="yes"/>
      <point x="158" y="135"/>
      <point x="160" y="140"/>
      <point x="160" y="145" type="curve" smooth="yes"/>
      <point x="159" y="164"/>
      <point x="157" y="183"/>
      <point x="157" y="201" type="curve" smooth="yes"/>
      <point x="156" y="232"/>
      <point x="159" y="264"/>
      <point x="157" y="290" type="curve"/>
      <point x="162" y="297"/>
      <point x="173" y="300"/>
      <point x="186" y="299" type="curve" smooth="yes"/>
      <point x="200" y="299"/>
      <point x="212" y="301"/>
      <point x="224" y="301" type="curve"/>
    </contour>
    <contour>
      <point x="378" y="513" type="line"/>
      <point x="376" y="505"/>
      <point x="373" y="497"/>
      <point x="377" y="488" type="curve"/>
      <point x="372" y="483"/>
      <point x="373" y="474"/>
      <point x="370" y="467" type="curve" smooth="yes"/>
      <point x="367" y="462"/>
      <point x="366" y="455"/>
      <point x="366" y="446" type="curve"/>
      <point x="362" y="441"/>
      <point x="356" y="439"/>
      <point x="357" y="430" type="curve"/>
      <point x="343" y="419"/>
      <point x="332" y="406"/>
      <point x="315" y="398" type="curve"/>
      <point x="260" y="379" type="line"/>
      <point x="238" y="376"/>
      <point x="218" y="379"/>
      <point x="198" y="379" type="curve" smooth="yes"/>
      <point x="185" y="379"/>
      <point x="173" y="374"/>
      <point x="161" y="381" type="curve"/>
      <point x="160" y="400"/>
      <point x="156" y="421"/>
      <point x="157" y="441" type="curve" smooth="yes"/>
      <point x="157" y="443"/>
      <point x="156" y="446"/>
      <point x="157" y="449" type="curve"/>
      <point x="157" y="449"/>
      <point x="160" y="454"/>
      <point x="160" y="455" type="curve" smooth="yes"/>
      <point x="160" y="457"/>
      <point x="158" y="461"/>
      <point x="158" y="466" type="curve" smooth="yes"/>
      <point x="157" y="481"/>
      <point x="158" y="489"/>
      <point x="148" y="496" type="curve"/>
      <point x="150" y="504"/>
      <point x="158" y="507"/>
      <point x="160" y="516" type="curve"/>
      <point x="158" y="531"/>
      <point x="154" y="551"/>
      <point x="160" y="565" type="curve"/>
      <point x="155" y="578"/>
      <point x="156" y="603"/>
      <point x="164" y="613" type="curve"/>
      <point x="167" y="613"/>
      <point x="171" y="614"/>
      <point x="172" y="616" type="curve"/>
      <point x="199" y="611"/>
      <point x="238" y="615"/>
      <point x="268" y="612" type="curve"/>
      <point x="297" y="604"/>
      <point x="320" y="590"/>
      <point x="341" y="577" type="curve"/>
      <point x="352" y="565"/>
      <point x="358" y="549"/>
      <point x="369" y="537" type="curve"/>
      <point x="369" y="529"/>
      <point x="373" y="525"/>
      <point x="375" y="517" type="curve"/>
    </contour>
    <contour>
      <point x="242" y="0" type="move" name="bottom"/>
    </contour>
    <contour>
      <point x="242" y="695" type="move" name="top"/>
    </contour>
  </outline>
</glyph>
<glyph name="S" format="1">
  <advance width="503"/>
  <unicode hex="0053"/>
  <outline>
    <contour>
      <point x="113" y="171" type="line" smooth="yes"/>
      <point x="111" y="176"/>
      <point x="109" y="183"/>
      <point x="108" y="190" type="curve"/>
      <point x="103" y="194"/>
      <point x="106" y="206"/>
      <point x="98" y="206" type="curve"/>
      <point x="88" y="211"/>
      <point x="75" y="198"/>
      <point x="66" y="204" type="curve"/>
      <point x="55" y="201"/>
      <point x="43" y="199"/>
      <point x="33" y="195" type="curve"/>
      <point x="27" y="182"/>
      <point x="31" y="166"/>
      <point x="33" y="152" type="curve"/>
      <point x="36" y="145"/>
      <point x="42" y="140"/>
      <point x="43" y="130" type="curve"/>
      <point x="46" y="122"/>
      <point x="51" y="117"/>
      <point x="52" y="107" type="curve"/>
      <point x="60" y="102"/>
      <point x="64" y="94"/>
      <point x="69" y="88" type="curve" smooth="yes"/>
      <point x="75" y="82"/>
      <point x="82" y="77"/>
      <point x="84" y="68" type="curve"/>
      <point x="105" y="61"/>
      <point x="115" y="43"/>
      <point x="133" y="35" type="curve"/>
      <point x="150" y="24"/>
      <point x="172" y="19"/>
      <point x="190" y="10" type="curve"/>
      <point x="201" y="11"/>
      <point x="208" y="8"/>
      <point x="217" y="6" type="curve"/>
      <point x="253" y="5"/>
      <point x="270" y="7"/>
      <point x="304" y="8" type="curve"/>
      <point x="317" y="12"/>
      <point x="328" y="18"/>
      <point x="345" y="18" type="curve"/>
      <point x="353" y="25"/>
      <point x="366" y="28"/>
      <point x="374" y="35" type="curve"/>
      <point x="384" y="40"/>
      <point x="393" y="48"/>
      <point x="402" y="53" type="curve"/>
      <point x="406" y="58"/>
      <point x="410" y="65"/>
      <point x="416" y="68" type="curve"/>
      <point x="415" y="73"/>
      <point x="420" y="74"/>
      <point x="422" y="76" type="curve" smooth="yes"/>
      <point x="427" y="81"/>
      <point x="430" y="84"/>
      <point x="432" y="88" type="curve" smooth="yes"/>
      <point x="435" y="93"/>
      <point x="436" y="99"/>
      <point x="439" y="103" type="curve"/>
      <point x="446" y="107"/>
      <point x="448" y="116"/>
      <point x="452" y="122" type="curve" smooth="yes"/>
      <point x="455" y="128"/>
      <point x="455" y="136"/>
      <point x="457" y="142" type="curve" smooth="yes"/>
      <point x="459" y="148"/>
      <point x="464" y="153"/>
      <point x="466" y="160" type="curve" smooth="yes"/>
      <point x="467" y="165"/>
      <point x="468" y="176"/>
      <point x="467" y="180" type="curve" smooth="yes"/>
      <point x="463" y="201"/>
      <point x="480" y="227"/>
      <point x="469" y="251" type="curve"/>
      <point x="472" y="270"/>
      <point x="452" y="288"/>
      <point x="449" y="308" type="curve"/>
      <point x="434" y="325"/>
      <point x="420" y="343"/>
      <point x="403" y="359" type="curve"/>
      <point x="391" y="367"/>
      <point x="379" y="377"/>
      <point x="365" y="384" type="curve"/>
      <point x="360" y="389"/>
      <point x="353" y="393"/>
      <point x="345" y="395" type="curve"/>
      <point x="338" y="400"/>
      <point x="331" y="404"/>
      <point x="324" y="407" type="curve"/>
      <point x="300" y="413"/>
      <point x="281" y="423"/>
      <point x="260" y="430" type="curve" smooth="yes"/>
      <point x="239" y="438"/>
      <point x="222" y="451"/>
      <point x="199" y="456" type="curve"/>
      <point x="185" y="467"/>
      <point x="167" y="475"/>
      <point x="155" y="488" type="curve"/>
      <point x="151" y="498"/>
      <point x="147" y="509"/>
      <point x="145" y="522" type="curve"/>
      <point x="149" y="548"/>
      <point x="159" y="567"/>
      <point x="170" y="588" type="curve"/>
      <point x="188" y="606"/>
      <point x="210" y="619"/>
      <point x="240" y="626" type="curve"/>
      <point x="253" y="625"/>
      <point x="264" y="626"/>
      <point x="275" y="628" type="curve"/>
      <point x="297" y="623"/>
      <point x="315" y="616"/>
      <point x="333" y="608" type="curve"/>
      <point x="335" y="605"/>
      <point x="336" y="603"/>
      <point x="341" y="603" type="curve"/>
      <point x="346" y="596"/>
      <point x="352" y="590"/>
      <point x="357" y="583" type="curve"/>
      <point x="364" y="578"/>
      <point x="365" y="565"/>
      <point x="377" y="565" type="curve" smooth="yes"/>
      <point x="394" y="564"/>
      <point x="400" y="572"/>
      <point x="409" y="580" type="curve"/>
      <point x="419" y="585"/>
      <point x="433" y="587"/>
      <point x="435" y="600" type="curve"/>
      <point x="435" y="624"/>
      <point x="418" y="634"/>
      <point x="409" y="650" type="curve"/>
      <point x="402" y="650"/>
      <point x="400" y="657"/>
      <point x="396" y="659" type="curve"/>
      <point x="391" y="663"/>
      <point x="384" y="664"/>
      <point x="379" y="667" type="curve"/>
      <point x="378" y="667"/>
      <point x="378" y="669"/>
      <point x="377" y="670" type="curve" smooth="yes"/>
      <point x="376" y="671"/>
      <point x="374" y="671"/>
      <point x="373" y="671" type="curve"/>
      <point x="364" y="677"/>
      <point x="358" y="684"/>
      <point x="350" y="688" type="curve"/>
      <point x="335" y="685"/>
      <point x="329" y="693"/>
      <point x="322" y="695" type="curve" smooth="yes"/>
      <point x="315" y="696"/>
      <point x="310" y="693"/>
      <point x="305" y="699" type="curve"/>
      <point x="291" y="696"/>
      <point x="282" y="701"/>
      <point x="272" y="702" type="curve"/>
      <point x="248" y="700"/>
      <point x="237" y="703"/>
      <point x="215" y="702" type="curve"/>
      <point x="207" y="700"/>
      <point x="203" y="692"/>
      <point x="194" y="690" type="curve" smooth="yes"/>
      <point x="183" y="689"/>
      <point x="176" y="683"/>
      <point x="165" y="682" type="curve"/>
      <point x="157" y="673"/>
      <point x="147" y="667"/>
      <point x="135" y="664" type="curve"/>
      <point x="132" y="658"/>
      <point x="129" y="654"/>
      <point x="121" y="653" type="curve"/>
      <point x="115" y="641"/>
      <point x="104" y="632"/>
      <point x="95" y="623" type="curve"/>
      <point x="93" y="611"/>
      <point x="81" y="604"/>
      <point x="77" y="593" type="curve"/>
      <point x="75" y="590"/>
      <point x="76" y="586"/>
      <point x="75" y="583" type="curve" smooth="yes"/>
      <point x="75" y="582"/>
      <point x="71" y="581"/>
      <point x="71" y="580" type="curve" smooth="yes"/>
      <point x="68" y="569"/>
      <point x="69" y="562"/>
      <point x="66" y="553" type="curve"/>
      <point x="67" y="535"/>
      <point x="64" y="523"/>
      <point x="65" y="506" type="curve" smooth="yes"/>
      <point x="67" y="485"/>
      <point x="73" y="469"/>
      <point x="78" y="451" type="curve"/>
      <point x="89" y="435"/>
      <point x="103" y="421"/>
      <point x="116" y="407" type="curve"/>
      <point x="131" y="403"/>
      <point x="142" y="394"/>
      <point x="153" y="386" type="curve"/>
      <point x="165" y="383"/>
      <point x="174" y="377"/>
      <point x="183" y="371" type="curve"/>
      <point x="202" y="368"/>
      <point x="212" y="358"/>
      <point x="232" y="357" type="curve"/>
      <point x="248" y="347"/>
      <point x="272" y="341"/>
      <point x="289" y="331" type="curve" smooth="yes"/>
      <point x="306" y="320"/>
      <point x="322" y="308"/>
      <point x="341" y="299" type="curve"/>
      <point x="348" y="288"/>
      <point x="360" y="281"/>
      <point x="367" y="269" type="curve"/>
      <point x="368" y="263"/>
      <point x="371" y="260"/>
      <point x="374" y="255" type="curve"/>
      <point x="375" y="239"/>
      <point x="384" y="230"/>
      <point x="385" y="214" type="curve" smooth="yes"/>
      <point x="385" y="195"/>
      <point x="375" y="188"/>
      <point x="376" y="169" type="curve"/>
      <point x="369" y="158"/>
      <point x="365" y="144"/>
      <point x="359" y="134" type="curve"/>
      <point x="349" y="125"/>
      <point x="339" y="120"/>
      <point x="330" y="110" type="curve"/>
      <point x="310" y="104"/>
      <point x="292" y="92"/>
      <point x="267" y="90" type="curve" smooth="yes"/>
      <point x="253" y="89"/>
      <point x="238" y="91"/>
      <point x="220" y="90" type="curve"/>
      <point x="199" y="95"/>
      <point x="182" y="105"/>
      <point x="158" y="108" type="curve"/>
      <point x="155" y="114"/>
      <point x="147" y="116"/>
      <point x="145" y="123" type="curve"/>
      <point x="141" y="126"/>
      <point x="141" y="130"/>
      <point x="139" y="135" type="curve"/>
      <point x="131" y="142"/>
      <point x="123" y="149"/>
      <point x="118" y="160" type="curve" smooth="yes"/>
    </contour>
    <contour>
      <point x="240" y="0" type="move" name="bottom"/>
    </contour>
    <contour>
      <point x="240" y="695" type="move" name="top"/>
    </contour>
  </outline>
</glyph>
<glyph name="T" format="1">
  <advance width="489"/>
  <unicode hex="0054"/>
  <outline>
    <contour>
      <point x="456" y="675" type="line"/>
      <point x="451" y="682"/>
      <point x="441" y="684"/>
      <point x="434" y="688" type="curve"/>
      <point x="421" y="688"/>
      <point x="409" y="690"/>
      <point x="395" y="690" type="curve" smooth="yes"/>
      <point x="382" y="690"/>
      <point x="369" y="688"/>
      <point x="355" y="688" type="curve" smooth="yes"/>
      <point x="340" y="689"/>
      <point x="327" y="690"/>
      <point x="312" y="690" type="curve" smooth="yes"/>
      <point x="297" y="690"/>
      <point x="283" y="688"/>
      <point x="268" y="688" type="curve" smooth="yes"/>
      <point x="260" y="689"/>
      <point x="250" y="692"/>
      <point x="242" y="691" type="curve" smooth="yes"/>
      <point x="231" y="691"/>
      <point x="224" y="689"/>
      <point x="215" y="688" type="curve"/>
      <point x="198" y="691"/>
      <point x="180" y="689"/>
      <point x="161" y="688" type="curve" smooth="yes"/>
      <point x="159" y="688"/>
      <point x="159" y="690"/>
      <point x="157" y="690" type="curve" smooth="yes"/>
      <point x="154" y="690"/>
      <point x="154" y="688"/>
      <point x="150" y="688" type="curve" smooth="yes"/>
      <point x="136" y="688"/>
      <point x="121" y="691"/>
      <point x="106" y="691" type="curve" smooth="yes"/>
      <point x="86" y="691"/>
      <point x="69" y="687"/>
      <point x="54" y="683" type="curve" smooth="yes"/>
      <point x="46" y="681"/>
      <point x="37" y="679"/>
      <point x="31" y="673" type="curve"/>
      <point x="29" y="652"/>
      <point x="32" y="624"/>
      <point x="42" y="612" type="curve"/>
      <point x="49" y="607"/>
      <point x="55" y="610"/>
      <point x="63" y="610" type="curve" smooth="yes"/>
      <point x="70" y="610"/>
      <point x="79" y="608"/>
      <point x="86" y="608" type="curve" smooth="yes"/>
      <point x="100" y="608"/>
      <point x="116" y="612"/>
      <point x="126" y="612" type="curve" smooth="yes"/>
      <point x="132" y="612"/>
      <point x="136" y="610"/>
      <point x="140" y="610" type="curve" smooth="yes"/>
      <point x="159" y="611"/>
      <point x="176" y="612"/>
      <point x="193" y="610" type="curve"/>
      <point x="200" y="603"/>
      <point x="200" y="594"/>
      <point x="201" y="583" type="curve" smooth="yes"/>
      <point x="205" y="551"/>
      <point x="201" y="511"/>
      <point x="204" y="482" type="curve"/>
      <point x="201" y="471"/>
      <point x="199" y="458"/>
      <point x="200" y="444" type="curve" smooth="yes"/>
      <point x="200" y="436"/>
      <point x="204" y="427"/>
      <point x="205" y="418" type="curve" smooth="yes"/>
      <point x="206" y="409"/>
      <point x="205" y="399"/>
      <point x="205" y="389" type="curve" smooth="yes"/>
      <point x="205" y="381"/>
      <point x="207" y="370"/>
      <point x="207" y="363" type="curve" smooth="yes"/>
      <point x="206" y="356"/>
      <point x="201" y="351"/>
      <point x="204" y="346" type="curve"/>
      <point x="206" y="333"/>
      <point x="207" y="312"/>
      <point x="204" y="299" type="curve"/>
      <point x="208" y="280"/>
      <point x="207" y="262"/>
      <point x="208" y="244" type="curve"/>
      <point x="198" y="207"/>
      <point x="213" y="165"/>
      <point x="205" y="130" type="curve"/>
      <point x="207" y="124"/>
      <point x="209" y="119"/>
      <point x="210" y="111" type="curve"/>
      <point x="207" y="92"/>
      <point x="208" y="66"/>
      <point x="208" y="50" type="curve"/>
      <point x="209" y="45"/>
      <point x="206" y="40"/>
      <point x="207" y="36" type="curve" smooth="yes"/>
      <point x="208" y="29"/>
      <point x="212" y="22"/>
      <point x="215" y="17" type="curve"/>
      <point x="232" y="10"/>
      <point x="261" y="15"/>
      <point x="280" y="17" type="curve"/>
      <point x="294" y="32"/>
      <point x="294" y="58"/>
      <point x="294" y="84" type="curve" smooth="yes"/>
      <point x="294" y="121"/>
      <point x="288" y="160"/>
      <point x="292" y="194" type="curve"/>
      <point x="288" y="205"/>
      <point x="283" y="214"/>
      <point x="282" y="227" type="curve" smooth="yes"/>
      <point x="281" y="235"/>
      <point x="288" y="234"/>
      <point x="286" y="244" type="curve"/>
      <point x="286" y="257"/>
      <point x="286" y="269"/>
      <point x="291" y="277" type="curve"/>
      <point x="288" y="296"/>
      <point x="285" y="316"/>
      <point x="285" y="336" type="curve" smooth="yes"/>
      <point x="285" y="348"/>
      <point x="287" y="359"/>
      <point x="283" y="371" type="curve"/>
      <point x="285" y="402"/>
      <point x="288" y="436"/>
      <point x="285" y="462" type="curve"/>
      <point x="288" y="473"/>
      <point x="291" y="484"/>
      <point x="291" y="496" type="curve"/>
      <point x="289" y="511"/>
      <point x="283" y="526"/>
      <point x="282" y="540" type="curve"/>
      <point x="287" y="549"/>
      <point x="283" y="568"/>
      <point x="288" y="578" type="curve"/>
      <point x="288" y="594"/>
      <point x="291" y="606"/>
      <point x="300" y="612" type="curve"/>
      <point x="324" y="614"/>
      <point x="364" y="608"/>
      <point x="389" y="615" type="curve"/>
      <point x="410" y="613"/>
      <point x="442" y="606"/>
      <point x="456" y="620" type="curve"/>
      <point x="462" y="631"/>
      <point x="458" y="652"/>
      <point x="459" y="668" type="curve"/>
    </contour>
    <contour>
      <point x="249" y="0" type="move" name="bottom"/>
    </contour>
    <contour>
      <point x="249" y="348" type="move" name="center"/>
    </contour>
    <contour>
      <point x="249" y="695" type="move" name="top"/>
    </contour>
  </outline>
</glyph>
